<?xml version="1.0" encoding="UTF-8"?>
<svg width="614px" height="1087px" viewBox="0 0 614 1087" version="1.1" xmlns="http://www.w3.org/2000/svg" xmlns:xlink="http://www.w3.org/1999/xlink">
    <!-- Generator: Sketch 45.2 (43514) - http://www.bohemiancoding.com/sketch -->
    <title>transparent stars</title>
    <desc>Created with Sketch.</desc>
    <defs></defs>
    <g id="Page-1" stroke="none" stroke-width="1" fill="none" fill-rule="evenodd">
        <g id="Mobile" transform="translate(0.000000, -47.000000)" fill="#EFE400">
            <g id="transparent-stars" transform="translate(-24.000000, 47.000000)">
                <g id="star-copy" opacity="0.3" transform="translate(542.000000, 209.000000)">
                    <polygon id="Fill-1" points="11.3018945 17.5003555 17.1856266 17.5003555 17.1856266 11.6166233 11.3018945 11.6166233"></polygon>
                    <polygon id="Fill-2" points="11.3018945 24.1038415 17.1856266 24.1038415 17.1856266 18.2852876 11.3018945 18.2852876"></polygon>
                    <polygon id="Fill-3" points="17.9696277 17.5003555 23.7881816 17.5003555 23.7881816 11.6166233 17.9696277 11.6166233"></polygon>
                    <polygon id="Fill-4" points="14.7647209 10.4499329 20.5832748 10.4499329 20.5832748 4.56620075 14.7647209 4.56620075"></polygon>
                    <polygon id="Fill-5" points="14.7647209 30.9596605 20.5832748 30.9596605 20.5832748 25.0759283 14.7647209 25.0759283"></polygon>
                    <polygon id="Fill-6" points="24.9874611 20.6726732 30.8711933 20.6726732 30.8711933 14.8541192 24.9874611 14.8541192"></polygon>
                    <polygon id="Fill-7" points="31.9093894 19.2406143 35.3061064 19.2406143 35.3061064 15.8820731 31.9093894 15.8820731"></polygon>
                    <polygon id="Fill-8" points="0.183419102 19.2406143 3.58013614 19.2406143 3.58013614 15.8820731 0.183419102 15.8820731"></polygon>
                    <polygon id="Fill-9" points="16.064561 3.39764815 19.4240334 3.39764815 19.4240334 0 16.064561 0"></polygon>
                    <polygon id="Fill-10" points="16.0654922 35.1226873 19.4240334 35.1226873 19.4240334 31.7269014 16.0654922 31.7269014"></polygon>
                    <polygon id="Fill-11" points="4.47773351 20.6726732 10.3614657 20.6726732 10.3614657 14.8541192 4.47773351 14.8541192"></polygon>
                    <polygon id="Fill-12" points="17.9696277 24.1038415 23.7881816 24.1038415 23.7881816 18.2852876 17.9696277 18.2852876"></polygon>
                </g>
                <g id="star-copy-4" opacity="0.100000001" transform="translate(589.000000, 612.000000)">
                    <polygon id="Fill-1" points="15.5057675 24.0098193 23.5780234 24.0098193 23.5780234 15.9375635 15.5057675 15.9375635"></polygon>
                    <polygon id="Fill-2" points="15.5057675 33.06955 23.5780234 33.06955 23.5780234 25.0867162 15.5057675 25.0867162"></polygon>
                    <polygon id="Fill-3" points="24.6536428 24.0098193 32.6364766 24.0098193 32.6364766 15.9375635 24.6536428 15.9375635"></polygon>
                    <polygon id="Fill-4" points="20.2566331 14.3369088 28.2394668 14.3369088 28.2394668 6.26465303 20.2566331 6.26465303"></polygon>
                    <polygon id="Fill-5" points="20.2566331 42.4754717 28.2394668 42.4754717 28.2394668 34.4032159 20.2566331 34.4032159"></polygon>
                    <polygon id="Fill-6" points="34.2818422 28.362118 42.354098 28.362118 42.354098 20.3792842 34.2818422 20.3792842"></polygon>
                    <polygon id="Fill-7" points="43.7784635 26.3973879 48.4386295 26.3973879 48.4386295 21.7895976 43.7784635 21.7895976"></polygon>
                    <polygon id="Fill-8" points="0.251644003 26.3973879 4.91181004 26.3973879 4.91181004 21.7895976 0.251644003 21.7895976"></polygon>
                    <polygon id="Fill-9" points="22.0399642 4.6614435 26.6490319 4.6614435 26.6490319 0 22.0399642 0"></polygon>
                    <polygon id="Fill-10" points="22.0412416 48.1869855 26.6490319 48.1869855 26.6490319 43.5280969 22.0412416 43.5280969"></polygon>
                    <polygon id="Fill-11" points="6.14327936 28.362118 14.2155352 28.362118 14.2155352 20.3792842 6.14327936 20.3792842"></polygon>
                    <polygon id="Fill-12" points="24.6536428 33.06955 32.6364766 33.06955 32.6364766 25.0867162 24.6536428 25.0867162"></polygon>
                </g>
                <g id="star-copy-7" opacity="0.100000001" transform="translate(569.000000, 1000.000000)">
                    <polygon id="Fill-1" points="15.5057675 24.0098193 23.5780234 24.0098193 23.5780234 15.9375635 15.5057675 15.9375635"></polygon>
                    <polygon id="Fill-2" points="15.5057675 33.06955 23.5780234 33.06955 23.5780234 25.0867162 15.5057675 25.0867162"></polygon>
                    <polygon id="Fill-3" points="24.6536428 24.0098193 32.6364766 24.0098193 32.6364766 15.9375635 24.6536428 15.9375635"></polygon>
                    <polygon id="Fill-4" points="20.2566331 14.3369088 28.2394668 14.3369088 28.2394668 6.26465303 20.2566331 6.26465303"></polygon>
                    <polygon id="Fill-5" points="20.2566331 42.4754717 28.2394668 42.4754717 28.2394668 34.4032159 20.2566331 34.4032159"></polygon>
                    <polygon id="Fill-6" points="34.2818422 28.362118 42.354098 28.362118 42.354098 20.3792842 34.2818422 20.3792842"></polygon>
                    <polygon id="Fill-7" points="43.7784635 26.3973879 48.4386295 26.3973879 48.4386295 21.7895976 43.7784635 21.7895976"></polygon>
                    <polygon id="Fill-8" points="0.251644003 26.3973879 4.91181004 26.3973879 4.91181004 21.7895976 0.251644003 21.7895976"></polygon>
                    <polygon id="Fill-9" points="22.0399642 4.6614435 26.6490319 4.6614435 26.6490319 0 22.0399642 0"></polygon>
                    <polygon id="Fill-10" points="22.0412416 48.1869855 26.6490319 48.1869855 26.6490319 43.5280969 22.0412416 43.5280969"></polygon>
                    <polygon id="Fill-11" points="6.14327936 28.362118 14.2155352 28.362118 14.2155352 20.3792842 6.14327936 20.3792842"></polygon>
                    <polygon id="Fill-12" points="24.6536428 33.06955 32.6364766 33.06955 32.6364766 25.0867162 24.6536428 25.0867162"></polygon>
                </g>
                <g id="star-copy-2" opacity="0.3" transform="translate(149.000000, 390.000000)">
                    <polygon id="Fill-1" points="6.43825369 9.96927801 9.78998913 9.96927801 9.78998913 6.61754256 6.43825369 6.61754256"></polygon>
                    <polygon id="Fill-2" points="6.43825369 13.7310295 9.78998913 13.7310295 9.78998913 10.4164236 6.43825369 10.4164236"></polygon>
                    <polygon id="Fill-3" points="10.2366043 9.96927801 13.5512102 9.96927801 13.5512102 6.61754256 10.2366043 6.61754256"></polygon>
                    <polygon id="Fill-4" points="8.41089241 5.95292403 11.7254983 5.95292403 11.7254983 2.60118858 8.41089241 2.60118858"></polygon>
                    <polygon id="Fill-5" points="8.41089241 17.6365253 11.7254983 17.6365253 11.7254983 14.2847899 8.41089241 14.2847899"></polygon>
                    <polygon id="Fill-6" points="14.2343935 11.7764251 17.586129 11.7764251 17.586129 8.46181921 14.2343935 8.46181921"></polygon>
                    <polygon id="Fill-7" points="18.1775493 10.9606364 20.1125281 10.9606364 20.1125281 9.0474049 18.1775493 9.0474049"></polygon>
                    <polygon id="Fill-8" points="0.104486793 10.9606364 2.03946557 10.9606364 2.03946557 9.0474049 0.104486793 9.0474049"></polygon>
                    <polygon id="Fill-9" points="9.15136127 1.9355092 11.0651232 1.9355092 11.0651232 0 9.15136127 0"></polygon>
                    <polygon id="Fill-10" points="9.15189169 20.0080413 11.0651232 20.0080413 11.0651232 18.0735929 9.15189169 18.0735929"></polygon>
                    <polygon id="Fill-11" points="2.5507922 11.7764251 5.90252765 11.7764251 5.90252765 8.46181921 2.5507922 8.46181921"></polygon>
                    <polygon id="Fill-12" points="10.2366043 13.7310295 13.5512102 13.7310295 13.5512102 10.4164236 10.2366043 10.4164236"></polygon>
                </g>
                <g id="star-copy-8" opacity="0.3" transform="translate(511.000000, 856.000000)">
                    <polygon id="Fill-1" points="6.43825369 9.96927801 9.78998913 9.96927801 9.78998913 6.61754256 6.43825369 6.61754256"></polygon>
                    <polygon id="Fill-2" points="6.43825369 13.7310295 9.78998913 13.7310295 9.78998913 10.4164236 6.43825369 10.4164236"></polygon>
                    <polygon id="Fill-3" points="10.2366043 9.96927801 13.5512102 9.96927801 13.5512102 6.61754256 10.2366043 6.61754256"></polygon>
                    <polygon id="Fill-4" points="8.41089241 5.95292403 11.7254983 5.95292403 11.7254983 2.60118858 8.41089241 2.60118858"></polygon>
                    <polygon id="Fill-5" points="8.41089241 17.6365253 11.7254983 17.6365253 11.7254983 14.2847899 8.41089241 14.2847899"></polygon>
                    <polygon id="Fill-6" points="14.2343935 11.7764251 17.586129 11.7764251 17.586129 8.46181921 14.2343935 8.46181921"></polygon>
                    <polygon id="Fill-7" points="18.1775493 10.9606364 20.1125281 10.9606364 20.1125281 9.0474049 18.1775493 9.0474049"></polygon>
                    <polygon id="Fill-8" points="0.104486793 10.9606364 2.03946557 10.9606364 2.03946557 9.0474049 0.104486793 9.0474049"></polygon>
                    <polygon id="Fill-9" points="9.15136127 1.9355092 11.0651232 1.9355092 11.0651232 0 9.15136127 0"></polygon>
                    <polygon id="Fill-10" points="9.15189169 20.0080413 11.0651232 20.0080413 11.0651232 18.0735929 9.15189169 18.0735929"></polygon>
                    <polygon id="Fill-11" points="2.5507922 11.7764251 5.90252765 11.7764251 5.90252765 8.46181921 2.5507922 8.46181921"></polygon>
                    <polygon id="Fill-12" points="10.2366043 13.7310295 13.5512102 13.7310295 13.5512102 10.4164236 10.2366043 10.4164236"></polygon>
                </g>
                <g id="star-copy-5" opacity="0.200000018" transform="translate(0.000000, 1025.250000)">
                    <polygon id="Fill-1" points="28.742204 44.5057054 43.7053086 44.5057054 43.7053086 29.5426007 28.742204 29.5426007"></polygon>
                    <polygon id="Fill-2" points="28.742204 61.2992389 43.7053086 61.2992389 43.7053086 46.5018911 28.742204 46.5018911"></polygon>
                    <polygon id="Fill-3" points="45.6991263 44.5057054 60.4964742 44.5057054 60.4964742 29.5426007 45.6991263 29.5426007"></polygon>
                    <polygon id="Fill-4" points="37.5486269 26.5755537 52.3459747 26.5755537 52.3459747 11.612449 37.5486269 11.612449"></polygon>
                    <polygon id="Fill-6" points="63.5463996 52.5733265 78.5095043 52.5733265 78.5095043 37.7759786 63.5463996 37.7759786"></polygon>
                    <polygon id="Fill-7" points="81.1497736 48.9314124 89.7880718 48.9314124 89.7880718 40.3902004 81.1497736 40.3902004"></polygon>
                    <polygon id="Fill-9" points="40.8542914 8.64066608 49.3978713 8.64066608 49.3978713 0 40.8542914 0"></polygon>
                    <polygon id="Fill-11" points="11.3874652 52.5733265 26.3505699 52.5733265 26.3505699 37.7759786 11.3874652 37.7759786"></polygon>
                    <polygon id="Fill-12" points="45.6991263 61.2992389 60.4964742 61.2992389 60.4964742 46.5018911 45.6991263 46.5018911"></polygon>
                </g>
                <g id="star-copy-3" opacity="0.4" transform="translate(84.000000, 0.000000)">
                    <polygon id="Fill-1" points="10.8621579 16.8194478 16.5169646 16.8194478 16.5169646 11.1646412 10.8621579 11.1646412"></polygon>
                    <polygon id="Fill-2" points="10.8621579 23.166004 16.5169646 23.166004 16.5169646 17.5738397 10.8621579 17.5738397"></polygon>
                    <polygon id="Fill-3" points="17.2704615 16.8194478 22.8626259 16.8194478 22.8626259 11.1646412 17.2704615 11.1646412"></polygon>
                    <polygon id="Fill-4" points="14.1902519 10.0433447 19.7824163 10.0433447 19.7824163 4.38853803 14.1902519 4.38853803"></polygon>
                    <polygon id="Fill-5" points="14.1902519 29.7550753 19.7824163 29.7550753 19.7824163 24.1002687 14.1902519 24.1002687"></polygon>
                    <polygon id="Fill-6" points="24.0152435 19.8683363 29.6700502 19.8683363 29.6700502 14.2761719 24.0152435 14.2761719"></polygon>
                    <polygon id="Fill-7" points="30.6678519 18.4919963 33.9324088 18.4919963 33.9324088 15.2641299 30.6678519 15.2641299"></polygon>
                    <polygon id="Fill-8" points="0.176282592 18.4919963 3.44083943 18.4919963 3.44083943 15.2641299 0.176282592 15.2641299"></polygon>
                    <polygon id="Fill-9" points="15.4395176 3.26545172 18.6682789 3.26545172 18.6682789 0 15.4395176 0"></polygon>
                    <polygon id="Fill-10" points="15.4404125 33.7561262 18.6682789 33.7561262 18.6682789 30.4924642 15.4404125 30.4924642"></polygon>
                    <polygon id="Fill-11" points="4.30351289 19.8683363 9.95831953 19.8683363 9.95831953 14.2761719 4.30351289 14.2761719"></polygon>
                    <polygon id="Fill-12" points="17.2704615 23.166004 22.8626259 23.166004 22.8626259 17.5738397 17.2704615 17.5738397"></polygon>
                </g>
                <g id="star-copy-6" opacity="0.5" transform="translate(73.000000, 676.000000)">
                    <polygon id="Fill-1" points="15.0362409 23.2827834 22.8640626 23.2827834 22.8640626 15.4549617 15.0362409 15.4549617"></polygon>
                    <polygon id="Fill-2" points="15.0362409 32.0681784 22.8640626 32.0681784 22.8640626 24.3270711 15.0362409 24.3270711"></polygon>
                    <polygon id="Fill-3" points="23.9071115 23.2827834 31.6482189 23.2827834 31.6482189 15.4549617 23.9071115 15.4549617"></polygon>
                    <polygon id="Fill-4" points="19.6432466 13.9027762 27.384354 13.9027762 27.384354 6.0749545 19.6432466 6.0749545"></polygon>
                    <polygon id="Fill-5" points="19.6432466 41.1892816 27.384354 41.1892816 27.384354 33.36146 19.6432466 33.36146"></polygon>
                    <polygon id="Fill-6" points="33.2437616 27.5032911 41.0715832 27.5032911 41.0715832 19.7621838 33.2437616 19.7621838"></polygon>
                    <polygon id="Fill-7" points="42.4528178 25.5980546 46.9718704 25.5980546 46.9718704 21.1297918 42.4528178 21.1297918"></polygon>
                    <polygon id="Fill-8" points="0.244024028 25.5980546 4.76307664 25.5980546 4.76307664 21.1297918 0.244024028 21.1297918"></polygon>
                    <polygon id="Fill-9" points="21.372577 4.52029139 25.8420786 4.52029139 25.8420786 0 21.372577 0"></polygon>
                    <polygon id="Fill-10" points="21.3738158 46.7278464 25.8420786 46.7278464 25.8420786 42.2100325 21.3738158 42.2100325"></polygon>
                    <polygon id="Fill-11" points="5.95725611 27.5032911 13.7850778 27.5032911 13.7850778 19.7621838 5.95725611 19.7621838"></polygon>
                    <polygon id="Fill-12" points="23.9071115 32.0681784 31.6482189 32.0681784 31.6482189 24.3270711 23.9071115 24.3270711"></polygon>
                </g>
            </g>
        </g>
    </g>
</svg>