<?xml version="1.0" encoding="UTF-8"?>
<svg width="158px" height="48px" viewBox="0 0 158 48" version="1.1" xmlns="http://www.w3.org/2000/svg" xmlns:xlink="http://www.w3.org/1999/xlink">
    <!-- Generator: Sketch 45.2 (43514) - http://www.bohemiancoding.com/sketch -->
    <title>options</title>
    <desc>Created with Sketch.</desc>
    <defs></defs>
    <g id="Page-1" stroke="none" stroke-width="1" fill="none" fill-rule="evenodd">
        <g id="Mobile" transform="translate(-113.000000, -600.000000)">
            <g id="options" transform="translate(113.891491, 600.756372)">
                <path d="M3.34867849,6.76056688 L6.27149243,6.76056688 L6.27149243,3.6099124 L3.34867849,3.6099124 L3.34867849,6.76056688 Z M3.34867849,10.3722449 L6.27149243,10.3722449 L6.27149243,7.18627797 L3.34867849,7.18627797 L3.34867849,10.3722449 Z M0,10.3722449 L2.95557275,10.3722449 L2.95557275,7.18627797 L0,7.18627797 L0,10.3722449 Z M3.34867849,13.9466487 L6.27149243,13.9466487 L6.27149243,10.7940324 L3.34867849,10.7940324 L3.34867849,13.9466487 Z M0,13.9466487 L2.95557275,13.9466487 L2.95557275,10.7940324 L0,10.7940324 L0,13.9466487 Z M3.34867849,17.5230142 L6.27149243,17.5230142 L6.27149243,14.370398 L3.34867849,14.370398 L3.34867849,17.5230142 Z M0,17.5230142 L2.95557275,17.5230142 L2.95557275,14.370398 L0,14.370398 L0,17.5230142 Z M3.34867849,21.1307687 L6.27149243,21.1307687 L6.27149243,17.9467635 L3.34867849,17.9467635 L3.34867849,21.1307687 Z M0,21.1307687 L2.95557275,21.1307687 L2.95557275,17.9467635 L0,17.9467635 L0,21.1307687 Z M3.34867849,24.709096 L6.27149243,24.709096 L6.27149243,21.5564798 L3.34867849,21.5564798 L3.34867849,24.709096 Z M0,24.709096 L2.95557275,24.709096 L2.95557275,21.5564798 L0,21.5564798 L0,24.709096 Z" id="Fill-1" fill="#F3580F"></path>
                <path d="M3.34867849,28.2579964 L6.27149243,28.2579964 L6.27149243,25.0720295 L3.34867849,25.0720295 L3.34867849,28.2579964 Z M0,28.2579964 L2.95557275,28.2579964 L2.95557275,25.0720295 L0,25.0720295 L0,28.2579964 Z M3.34867849,31.8324002 L6.27149243,31.8324002 L6.27149243,28.6817457 L3.34867849,28.6817457 L3.34867849,31.8324002 Z M0,31.8324002 L2.95557275,31.8324002 L2.95557275,28.6817457 L0,28.6817457 L0,31.8324002 Z M3.34867849,35.4440782 L6.27149243,35.4440782 L6.27149243,32.2581113 L3.34867849,32.2581113 L3.34867849,35.4440782 Z M0,35.4440782 L2.95557275,35.4440782 L2.95557275,32.2581113 L0,32.2581113 L0,35.4440782 Z M3.34867849,39.018482 L6.27149243,39.018482 L6.27149243,35.8678275 L3.34867849,35.8678275 L3.34867849,39.018482 Z M0,39.018482 L2.95557275,39.018482 L2.95557275,35.8678275 L0,35.8678275 L0,39.018482 Z M3.34867849,42.5948475 L6.27149243,42.5948475 L6.27149243,39.444193 L3.34867849,39.444193 L3.34867849,42.5948475 Z" id="Fill-2" fill="#F3580F"></path>
                <path d="M10.1170129,3.24697897 L13.0398268,3.24697897 L13.0398268,0.0610120513 L10.1170129,0.0610120513 L10.1170129,3.24697897 Z M6.7683344,3.24697897 L9.72390715,3.24697897 L9.72390715,0.0610120513 L6.7683344,0.0610120513 L6.7683344,3.24697897 Z M10.1170129,6.82334455 L13.0398268,6.82334455 L13.0398268,3.67269007 L10.1170129,3.67269007 L10.1170129,6.82334455 Z M6.7683344,6.82334455 L9.72390715,6.82334455 L9.72390715,3.67269007 L6.7683344,3.67269007 L6.7683344,6.82334455 Z M10.1170129,10.4330608 L13.0398268,10.4330608 L13.0398268,7.24709384 L10.1170129,7.24709384 L10.1170129,10.4330608 Z M6.7683344,10.4330608 L9.72390715,10.4330608 L9.72390715,7.24709384 L6.7683344,7.24709384 L6.7683344,10.4330608 Z M10.1170129,14.0094263 L13.0398268,14.0094263 L13.0398268,10.8568101 L10.1170129,10.8568101 L10.1170129,14.0094263 Z M6.7683344,14.0094263 L9.72390715,14.0094263 L9.72390715,10.8568101 L6.7683344,10.8568101 L6.7683344,14.0094263 Z M10.1170129,17.5818683 L13.0398268,17.5818683 L13.0398268,14.4312138 L10.1170129,14.4312138 L10.1170129,17.5818683 Z M6.7683344,17.5818683 L9.72390715,17.5818683 L9.72390715,14.4312138 L6.7683344,14.4312138 L6.7683344,17.5818683 Z M10.1170129,21.1935463 L13.0398268,21.1935463 L13.0398268,18.0075794 L10.1170129,18.0075794 L10.1170129,21.1935463 Z M6.7683344,21.1935463 L9.72390715,21.1935463 L9.72390715,18.0075794 L6.7683344,18.0075794 L6.7683344,21.1935463 Z M10.1170129,24.7679501 L13.0398268,24.7679501 L13.0398268,21.6172956 L10.1170129,21.6172956 L10.1170129,24.7679501 Z M6.7683344,24.7679501 L9.72390715,24.7679501 L9.72390715,21.6172956 L6.7683344,21.6172956 L6.7683344,24.7679501 Z" id="Fill-3" fill="#F3580F"></path>
                <path d="M10.1170129,28.3188123 L13.0398268,28.3188123 L13.0398268,25.1328453 L10.1170129,25.1328453 L10.1170129,28.3188123 Z M6.7683344,28.3188123 L9.72390715,28.3188123 L9.72390715,25.1328453 L6.7683344,25.1328453 L6.7683344,28.3188123 Z M10.1170129,31.8951778 L13.0398268,31.8951778 L13.0398268,28.7445234 L10.1170129,28.7445234 L10.1170129,31.8951778 Z M6.7683344,31.8951778 L9.72390715,31.8951778 L9.72390715,28.7445234 L6.7683344,28.7445234 L6.7683344,31.8951778 Z M10.1170129,35.504894 L13.0398268,35.504894 L13.0398268,32.3189271 L10.1170129,32.3189271 L10.1170129,35.504894 Z M6.7683344,35.504894 L9.72390715,35.504894 L9.72390715,32.3189271 L6.7683344,32.3189271 L6.7683344,35.504894 Z M10.1170129,39.0812596 L13.0398268,39.0812596 L13.0398268,35.9306051 L10.1170129,35.9306051 L10.1170129,39.0812596 Z M6.7683344,39.0812596 L9.72390715,39.0812596 L9.72390715,35.9306051 L6.7683344,35.9306051 L6.7683344,39.0812596 Z M10.1170129,42.6556634 L13.0398268,42.6556634 L13.0398268,39.5030471 L10.1170129,39.5030471 L10.1170129,42.6556634 Z M6.7683344,42.6556634 L9.72390715,42.6556634 L9.72390715,39.5030471 L6.7683344,39.5030471 L6.7683344,42.6556634 Z M10.1170129,46.2653796 L13.0398268,46.2653796 L13.0398268,43.0813745 L10.1170129,43.0813745 L10.1170129,46.2653796 Z M6.7683344,46.2653796 L9.72390715,46.2653796 L9.72390715,43.0813745 L6.7683344,43.0813745 L6.7683344,46.2653796 Z" id="Fill-4" fill="#F3580F"></path>
                <path d="M16.7142735,3.1861631 L19.6370874,3.1861631 L19.6370874,0.000196180229 L16.7142735,0.000196180229 L16.7142735,3.1861631 Z M13.365595,3.1861631 L16.3211678,3.1861631 L16.3211678,0.000196180229 L13.365595,0.000196180229 L13.365595,3.1861631 Z M16.7142735,6.76056688 L19.6370874,6.76056688 L19.6370874,3.6099124 L16.7142735,3.6099124 L16.7142735,6.76056688 Z M13.365595,6.76056688 L16.3211678,6.76056688 L16.3211678,3.6099124 L13.365595,3.6099124 L13.365595,6.76056688 Z M16.7142735,10.3722449 L19.6370874,10.3722449 L19.6370874,7.18627797 L16.7142735,7.18627797 L16.7142735,10.3722449 Z M13.365595,10.3722449 L16.3211678,10.3722449 L16.3211678,7.18627797 L13.365595,7.18627797 L13.365595,10.3722449 Z M16.7142735,13.9466487 L19.6370874,13.9466487 L19.6370874,10.7940324 L16.7142735,10.7940324 L16.7142735,13.9466487 Z M13.365595,13.9466487 L16.3211678,13.9466487 L16.3211678,10.7940324 L13.365595,10.7940324 L13.365595,13.9466487 Z M16.7142735,17.5230142 L19.6370874,17.5230142 L19.6370874,14.370398 L16.7142735,14.370398 L16.7142735,17.5230142 Z M13.365595,17.5230142 L16.3211678,17.5230142 L16.3211678,14.370398 L13.365595,14.370398 L13.365595,17.5230142 Z M16.7142735,21.1307687 L19.6370874,21.1307687 L19.6370874,17.9467635 L16.7142735,17.9467635 L16.7142735,21.1307687 Z M13.365595,21.1307687 L16.3211678,21.1307687 L16.3211678,17.9467635 L13.365595,17.9467635 L13.365595,21.1307687 Z M16.7142735,24.709096 L19.6370874,24.709096 L19.6370874,21.5564798 L16.7142735,21.5564798 L16.7142735,24.709096 Z M13.365595,24.709096 L16.3211678,24.709096 L16.3211678,21.5564798 L13.365595,21.5564798 L13.365595,24.709096 Z" id="Fill-5" fill="#F3580F"></path>
                <path d="M16.7142735,28.2579964 L19.6370874,28.2579964 L19.6370874,25.0720295 L16.7142735,25.0720295 L16.7142735,28.2579964 Z M13.365595,28.2579964 L16.3211678,28.2579964 L16.3211678,25.0720295 L13.365595,25.0720295 L13.365595,28.2579964 Z M16.7142735,31.8324002 L19.6370874,31.8324002 L19.6370874,28.6817457 L16.7142735,28.6817457 L16.7142735,31.8324002 Z M13.365595,31.8324002 L16.3211678,31.8324002 L16.3211678,28.6817457 L13.365595,28.6817457 L13.365595,31.8324002 Z M16.7142735,35.4440782 L19.6370874,35.4440782 L19.6370874,32.2581113 L16.7142735,32.2581113 L16.7142735,35.4440782 Z M13.365595,35.4440782 L16.3211678,35.4440782 L16.3211678,32.2581113 L13.365595,32.2581113 L13.365595,35.4440782 Z M16.7142735,39.018482 L19.6370874,39.018482 L19.6370874,35.8678275 L16.7142735,35.8678275 L16.7142735,39.018482 Z M13.365595,39.018482 L16.3211678,39.018482 L16.3211678,35.8678275 L13.365595,35.8678275 L13.365595,39.018482 Z M16.7142735,42.5948475 L19.6370874,42.5948475 L19.6370874,39.444193 L16.7142735,39.444193 L16.7142735,42.5948475 Z M13.365595,42.5948475 L16.3211678,42.5948475 L16.3211678,39.444193 L13.365595,39.444193 L13.365595,42.5948475 Z M16.7142735,46.2045637 L19.6370874,46.2045637 L19.6370874,43.0185968 L16.7142735,43.0185968 L16.7142735,46.2045637 Z M13.365595,46.2045637 L16.3211678,46.2045637 L16.3211678,43.0185968 L13.365595,43.0185968 L13.365595,46.2045637 Z" id="Fill-6" fill="#F3580F"></path>
                <path d="M23.4261899,3.1861631 L26.3490039,3.1861631 L26.3490039,0.000196180229 L23.4261899,0.000196180229 L23.4261899,3.1861631 Z M20.0756915,3.1861631 L23.0312643,3.1861631 L23.0312643,0.000196180229 L20.0756915,0.000196180229 L20.0756915,3.1861631 Z M23.4261899,6.76056688 L26.3490039,6.76056688 L26.3490039,3.6099124 L23.4261899,3.6099124 L23.4261899,6.76056688 Z M20.0756915,6.76056688 L23.0312643,6.76056688 L23.0312643,3.6099124 L20.0756915,3.6099124 L20.0756915,6.76056688 Z M23.4261899,10.3722449 L26.3490039,10.3722449 L26.3490039,7.18627797 L23.4261899,7.18627797 L23.4261899,10.3722449 Z M20.0756915,10.3722449 L23.0312643,10.3722449 L23.0312643,7.18627797 L20.0756915,7.18627797 L20.0756915,10.3722449 Z M23.4261899,13.9466487 L26.3490039,13.9466487 L26.3490039,10.7940324 L23.4261899,10.7940324 L23.4261899,13.9466487 Z M20.0756915,13.9466487 L23.0312643,13.9466487 L23.0312643,10.7940324 L20.0756915,10.7940324 L20.0756915,13.9466487 Z M23.4261899,17.5230142 L26.3490039,17.5230142 L26.3490039,14.370398 L23.4261899,14.370398 L23.4261899,17.5230142 Z M20.0756915,17.5230142 L23.0312643,17.5230142 L23.0312643,14.370398 L20.0756915,14.370398 L20.0756915,17.5230142 Z M23.4261899,21.1307687 L26.3490039,21.1307687 L26.3490039,17.9467635 L23.4261899,17.9467635 L23.4261899,21.1307687 Z M20.0756915,21.1307687 L23.0312643,21.1307687 L23.0312643,17.9467635 L20.0756915,17.9467635 L20.0756915,21.1307687 Z M23.4261899,24.709096 L26.3490039,24.709096 L26.3490039,21.5564798 L23.4261899,21.5564798 L23.4261899,24.709096 Z M20.0756915,24.709096 L23.0312643,24.709096 L23.0312643,21.5564798 L20.0756915,21.5564798 L20.0756915,24.709096 Z" id="Fill-7" fill="#F3580F"></path>
                <path d="M23.4261899,28.2579964 L26.3490039,28.2579964 L26.3490039,25.0720295 L23.4261899,25.0720295 L23.4261899,28.2579964 Z M20.0756915,28.2579964 L23.0312643,28.2579964 L23.0312643,25.0720295 L20.0756915,25.0720295 L20.0756915,28.2579964 Z M23.4261899,31.8324002 L26.3490039,31.8324002 L26.3490039,28.6817457 L23.4261899,28.6817457 L23.4261899,31.8324002 Z M20.0756915,31.8324002 L23.0312643,31.8324002 L23.0312643,28.6817457 L20.0756915,28.6817457 L20.0756915,31.8324002 Z M23.4261899,35.4440782 L26.3490039,35.4440782 L26.3490039,32.2581113 L23.4261899,32.2581113 L23.4261899,35.4440782 Z M20.0756915,35.4440782 L23.0312643,35.4440782 L23.0312643,32.2581113 L20.0756915,32.2581113 L20.0756915,35.4440782 Z M23.4261899,39.018482 L26.3490039,39.018482 L26.3490039,35.8678275 L23.4261899,35.8678275 L23.4261899,39.018482 Z M20.0756915,39.018482 L23.0312643,39.018482 L23.0312643,35.8678275 L20.0756915,35.8678275 L20.0756915,39.018482 Z M23.4261899,42.5948475 L26.3490039,42.5948475 L26.3490039,39.444193 L23.4261899,39.444193 L23.4261899,42.5948475 Z M20.0756915,42.5948475 L23.0312643,42.5948475 L23.0312643,39.444193 L20.0756915,39.444193 L20.0756915,42.5948475 Z M23.4261899,46.2045637 L26.3490039,46.2045637 L26.3490039,43.0185968 L23.4261899,43.0185968 L23.4261899,46.2045637 Z M20.0756915,46.2045637 L23.0312643,46.2045637 L23.0312643,43.0185968 L20.0756915,43.0185968 L20.0756915,46.2045637 Z" id="Fill-8" fill="#F3580F"></path>
                <path d="M30.0816884,3.1861631 L33.0026824,3.1861631 L33.0026824,0.000196180229 L30.0816884,0.000196180229 L30.0816884,3.1861631 Z M26.7293701,3.1861631 L29.6849428,3.1861631 L29.6849428,0.000196180229 L26.7293701,0.000196180229 L26.7293701,3.1861631 Z M30.0816884,6.76056688 L33.0026824,6.76056688 L33.0026824,3.6099124 L30.0816884,3.6099124 L30.0816884,6.76056688 Z M26.7293701,6.76056688 L29.6849428,6.76056688 L29.6849428,3.6099124 L26.7293701,3.6099124 L26.7293701,6.76056688 Z M30.0816884,10.3722449 L33.0026824,10.3722449 L33.0026824,7.18627797 L30.0816884,7.18627797 L30.0816884,10.3722449 Z M26.7293701,10.3722449 L29.6849428,10.3722449 L29.6849428,7.18627797 L26.7293701,7.18627797 L26.7293701,10.3722449 Z M30.0816884,13.9466487 L33.0026824,13.9466487 L33.0026824,10.7940324 L30.0816884,10.7940324 L30.0816884,13.9466487 Z M26.7293701,13.9466487 L29.6849428,13.9466487 L29.6849428,10.7940324 L26.7293701,10.7940324 L26.7293701,13.9466487 Z M30.0816884,17.5230142 L33.0026824,17.5230142 L33.0026824,14.370398 L30.0816884,14.370398 L30.0816884,17.5230142 Z M26.7293701,17.5230142 L29.6849428,17.5230142 L29.6849428,14.370398 L26.7293701,14.370398 L26.7293701,17.5230142 Z M30.0816884,21.1307687 L33.0026824,21.1307687 L33.0026824,17.9467635 L30.0816884,17.9467635 L30.0816884,21.1307687 Z M26.7293701,21.1307687 L29.6849428,21.1307687 L29.6849428,17.9467635 L26.7293701,17.9467635 L26.7293701,21.1307687 Z M30.0816884,24.709096 L33.0026824,24.709096 L33.0026824,21.5564798 L30.0816884,21.5564798 L30.0816884,24.709096 Z M26.7293701,24.709096 L29.6849428,24.709096 L29.6849428,21.5564798 L26.7293701,21.5564798 L26.7293701,24.709096 Z" id="Fill-9" fill="#F3580F"></path>
                <path d="M30.0816884,28.2579964 L33.0026824,28.2579964 L33.0026824,25.0720295 L30.0816884,25.0720295 L30.0816884,28.2579964 Z M26.7293701,28.2579964 L29.6849428,28.2579964 L29.6849428,25.0720295 L26.7293701,25.0720295 L26.7293701,28.2579964 Z M30.0816884,31.8324002 L33.0026824,31.8324002 L33.0026824,28.6817457 L30.0816884,28.6817457 L30.0816884,31.8324002 Z M26.7293701,31.8324002 L29.6849428,31.8324002 L29.6849428,28.6817457 L26.7293701,28.6817457 L26.7293701,31.8324002 Z M30.0816884,35.4440782 L33.0026824,35.4440782 L33.0026824,32.2581113 L30.0816884,32.2581113 L30.0816884,35.4440782 Z M26.7293701,35.4440782 L29.6849428,35.4440782 L29.6849428,32.2581113 L26.7293701,32.2581113 L26.7293701,35.4440782 Z M30.0816884,39.018482 L33.0026824,39.018482 L33.0026824,35.8678275 L30.0816884,35.8678275 L30.0816884,39.018482 Z M26.7293701,39.018482 L29.6849428,39.018482 L29.6849428,35.8678275 L26.7293701,35.8678275 L26.7293701,39.018482 Z M30.0816884,42.5948475 L33.0026824,42.5948475 L33.0026824,39.444193 L30.0816884,39.444193 L30.0816884,42.5948475 Z M26.7293701,42.5948475 L29.6849428,42.5948475 L29.6849428,39.444193 L26.7293701,39.444193 L26.7293701,42.5948475 Z M30.0816884,46.2045637 L33.0026824,46.2045637 L33.0026824,43.0185968 L30.0816884,43.0185968 L30.0816884,46.2045637 Z M26.7293701,46.2045637 L29.6849428,46.2045637 L29.6849428,43.0185968 L26.7293701,43.0185968 L26.7293701,46.2045637 Z" id="Fill-10" fill="#F3580F"></path>
                <path d="M36.7917849,3.1861631 L39.7145989,3.1861631 L39.7145989,0.000196180229 L36.7917849,0.000196180229 L36.7917849,3.1861631 Z M33.4394666,3.1861631 L36.3950393,3.1861631 L36.3950393,0.000196180229 L33.4394666,0.000196180229 L33.4394666,3.1861631 Z M36.7917849,6.76056688 L39.7145989,6.76056688 L39.7145989,3.6099124 L36.7917849,3.6099124 L36.7917849,6.76056688 Z M33.4394666,6.76056688 L36.3950393,6.76056688 L36.3950393,3.6099124 L33.4394666,3.6099124 L33.4394666,6.76056688 Z M36.7917849,10.3722449 L39.7145989,10.3722449 L39.7145989,7.18627797 L36.7917849,7.18627797 L36.7917849,10.3722449 Z M33.4394666,10.3722449 L36.3950393,10.3722449 L36.3950393,7.18627797 L33.4394666,7.18627797 L33.4394666,10.3722449 Z M36.7917849,13.9466487 L39.7145989,13.9466487 L39.7145989,10.7940324 L36.7917849,10.7940324 L36.7917849,13.9466487 Z M33.4394666,13.9466487 L36.3950393,13.9466487 L36.3950393,10.7940324 L33.4394666,10.7940324 L33.4394666,13.9466487 Z M36.7917849,17.5230142 L39.7145989,17.5230142 L39.7145989,14.370398 L36.7917849,14.370398 L36.7917849,17.5230142 Z M33.4394666,17.5230142 L36.3950393,17.5230142 L36.3950393,14.370398 L33.4394666,14.370398 L33.4394666,17.5230142 Z M36.7917849,21.1307687 L39.7145989,21.1307687 L39.7145989,17.9467635 L36.7917849,17.9467635 L36.7917849,21.1307687 Z M33.4394666,21.1307687 L36.3950393,21.1307687 L36.3950393,17.9467635 L33.4394666,17.9467635 L33.4394666,21.1307687 Z M36.7917849,24.709096 L39.7145989,24.709096 L39.7145989,21.5564798 L36.7917849,21.5564798 L36.7917849,24.709096 Z M33.4394666,24.709096 L36.3950393,24.709096 L36.3950393,21.5564798 L33.4394666,21.5564798 L33.4394666,24.709096 Z" id="Fill-11" fill="#F3580F"></path>
                <path d="M36.7917849,28.2579964 L39.7145989,28.2579964 L39.7145989,25.0720295 L36.7917849,25.0720295 L36.7917849,28.2579964 Z M33.4394666,28.2579964 L36.3950393,28.2579964 L36.3950393,25.0720295 L33.4394666,25.0720295 L33.4394666,28.2579964 Z M36.7917849,31.8324002 L39.7145989,31.8324002 L39.7145989,28.6817457 L36.7917849,28.6817457 L36.7917849,31.8324002 Z M33.4394666,31.8324002 L36.3950393,31.8324002 L36.3950393,28.6817457 L33.4394666,28.6817457 L33.4394666,31.8324002 Z M36.7917849,35.4440782 L39.7145989,35.4440782 L39.7145989,32.2581113 L36.7917849,32.2581113 L36.7917849,35.4440782 Z M33.4394666,35.4440782 L36.3950393,35.4440782 L36.3950393,32.2581113 L33.4394666,32.2581113 L33.4394666,35.4440782 Z M36.7917849,39.018482 L39.7145989,39.018482 L39.7145989,35.8678275 L36.7917849,35.8678275 L36.7917849,39.018482 Z M33.4394666,39.018482 L36.3950393,39.018482 L36.3950393,35.8678275 L33.4394666,35.8678275 L33.4394666,39.018482 Z M36.7917849,42.5948475 L39.7145989,42.5948475 L39.7145989,39.444193 L36.7917849,39.444193 L36.7917849,42.5948475 Z M33.4394666,42.5948475 L36.3950393,42.5948475 L36.3950393,39.444193 L33.4394666,39.444193 L33.4394666,42.5948475 Z M36.7917849,46.2045637 L39.7145989,46.2045637 L39.7145989,43.0185968 L36.7917849,43.0185968 L36.7917849,46.2045637 Z M33.4394666,46.2045637 L36.3950393,46.2045637 L36.3950393,43.0185968 L33.4394666,43.0185968 L33.4394666,46.2045637 Z" id="Fill-12" fill="#F3580F"></path>
                <path d="M43.5018814,3.1861631 L46.4246954,3.1861631 L46.4246954,0.000196180229 L43.5018814,0.000196180229 L43.5018814,3.1861631 Z M40.153203,3.1861631 L43.1087757,3.1861631 L43.1087757,0.000196180229 L40.153203,0.000196180229 L40.153203,3.1861631 Z M43.5018814,6.76056688 L46.4246954,6.76056688 L46.4246954,3.6099124 L43.5018814,3.6099124 L43.5018814,6.76056688 Z M40.153203,6.76056688 L43.1087757,6.76056688 L43.1087757,3.6099124 L40.153203,3.6099124 L40.153203,6.76056688 Z M43.5018814,10.3722449 L46.4246954,10.3722449 L46.4246954,7.18627797 L43.5018814,7.18627797 L43.5018814,10.3722449 Z M40.153203,10.3722449 L43.1087757,10.3722449 L43.1087757,7.18627797 L40.153203,7.18627797 L40.153203,10.3722449 Z M43.5018814,13.9466487 L46.4246954,13.9466487 L46.4246954,10.7940324 L43.5018814,10.7940324 L43.5018814,13.9466487 Z M40.153203,13.9466487 L43.1087757,13.9466487 L43.1087757,10.7940324 L40.153203,10.7940324 L40.153203,13.9466487 Z M43.5018814,17.5230142 L46.4246954,17.5230142 L46.4246954,14.370398 L43.5018814,14.370398 L43.5018814,17.5230142 Z M40.153203,17.5230142 L43.1087757,17.5230142 L43.1087757,14.370398 L40.153203,14.370398 L40.153203,17.5230142 Z M43.5018814,21.1307687 L46.4246954,21.1307687 L46.4246954,17.9467635 L43.5018814,17.9467635 L43.5018814,21.1307687 Z M40.153203,21.1307687 L43.1087757,21.1307687 L43.1087757,17.9467635 L40.153203,17.9467635 L40.153203,21.1307687 Z M43.5018814,24.709096 L46.4246954,24.709096 L46.4246954,21.5564798 L43.5018814,21.5564798 L43.5018814,24.709096 Z M40.153203,24.709096 L43.1087757,24.709096 L43.1087757,21.5564798 L40.153203,21.5564798 L40.153203,24.709096 Z" id="Fill-13" fill="#F3580F"></path>
                <path d="M43.5018814,28.2579964 L46.4246954,28.2579964 L46.4246954,25.0720295 L43.5018814,25.0720295 L43.5018814,28.2579964 Z M40.153203,28.2579964 L43.1087757,28.2579964 L43.1087757,25.0720295 L40.153203,25.0720295 L40.153203,28.2579964 Z M43.5018814,31.8324002 L46.4246954,31.8324002 L46.4246954,28.6817457 L43.5018814,28.6817457 L43.5018814,31.8324002 Z M40.153203,31.8324002 L43.1087757,31.8324002 L43.1087757,28.6817457 L40.153203,28.6817457 L40.153203,31.8324002 Z M43.5018814,35.4440782 L46.4246954,35.4440782 L46.4246954,32.2581113 L43.5018814,32.2581113 L43.5018814,35.4440782 Z M40.153203,35.4440782 L43.1087757,35.4440782 L43.1087757,32.2581113 L40.153203,32.2581113 L40.153203,35.4440782 Z M43.5018814,39.018482 L46.4246954,39.018482 L46.4246954,35.8678275 L43.5018814,35.8678275 L43.5018814,39.018482 Z M40.153203,39.018482 L43.1087757,39.018482 L43.1087757,35.8678275 L40.153203,35.8678275 L40.153203,39.018482 Z M43.5018814,42.5948475 L46.4246954,42.5948475 L46.4246954,39.444193 L43.5018814,39.444193 L43.5018814,42.5948475 Z M40.153203,42.5948475 L43.1087757,42.5948475 L43.1087757,39.444193 L40.153203,39.444193 L40.153203,42.5948475 Z M43.5018814,46.2045637 L46.4246954,46.2045637 L46.4246954,43.0185968 L43.5018814,43.0185968 L43.5018814,46.2045637 Z M40.153203,46.2045637 L43.1087757,46.2045637 L43.1087757,43.0185968 L40.153203,43.0185968 L40.153203,46.2045637 Z" id="Fill-14" fill="#F3580F"></path>
                <path d="M50.1573799,3.1861631 L53.0783739,3.1861631 L53.0783739,0.000196180229 L50.1573799,0.000196180229 L50.1573799,3.1861631 Z M46.8050616,3.1861631 L49.7606343,3.1861631 L49.7606343,0.000196180229 L46.8050616,0.000196180229 L46.8050616,3.1861631 Z M50.1573799,6.76056688 L53.0783739,6.76056688 L53.0783739,3.6099124 L50.1573799,3.6099124 L50.1573799,6.76056688 Z M46.8050616,6.76056688 L49.7606343,6.76056688 L49.7606343,3.6099124 L46.8050616,3.6099124 L46.8050616,6.76056688 Z M50.1573799,10.3722449 L53.0783739,10.3722449 L53.0783739,7.18627797 L50.1573799,7.18627797 L50.1573799,10.3722449 Z M46.8050616,10.3722449 L49.7606343,10.3722449 L49.7606343,7.18627797 L46.8050616,7.18627797 L46.8050616,10.3722449 Z M50.1573799,13.9466487 L53.0783739,13.9466487 L53.0783739,10.7940324 L50.1573799,10.7940324 L50.1573799,13.9466487 Z M46.8050616,13.9466487 L49.7606343,13.9466487 L49.7606343,10.7940324 L46.8050616,10.7940324 L46.8050616,13.9466487 Z M50.1573799,17.5230142 L53.0783739,17.5230142 L53.0783739,14.370398 L50.1573799,14.370398 L50.1573799,17.5230142 Z M46.8050616,17.5230142 L49.7606343,17.5230142 L49.7606343,14.370398 L46.8050616,14.370398 L46.8050616,17.5230142 Z M50.1573799,21.1307687 L53.0783739,21.1307687 L53.0783739,17.9467635 L50.1573799,17.9467635 L50.1573799,21.1307687 Z M46.8050616,21.1307687 L49.7606343,21.1307687 L49.7606343,17.9467635 L46.8050616,17.9467635 L46.8050616,21.1307687 Z M50.1573799,24.709096 L53.0783739,24.709096 L53.0783739,21.5564798 L50.1573799,21.5564798 L50.1573799,24.709096 Z M46.8050616,24.709096 L49.7606343,24.709096 L49.7606343,21.5564798 L46.8050616,21.5564798 L46.8050616,24.709096 Z" id="Fill-15" fill="#F3580F"></path>
                <path d="M50.1573799,28.2579964 L53.0783739,28.2579964 L53.0783739,25.0720295 L50.1573799,25.0720295 L50.1573799,28.2579964 Z M46.8050616,28.2579964 L49.7606343,28.2579964 L49.7606343,25.0720295 L46.8050616,25.0720295 L46.8050616,28.2579964 Z M50.1573799,31.8324002 L53.0783739,31.8324002 L53.0783739,28.6817457 L50.1573799,28.6817457 L50.1573799,31.8324002 Z M46.8050616,31.8324002 L49.7606343,31.8324002 L49.7606343,28.6817457 L46.8050616,28.6817457 L46.8050616,31.8324002 Z M50.1573799,35.4440782 L53.0783739,35.4440782 L53.0783739,32.2581113 L50.1573799,32.2581113 L50.1573799,35.4440782 Z M46.8050616,35.4440782 L49.7606343,35.4440782 L49.7606343,32.2581113 L46.8050616,32.2581113 L46.8050616,35.4440782 Z M50.1573799,39.018482 L53.0783739,39.018482 L53.0783739,35.8678275 L50.1573799,35.8678275 L50.1573799,39.018482 Z M46.8050616,39.018482 L49.7606343,39.018482 L49.7606343,35.8678275 L46.8050616,35.8678275 L46.8050616,39.018482 Z M50.1573799,42.5948475 L53.0783739,42.5948475 L53.0783739,39.444193 L50.1573799,39.444193 L50.1573799,42.5948475 Z M46.8050616,42.5948475 L49.7606343,42.5948475 L49.7606343,39.444193 L46.8050616,39.444193 L46.8050616,42.5948475 Z M50.1573799,46.2045637 L53.0783739,46.2045637 L53.0783739,43.0185968 L50.1573799,43.0185968 L50.1573799,46.2045637 Z M46.8050616,46.2045637 L49.7606343,46.2045637 L49.7606343,43.0185968 L46.8050616,43.0185968 L46.8050616,46.2045637 Z" id="Fill-16" fill="#F3580F"></path>
                <path d="M56.7528206,3.1861631 L59.6756345,3.1861631 L59.6756345,0.000196180229 L56.7528206,0.000196180229 L56.7528206,3.1861631 Z M53.4041421,3.1861631 L56.3597149,3.1861631 L56.3597149,0.000196180229 L53.4041421,0.000196180229 L53.4041421,3.1861631 Z M56.7528206,6.76056688 L59.6756345,6.76056688 L59.6756345,3.6099124 L56.7528206,3.6099124 L56.7528206,6.76056688 Z M53.4041421,6.76056688 L56.3597149,6.76056688 L56.3597149,3.6099124 L53.4041421,3.6099124 L53.4041421,6.76056688 Z M56.7528206,10.3722449 L59.6756345,10.3722449 L59.6756345,7.18627797 L56.7528206,7.18627797 L56.7528206,10.3722449 Z M53.4041421,10.3722449 L56.3597149,10.3722449 L56.3597149,7.18627797 L53.4041421,7.18627797 L53.4041421,10.3722449 Z M56.7528206,13.9466487 L59.6756345,13.9466487 L59.6756345,10.7940324 L56.7528206,10.7940324 L56.7528206,13.9466487 Z M53.4041421,13.9466487 L56.3597149,13.9466487 L56.3597149,10.7940324 L53.4041421,10.7940324 L53.4041421,13.9466487 Z M56.7528206,17.5230142 L59.6756345,17.5230142 L59.6756345,14.370398 L56.7528206,14.370398 L56.7528206,17.5230142 Z M53.4041421,17.5230142 L56.3597149,17.5230142 L56.3597149,14.370398 L53.4041421,14.370398 L53.4041421,17.5230142 Z M56.7528206,21.1307687 L59.6756345,21.1307687 L59.6756345,17.9467635 L56.7528206,17.9467635 L56.7528206,21.1307687 Z M53.4041421,21.1307687 L56.3597149,21.1307687 L56.3597149,17.9467635 L53.4041421,17.9467635 L53.4041421,21.1307687 Z M56.7528206,24.709096 L59.6756345,24.709096 L59.6756345,21.5564798 L56.7528206,21.5564798 L56.7528206,24.709096 Z M53.4041421,24.709096 L56.3597149,24.709096 L56.3597149,21.5564798 L53.4041421,21.5564798 L53.4041421,24.709096 Z" id="Fill-17" fill="#F3580F"></path>
                <path d="M56.7528206,28.2579964 L59.6756345,28.2579964 L59.6756345,25.0720295 L56.7528206,25.0720295 L56.7528206,28.2579964 Z M53.4041421,28.2579964 L56.3597149,28.2579964 L56.3597149,25.0720295 L53.4041421,25.0720295 L53.4041421,28.2579964 Z M56.7528206,31.8324002 L59.6756345,31.8324002 L59.6756345,28.6817457 L56.7528206,28.6817457 L56.7528206,31.8324002 Z M53.4041421,31.8324002 L56.3597149,31.8324002 L56.3597149,28.6817457 L53.4041421,28.6817457 L53.4041421,31.8324002 Z M56.7528206,35.4440782 L59.6756345,35.4440782 L59.6756345,32.2581113 L56.7528206,32.2581113 L56.7528206,35.4440782 Z M53.4041421,35.4440782 L56.3597149,35.4440782 L56.3597149,32.2581113 L53.4041421,32.2581113 L53.4041421,35.4440782 Z M56.7528206,39.018482 L59.6756345,39.018482 L59.6756345,35.8678275 L56.7528206,35.8678275 L56.7528206,39.018482 Z M53.4041421,39.018482 L56.3597149,39.018482 L56.3597149,35.8678275 L53.4041421,35.8678275 L53.4041421,39.018482 Z M56.7528206,42.5948475 L59.6756345,42.5948475 L59.6756345,39.444193 L56.7528206,39.444193 L56.7528206,42.5948475 Z M53.4041421,42.5948475 L56.3597149,42.5948475 L56.3597149,39.444193 L53.4041421,39.444193 L53.4041421,42.5948475 Z M56.7528206,46.2045637 L59.6756345,46.2045637 L59.6756345,43.0185968 L56.7528206,43.0185968 L56.7528206,46.2045637 Z M53.4041421,46.2045637 L56.3597149,46.2045637 L56.3597149,43.0185968 L53.4041421,43.0185968 L53.4041421,46.2045637 Z" id="Fill-18" fill="#F3580F"></path>
                <path d="M63.4083191,3.1861631 L66.331133,3.1861631 L66.331133,0.000196180229 L63.4083191,0.000196180229 L63.4083191,3.1861631 Z M60.0560007,3.1861631 L63.0115735,3.1861631 L63.0115735,0.000196180229 L60.0560007,0.000196180229 L60.0560007,3.1861631 Z M63.4083191,6.76056688 L66.331133,6.76056688 L66.331133,3.6099124 L63.4083191,3.6099124 L63.4083191,6.76056688 Z M60.0560007,6.76056688 L63.0115735,6.76056688 L63.0115735,3.6099124 L60.0560007,3.6099124 L60.0560007,6.76056688 Z M63.4083191,10.3722449 L66.331133,10.3722449 L66.331133,7.18627797 L63.4083191,7.18627797 L63.4083191,10.3722449 Z M60.0560007,10.3722449 L63.0115735,10.3722449 L63.0115735,7.18627797 L60.0560007,7.18627797 L60.0560007,10.3722449 Z M63.4083191,13.9466487 L66.331133,13.9466487 L66.331133,10.7940324 L63.4083191,10.7940324 L63.4083191,13.9466487 Z M60.0560007,13.9466487 L63.0115735,13.9466487 L63.0115735,10.7940324 L60.0560007,10.7940324 L60.0560007,13.9466487 Z M63.4083191,17.5230142 L66.331133,17.5230142 L66.331133,14.370398 L63.4083191,14.370398 L63.4083191,17.5230142 Z M60.0560007,17.5230142 L63.0115735,17.5230142 L63.0115735,14.370398 L60.0560007,14.370398 L60.0560007,17.5230142 Z M63.4083191,21.1307687 L66.331133,21.1307687 L66.331133,17.9467635 L63.4083191,17.9467635 L63.4083191,21.1307687 Z M60.0560007,21.1307687 L63.0115735,21.1307687 L63.0115735,17.9467635 L60.0560007,17.9467635 L60.0560007,21.1307687 Z M63.4083191,24.709096 L66.331133,24.709096 L66.331133,21.5564798 L63.4083191,21.5564798 L63.4083191,24.709096 Z M60.0560007,24.709096 L63.0115735,24.709096 L63.0115735,21.5564798 L60.0560007,21.5564798 L60.0560007,24.709096 Z" id="Fill-19" fill="#F3580F"></path>
                <path d="M63.4083191,28.2579964 L66.331133,28.2579964 L66.331133,25.0720295 L63.4083191,25.0720295 L63.4083191,28.2579964 Z M60.0560007,28.2579964 L63.0115735,28.2579964 L63.0115735,25.0720295 L60.0560007,25.0720295 L60.0560007,28.2579964 Z M63.4083191,31.8324002 L66.331133,31.8324002 L66.331133,28.6817457 L63.4083191,28.6817457 L63.4083191,31.8324002 Z M60.0560007,31.8324002 L63.0115735,31.8324002 L63.0115735,28.6817457 L60.0560007,28.6817457 L60.0560007,31.8324002 Z M63.4083191,35.4440782 L66.331133,35.4440782 L66.331133,32.2581113 L63.4083191,32.2581113 L63.4083191,35.4440782 Z M60.0560007,35.4440782 L63.0115735,35.4440782 L63.0115735,32.2581113 L60.0560007,32.2581113 L60.0560007,35.4440782 Z M63.4083191,39.018482 L66.331133,39.018482 L66.331133,35.8678275 L63.4083191,35.8678275 L63.4083191,39.018482 Z M60.0560007,39.018482 L63.0115735,39.018482 L63.0115735,35.8678275 L60.0560007,35.8678275 L60.0560007,39.018482 Z M63.4083191,42.5948475 L66.331133,42.5948475 L66.331133,39.444193 L63.4083191,39.444193 L63.4083191,42.5948475 Z M60.0560007,42.5948475 L63.0115735,42.5948475 L63.0115735,39.444193 L60.0560007,39.444193 L60.0560007,42.5948475 Z M63.4083191,46.2045637 L66.331133,46.2045637 L66.331133,43.0185968 L63.4083191,43.0185968 L63.4083191,46.2045637 Z M60.0560007,46.2045637 L63.0115735,46.2045637 L63.0115735,43.0185968 L60.0560007,43.0185968 L60.0560007,46.2045637 Z" id="Fill-20" fill="#F3580F"></path>
                <path d="M70.1184156,3.1861631 L73.0412295,3.1861631 L73.0412295,0.000196180229 L70.1184156,0.000196180229 L70.1184156,3.1861631 Z M66.7697371,3.1861631 L69.7253099,3.1861631 L69.7253099,0.000196180229 L66.7697371,0.000196180229 L66.7697371,3.1861631 Z M70.1184156,6.76056688 L73.0412295,6.76056688 L73.0412295,3.6099124 L70.1184156,3.6099124 L70.1184156,6.76056688 Z M66.7697371,6.76056688 L69.7253099,6.76056688 L69.7253099,3.6099124 L66.7697371,3.6099124 L66.7697371,6.76056688 Z M70.1184156,10.3722449 L73.0412295,10.3722449 L73.0412295,7.18627797 L70.1184156,7.18627797 L70.1184156,10.3722449 Z M66.7697371,10.3722449 L69.7253099,10.3722449 L69.7253099,7.18627797 L66.7697371,7.18627797 L66.7697371,10.3722449 Z M70.1184156,13.9466487 L73.0412295,13.9466487 L73.0412295,10.7940324 L70.1184156,10.7940324 L70.1184156,13.9466487 Z M66.7697371,13.9466487 L69.7253099,13.9466487 L69.7253099,10.7940324 L66.7697371,10.7940324 L66.7697371,13.9466487 Z M70.1184156,17.5230142 L73.0412295,17.5230142 L73.0412295,14.370398 L70.1184156,14.370398 L70.1184156,17.5230142 Z M66.7697371,17.5230142 L69.7253099,17.5230142 L69.7253099,14.370398 L66.7697371,14.370398 L66.7697371,17.5230142 Z M70.1184156,21.1307687 L73.0412295,21.1307687 L73.0412295,17.9467635 L70.1184156,17.9467635 L70.1184156,21.1307687 Z M66.7697371,21.1307687 L69.7253099,21.1307687 L69.7253099,17.9467635 L66.7697371,17.9467635 L66.7697371,21.1307687 Z M70.1184156,24.709096 L73.0412295,24.709096 L73.0412295,21.5564798 L70.1184156,21.5564798 L70.1184156,24.709096 Z M66.7697371,24.709096 L69.7253099,24.709096 L69.7253099,21.5564798 L66.7697371,21.5564798 L66.7697371,24.709096 Z" id="Fill-21" fill="#F3580F"></path>
                <path d="M70.1184156,28.2579964 L73.0412295,28.2579964 L73.0412295,25.0720295 L70.1184156,25.0720295 L70.1184156,28.2579964 Z M66.7697371,28.2579964 L69.7253099,28.2579964 L69.7253099,25.0720295 L66.7697371,25.0720295 L66.7697371,28.2579964 Z M70.1184156,31.8324002 L73.0412295,31.8324002 L73.0412295,28.6817457 L70.1184156,28.6817457 L70.1184156,31.8324002 Z M66.7697371,31.8324002 L69.7253099,31.8324002 L69.7253099,28.6817457 L66.7697371,28.6817457 L66.7697371,31.8324002 Z M70.1184156,35.4440782 L73.0412295,35.4440782 L73.0412295,32.2581113 L70.1184156,32.2581113 L70.1184156,35.4440782 Z M66.7697371,35.4440782 L69.7253099,35.4440782 L69.7253099,32.2581113 L66.7697371,32.2581113 L66.7697371,35.4440782 Z M70.1184156,39.018482 L73.0412295,39.018482 L73.0412295,35.8678275 L70.1184156,35.8678275 L70.1184156,39.018482 Z M66.7697371,39.018482 L69.7253099,39.018482 L69.7253099,35.8678275 L66.7697371,35.8678275 L66.7697371,39.018482 Z M70.1184156,42.5948475 L73.0412295,42.5948475 L73.0412295,39.444193 L70.1184156,39.444193 L70.1184156,42.5948475 Z M66.7697371,42.5948475 L69.7253099,42.5948475 L69.7253099,39.444193 L66.7697371,39.444193 L66.7697371,42.5948475 Z M70.1184156,46.2045637 L73.0412295,46.2045637 L73.0412295,43.0185968 L70.1184156,43.0185968 L70.1184156,46.2045637 Z M66.7697371,46.2045637 L69.7253099,46.2045637 L69.7253099,43.0185968 L66.7697371,43.0185968 L66.7697371,46.2045637 Z" id="Fill-22" fill="#F3580F"></path>
                <path d="M76.8285121,3.1861631 L79.7513261,3.1861631 L79.7513261,0.000196180229 L76.8285121,0.000196180229 L76.8285121,3.1861631 Z M73.4798336,3.1861631 L76.4354064,3.1861631 L76.4354064,0.000196180229 L73.4798336,0.000196180229 L73.4798336,3.1861631 Z M76.8285121,6.76056688 L79.7513261,6.76056688 L79.7513261,3.6099124 L76.8285121,3.6099124 L76.8285121,6.76056688 Z M73.4798336,6.76056688 L76.4354064,6.76056688 L76.4354064,3.6099124 L73.4798336,3.6099124 L73.4798336,6.76056688 Z M76.8285121,10.3722449 L79.7513261,10.3722449 L79.7513261,7.18627797 L76.8285121,7.18627797 L76.8285121,10.3722449 Z M73.4798336,10.3722449 L76.4354064,10.3722449 L76.4354064,7.18627797 L73.4798336,7.18627797 L73.4798336,10.3722449 Z M76.8285121,13.9466487 L79.7513261,13.9466487 L79.7513261,10.7940324 L76.8285121,10.7940324 L76.8285121,13.9466487 Z M73.4798336,13.9466487 L76.4354064,13.9466487 L76.4354064,10.7940324 L73.4798336,10.7940324 L73.4798336,13.9466487 Z M76.8285121,17.5230142 L79.7513261,17.5230142 L79.7513261,14.370398 L76.8285121,14.370398 L76.8285121,17.5230142 Z M73.4798336,17.5230142 L76.4354064,17.5230142 L76.4354064,14.370398 L73.4798336,14.370398 L73.4798336,17.5230142 Z M76.8285121,21.1307687 L79.7513261,21.1307687 L79.7513261,17.9467635 L76.8285121,17.9467635 L76.8285121,21.1307687 Z M73.4798336,21.1307687 L76.4354064,21.1307687 L76.4354064,17.9467635 L73.4798336,17.9467635 L73.4798336,21.1307687 Z M76.8285121,24.709096 L79.7513261,24.709096 L79.7513261,21.5564798 L76.8285121,21.5564798 L76.8285121,24.709096 Z M73.4798336,24.709096 L76.4354064,24.709096 L76.4354064,21.5564798 L73.4798336,21.5564798 L73.4798336,24.709096 Z" id="Fill-23" fill="#F3580F"></path>
                <path d="M76.8285121,28.2579964 L79.7513261,28.2579964 L79.7513261,25.0720295 L76.8285121,25.0720295 L76.8285121,28.2579964 Z M73.4798336,28.2579964 L76.4354064,28.2579964 L76.4354064,25.0720295 L73.4798336,25.0720295 L73.4798336,28.2579964 Z M76.8285121,31.8324002 L79.7513261,31.8324002 L79.7513261,28.6817457 L76.8285121,28.6817457 L76.8285121,31.8324002 Z M73.4798336,31.8324002 L76.4354064,31.8324002 L76.4354064,28.6817457 L73.4798336,28.6817457 L73.4798336,31.8324002 Z M76.8285121,35.4440782 L79.7513261,35.4440782 L79.7513261,32.2581113 L76.8285121,32.2581113 L76.8285121,35.4440782 Z M73.4798336,35.4440782 L76.4354064,35.4440782 L76.4354064,32.2581113 L73.4798336,32.2581113 L73.4798336,35.4440782 Z M76.8285121,39.018482 L79.7513261,39.018482 L79.7513261,35.8678275 L76.8285121,35.8678275 L76.8285121,39.018482 Z M73.4798336,39.018482 L76.4354064,39.018482 L76.4354064,35.8678275 L73.4798336,35.8678275 L73.4798336,39.018482 Z M76.8285121,42.5948475 L79.7513261,42.5948475 L79.7513261,39.444193 L76.8285121,39.444193 L76.8285121,42.5948475 Z M73.4798336,42.5948475 L76.4354064,42.5948475 L76.4354064,39.444193 L73.4798336,39.444193 L73.4798336,42.5948475 Z M76.8285121,46.2045637 L79.7513261,46.2045637 L79.7513261,43.0185968 L76.8285121,43.0185968 L76.8285121,46.2045637 Z M73.4798336,46.2045637 L76.4354064,46.2045637 L76.4354064,43.0185968 L73.4798336,43.0185968 L73.4798336,46.2045637 Z" id="Fill-24" fill="#F3580F"></path>
                <path d="M83.4840106,3.1861631 L86.4068245,3.1861631 L86.4068245,0.000196180229 L83.4840106,0.000196180229 L83.4840106,3.1861631 Z M80.1335122,3.1861631 L83.0890849,3.1861631 L83.0890849,0.000196180229 L80.1335122,0.000196180229 L80.1335122,3.1861631 Z M83.4840106,6.76056688 L86.4068245,6.76056688 L86.4068245,3.6099124 L83.4840106,3.6099124 L83.4840106,6.76056688 Z M80.1335122,6.76056688 L83.0890849,6.76056688 L83.0890849,3.6099124 L80.1335122,3.6099124 L80.1335122,6.76056688 Z M83.4840106,10.3722449 L86.4068245,10.3722449 L86.4068245,7.18627797 L83.4840106,7.18627797 L83.4840106,10.3722449 Z M80.1335122,10.3722449 L83.0890849,10.3722449 L83.0890849,7.18627797 L80.1335122,7.18627797 L80.1335122,10.3722449 Z M83.4840106,13.9466487 L86.4068245,13.9466487 L86.4068245,10.7940324 L83.4840106,10.7940324 L83.4840106,13.9466487 Z M80.1335122,13.9466487 L83.0890849,13.9466487 L83.0890849,10.7940324 L80.1335122,10.7940324 L80.1335122,13.9466487 Z M83.4840106,17.5230142 L86.4068245,17.5230142 L86.4068245,14.370398 L83.4840106,14.370398 L83.4840106,17.5230142 Z M80.1335122,17.5230142 L83.0890849,17.5230142 L83.0890849,14.370398 L80.1335122,14.370398 L80.1335122,17.5230142 Z M83.4840106,21.1307687 L86.4068245,21.1307687 L86.4068245,17.9467635 L83.4840106,17.9467635 L83.4840106,21.1307687 Z M80.1335122,21.1307687 L83.0890849,21.1307687 L83.0890849,17.9467635 L80.1335122,17.9467635 L80.1335122,21.1307687 Z M83.4840106,24.709096 L86.4068245,24.709096 L86.4068245,21.5564798 L83.4840106,21.5564798 L83.4840106,24.709096 Z M80.1335122,24.709096 L83.0890849,24.709096 L83.0890849,21.5564798 L80.1335122,21.5564798 L80.1335122,24.709096 Z" id="Fill-25" fill="#F3580F"></path>
                <path d="M83.4840106,28.2579964 L86.4068245,28.2579964 L86.4068245,25.0720295 L83.4840106,25.0720295 L83.4840106,28.2579964 Z M80.1335122,28.2579964 L83.0890849,28.2579964 L83.0890849,25.0720295 L80.1335122,25.0720295 L80.1335122,28.2579964 Z M83.4840106,31.8324002 L86.4068245,31.8324002 L86.4068245,28.6817457 L83.4840106,28.6817457 L83.4840106,31.8324002 Z M80.1335122,31.8324002 L83.0890849,31.8324002 L83.0890849,28.6817457 L80.1335122,28.6817457 L80.1335122,31.8324002 Z M83.4840106,35.4440782 L86.4068245,35.4440782 L86.4068245,32.2581113 L83.4840106,32.2581113 L83.4840106,35.4440782 Z M80.1335122,35.4440782 L83.0890849,35.4440782 L83.0890849,32.2581113 L80.1335122,32.2581113 L80.1335122,35.4440782 Z M83.4840106,39.018482 L86.4068245,39.018482 L86.4068245,35.8678275 L83.4840106,35.8678275 L83.4840106,39.018482 Z M80.1335122,39.018482 L83.0890849,39.018482 L83.0890849,35.8678275 L80.1335122,35.8678275 L80.1335122,39.018482 Z M83.4840106,42.5948475 L86.4068245,42.5948475 L86.4068245,39.444193 L83.4840106,39.444193 L83.4840106,42.5948475 Z M80.1335122,42.5948475 L83.0890849,42.5948475 L83.0890849,39.444193 L80.1335122,39.444193 L80.1335122,42.5948475 Z M83.4840106,46.2045637 L86.4068245,46.2045637 L86.4068245,43.0185968 L83.4840106,43.0185968 L83.4840106,46.2045637 Z M80.1335122,46.2045637 L83.0890849,46.2045637 L83.0890849,43.0185968 L80.1335122,43.0185968 L80.1335122,46.2045637 Z" id="Fill-26" fill="#F3580F"></path>
                <path d="M90.1941071,3.1861631 L93.1169211,3.1861631 L93.1169211,0.000196180229 L90.1941071,0.000196180229 L90.1941071,3.1861631 Z M86.8454286,3.1861631 L89.8010014,3.1861631 L89.8010014,0.000196180229 L86.8454286,0.000196180229 L86.8454286,3.1861631 Z M90.1941071,6.76056688 L93.1169211,6.76056688 L93.1169211,3.6099124 L90.1941071,3.6099124 L90.1941071,6.76056688 Z M86.8454286,6.76056688 L89.8010014,6.76056688 L89.8010014,3.6099124 L86.8454286,3.6099124 L86.8454286,6.76056688 Z M90.1941071,10.3722449 L93.1169211,10.3722449 L93.1169211,7.18627797 L90.1941071,7.18627797 L90.1941071,10.3722449 Z M86.8454286,10.3722449 L89.8010014,10.3722449 L89.8010014,7.18627797 L86.8454286,7.18627797 L86.8454286,10.3722449 Z M90.1941071,13.9466487 L93.1169211,13.9466487 L93.1169211,10.7940324 L90.1941071,10.7940324 L90.1941071,13.9466487 Z M86.8454286,13.9466487 L89.8010014,13.9466487 L89.8010014,10.7940324 L86.8454286,10.7940324 L86.8454286,13.9466487 Z M90.1941071,17.5230142 L93.1169211,17.5230142 L93.1169211,14.370398 L90.1941071,14.370398 L90.1941071,17.5230142 Z M86.8454286,17.5230142 L89.8010014,17.5230142 L89.8010014,14.370398 L86.8454286,14.370398 L86.8454286,17.5230142 Z M90.1941071,21.1307687 L93.1169211,21.1307687 L93.1169211,17.9467635 L90.1941071,17.9467635 L90.1941071,21.1307687 Z M86.8454286,21.1307687 L89.8010014,21.1307687 L89.8010014,17.9467635 L86.8454286,17.9467635 L86.8454286,21.1307687 Z M90.1941071,24.709096 L93.1169211,24.709096 L93.1169211,21.5564798 L90.1941071,21.5564798 L90.1941071,24.709096 Z M86.8454286,24.709096 L89.8010014,24.709096 L89.8010014,21.5564798 L86.8454286,21.5564798 L86.8454286,24.709096 Z" id="Fill-27" fill="#F3580F"></path>
                <path d="M90.1941071,28.2579964 L93.1169211,28.2579964 L93.1169211,25.0720295 L90.1941071,25.0720295 L90.1941071,28.2579964 Z M86.8454286,28.2579964 L89.8010014,28.2579964 L89.8010014,25.0720295 L86.8454286,25.0720295 L86.8454286,28.2579964 Z M90.1941071,31.8324002 L93.1169211,31.8324002 L93.1169211,28.6817457 L90.1941071,28.6817457 L90.1941071,31.8324002 Z M86.8454286,31.8324002 L89.8010014,31.8324002 L89.8010014,28.6817457 L86.8454286,28.6817457 L86.8454286,31.8324002 Z M90.1941071,35.4440782 L93.1169211,35.4440782 L93.1169211,32.2581113 L90.1941071,32.2581113 L90.1941071,35.4440782 Z M86.8454286,35.4440782 L89.8010014,35.4440782 L89.8010014,32.2581113 L86.8454286,32.2581113 L86.8454286,35.4440782 Z M90.1941071,39.018482 L93.1169211,39.018482 L93.1169211,35.8678275 L90.1941071,35.8678275 L90.1941071,39.018482 Z M86.8454286,39.018482 L89.8010014,39.018482 L89.8010014,35.8678275 L86.8454286,35.8678275 L86.8454286,39.018482 Z M90.1941071,42.5948475 L93.1169211,42.5948475 L93.1169211,39.444193 L90.1941071,39.444193 L90.1941071,42.5948475 Z M86.8454286,42.5948475 L89.8010014,42.5948475 L89.8010014,39.444193 L86.8454286,39.444193 L86.8454286,42.5948475 Z M90.1941071,46.2045637 L93.1169211,46.2045637 L93.1169211,43.0185968 L90.1941071,43.0185968 L90.1941071,46.2045637 Z M86.8454286,46.2045637 L89.8010014,46.2045637 L89.8010014,43.0185968 L86.8454286,43.0185968 L86.8454286,46.2045637 Z" id="Fill-28" fill="#F3580F"></path>
                <path d="M96.7931877,3.1861631 L99.7160016,3.1861631 L99.7160016,0.000196180229 L96.7931877,0.000196180229 L96.7931877,3.1861631 Z M93.4408693,3.1861631 L96.396442,3.1861631 L96.396442,0.000196180229 L93.4408693,0.000196180229 L93.4408693,3.1861631 Z M96.7931877,6.76056688 L99.7160016,6.76056688 L99.7160016,3.6099124 L96.7931877,3.6099124 L96.7931877,6.76056688 Z M93.4408693,6.76056688 L96.396442,6.76056688 L96.396442,3.6099124 L93.4408693,3.6099124 L93.4408693,6.76056688 Z M96.7931877,10.3722449 L99.7160016,10.3722449 L99.7160016,7.18627797 L96.7931877,7.18627797 L96.7931877,10.3722449 Z M93.4408693,10.3722449 L96.396442,10.3722449 L96.396442,7.18627797 L93.4408693,7.18627797 L93.4408693,10.3722449 Z M96.7931877,13.9466487 L99.7160016,13.9466487 L99.7160016,10.7940324 L96.7931877,10.7940324 L96.7931877,13.9466487 Z M93.4408693,13.9466487 L96.396442,13.9466487 L96.396442,10.7940324 L93.4408693,10.7940324 L93.4408693,13.9466487 Z M96.7931877,17.5230142 L99.7160016,17.5230142 L99.7160016,14.370398 L96.7931877,14.370398 L96.7931877,17.5230142 Z M93.4408693,17.5230142 L96.396442,17.5230142 L96.396442,14.370398 L93.4408693,14.370398 L93.4408693,17.5230142 Z M96.7931877,21.1307687 L99.7160016,21.1307687 L99.7160016,17.9467635 L96.7931877,17.9467635 L96.7931877,21.1307687 Z M93.4408693,21.1307687 L96.396442,21.1307687 L96.396442,17.9467635 L93.4408693,17.9467635 L93.4408693,21.1307687 Z M96.7931877,24.709096 L99.7160016,24.709096 L99.7160016,21.5564798 L96.7931877,21.5564798 L96.7931877,24.709096 Z M93.4408693,24.709096 L96.396442,24.709096 L96.396442,21.5564798 L93.4408693,21.5564798 L93.4408693,24.709096 Z" id="Fill-29" fill="#F3580F"></path>
                <path d="M96.7931877,28.2579964 L99.7160016,28.2579964 L99.7160016,25.0720295 L96.7931877,25.0720295 L96.7931877,28.2579964 Z M93.4408693,28.2579964 L96.396442,28.2579964 L96.396442,25.0720295 L93.4408693,25.0720295 L93.4408693,28.2579964 Z M96.7931877,31.8324002 L99.7160016,31.8324002 L99.7160016,28.6817457 L96.7931877,28.6817457 L96.7931877,31.8324002 Z M93.4408693,31.8324002 L96.396442,31.8324002 L96.396442,28.6817457 L93.4408693,28.6817457 L93.4408693,31.8324002 Z M96.7931877,35.4440782 L99.7160016,35.4440782 L99.7160016,32.2581113 L96.7931877,32.2581113 L96.7931877,35.4440782 Z M93.4408693,35.4440782 L96.396442,35.4440782 L96.396442,32.2581113 L93.4408693,32.2581113 L93.4408693,35.4440782 Z M96.7931877,39.018482 L99.7160016,39.018482 L99.7160016,35.8678275 L96.7931877,35.8678275 L96.7931877,39.018482 Z M93.4408693,39.018482 L96.396442,39.018482 L96.396442,35.8678275 L93.4408693,35.8678275 L93.4408693,39.018482 Z M96.7931877,42.5948475 L99.7160016,42.5948475 L99.7160016,39.444193 L96.7931877,39.444193 L96.7931877,42.5948475 Z M93.4408693,42.5948475 L96.396442,42.5948475 L96.396442,39.444193 L93.4408693,39.444193 L93.4408693,42.5948475 Z M96.7931877,46.2045637 L99.7160016,46.2045637 L99.7160016,43.0185968 L96.7931877,43.0185968 L96.7931877,46.2045637 Z M93.4408693,46.2045637 L96.396442,46.2045637 L96.396442,43.0185968 L93.4408693,43.0185968 L93.4408693,46.2045637 Z" id="Fill-30" fill="#F3580F"></path>
                <path d="M103.503284,3.1861631 L106.426098,3.1861631 L106.426098,0.000196180229 L103.503284,0.000196180229 L103.503284,3.1861631 Z M100.152786,3.1861631 L103.108358,3.1861631 L103.108358,0.000196180229 L100.152786,0.000196180229 L100.152786,3.1861631 Z M103.503284,6.76056688 L106.426098,6.76056688 L106.426098,3.6099124 L103.503284,3.6099124 L103.503284,6.76056688 Z M100.152786,6.76056688 L103.108358,6.76056688 L103.108358,3.6099124 L100.152786,3.6099124 L100.152786,6.76056688 Z M103.503284,10.3722449 L106.426098,10.3722449 L106.426098,7.18627797 L103.503284,7.18627797 L103.503284,10.3722449 Z M100.152786,10.3722449 L103.108358,10.3722449 L103.108358,7.18627797 L100.152786,7.18627797 L100.152786,10.3722449 Z M103.503284,13.9466487 L106.426098,13.9466487 L106.426098,10.7940324 L103.503284,10.7940324 L103.503284,13.9466487 Z M100.152786,13.9466487 L103.108358,13.9466487 L103.108358,10.7940324 L100.152786,10.7940324 L100.152786,13.9466487 Z M103.503284,17.5230142 L106.426098,17.5230142 L106.426098,14.370398 L103.503284,14.370398 L103.503284,17.5230142 Z M100.152786,17.5230142 L103.108358,17.5230142 L103.108358,14.370398 L100.152786,14.370398 L100.152786,17.5230142 Z M103.503284,21.1307687 L106.426098,21.1307687 L106.426098,17.9467635 L103.503284,17.9467635 L103.503284,21.1307687 Z M100.152786,21.1307687 L103.108358,21.1307687 L103.108358,17.9467635 L100.152786,17.9467635 L100.152786,21.1307687 Z M103.503284,24.709096 L106.426098,24.709096 L106.426098,21.5564798 L103.503284,21.5564798 L103.503284,24.709096 Z M100.152786,24.709096 L103.108358,24.709096 L103.108358,21.5564798 L100.152786,21.5564798 L100.152786,24.709096 Z" id="Fill-31" fill="#F3580F"></path>
                <path d="M103.503284,28.2579964 L106.426098,28.2579964 L106.426098,25.0720295 L103.503284,25.0720295 L103.503284,28.2579964 Z M100.152786,28.2579964 L103.108358,28.2579964 L103.108358,25.0720295 L100.152786,25.0720295 L100.152786,28.2579964 Z M103.503284,31.8324002 L106.426098,31.8324002 L106.426098,28.6817457 L103.503284,28.6817457 L103.503284,31.8324002 Z M100.152786,31.8324002 L103.108358,31.8324002 L103.108358,28.6817457 L100.152786,28.6817457 L100.152786,31.8324002 Z M103.503284,35.4440782 L106.426098,35.4440782 L106.426098,32.2581113 L103.503284,32.2581113 L103.503284,35.4440782 Z M100.152786,35.4440782 L103.108358,35.4440782 L103.108358,32.2581113 L100.152786,32.2581113 L100.152786,35.4440782 Z M103.503284,39.018482 L106.426098,39.018482 L106.426098,35.8678275 L103.503284,35.8678275 L103.503284,39.018482 Z M100.152786,39.018482 L103.108358,39.018482 L103.108358,35.8678275 L100.152786,35.8678275 L100.152786,39.018482 Z M103.503284,42.5948475 L106.426098,42.5948475 L106.426098,39.444193 L103.503284,39.444193 L103.503284,42.5948475 Z M100.152786,42.5948475 L103.108358,42.5948475 L103.108358,39.444193 L100.152786,39.444193 L100.152786,42.5948475 Z M103.503284,46.2045637 L106.426098,46.2045637 L106.426098,43.0185968 L103.503284,43.0185968 L103.503284,46.2045637 Z M100.152786,46.2045637 L103.108358,46.2045637 L103.108358,43.0185968 L100.152786,43.0185968 L100.152786,46.2045637 Z" id="Fill-32" fill="#F3580F"></path>
                <path d="M110.156963,3.1861631 L113.079777,3.1861631 L113.079777,0.000196180229 L110.156963,0.000196180229 L110.156963,3.1861631 Z M106.806464,3.1861631 L109.762037,3.1861631 L109.762037,0.000196180229 L106.806464,0.000196180229 L106.806464,3.1861631 Z M110.156963,6.76056688 L113.079777,6.76056688 L113.079777,3.6099124 L110.156963,3.6099124 L110.156963,6.76056688 Z M106.806464,6.76056688 L109.762037,6.76056688 L109.762037,3.6099124 L106.806464,3.6099124 L106.806464,6.76056688 Z M110.156963,10.3722449 L113.079777,10.3722449 L113.079777,7.18627797 L110.156963,7.18627797 L110.156963,10.3722449 Z M106.806464,10.3722449 L109.762037,10.3722449 L109.762037,7.18627797 L106.806464,7.18627797 L106.806464,10.3722449 Z M110.156963,13.9466487 L113.079777,13.9466487 L113.079777,10.7940324 L110.156963,10.7940324 L110.156963,13.9466487 Z M106.806464,13.9466487 L109.762037,13.9466487 L109.762037,10.7940324 L106.806464,10.7940324 L106.806464,13.9466487 Z M110.156963,17.5230142 L113.079777,17.5230142 L113.079777,14.370398 L110.156963,14.370398 L110.156963,17.5230142 Z M106.806464,17.5230142 L109.762037,17.5230142 L109.762037,14.370398 L106.806464,14.370398 L106.806464,17.5230142 Z M110.156963,21.1307687 L113.079777,21.1307687 L113.079777,17.9467635 L110.156963,17.9467635 L110.156963,21.1307687 Z M106.806464,21.1307687 L109.762037,21.1307687 L109.762037,17.9467635 L106.806464,17.9467635 L106.806464,21.1307687 Z M110.156963,24.709096 L113.079777,24.709096 L113.079777,21.5564798 L110.156963,21.5564798 L110.156963,24.709096 Z M106.806464,24.709096 L109.762037,24.709096 L109.762037,21.5564798 L106.806464,21.5564798 L106.806464,24.709096 Z" id="Fill-33" fill="#F3580F"></path>
                <path d="M110.156963,28.2579964 L113.079777,28.2579964 L113.079777,25.0720295 L110.156963,25.0720295 L110.156963,28.2579964 Z M106.806464,28.2579964 L109.762037,28.2579964 L109.762037,25.0720295 L106.806464,25.0720295 L106.806464,28.2579964 Z M110.156963,31.8324002 L113.079777,31.8324002 L113.079777,28.6817457 L110.156963,28.6817457 L110.156963,31.8324002 Z M106.806464,31.8324002 L109.762037,31.8324002 L109.762037,28.6817457 L106.806464,28.6817457 L106.806464,31.8324002 Z M110.156963,35.4440782 L113.079777,35.4440782 L113.079777,32.2581113 L110.156963,32.2581113 L110.156963,35.4440782 Z M106.806464,35.4440782 L109.762037,35.4440782 L109.762037,32.2581113 L106.806464,32.2581113 L106.806464,35.4440782 Z M110.156963,39.018482 L113.079777,39.018482 L113.079777,35.8678275 L110.156963,35.8678275 L110.156963,39.018482 Z M106.806464,39.018482 L109.762037,39.018482 L109.762037,35.8678275 L106.806464,35.8678275 L106.806464,39.018482 Z M110.156963,42.5948475 L113.079777,42.5948475 L113.079777,39.444193 L110.156963,39.444193 L110.156963,42.5948475 Z M106.806464,42.5948475 L109.762037,42.5948475 L109.762037,39.444193 L106.806464,39.444193 L106.806464,42.5948475 Z M110.156963,46.2045637 L113.079777,46.2045637 L113.079777,43.0185968 L110.156963,43.0185968 L110.156963,46.2045637 Z M106.806464,46.2045637 L109.762037,46.2045637 L109.762037,43.0185968 L106.806464,43.0185968 L106.806464,46.2045637 Z" id="Fill-34" fill="#F3580F"></path>
                <path d="M116.83976,3.27836781 L119.762574,3.27836781 L119.762574,0.0924008879 L116.83976,0.0924008879 L116.83976,3.27836781 Z M113.489262,3.27836781 L116.444835,3.27836781 L116.444835,0.0924008879 L113.489262,0.0924008879 L113.489262,3.27836781 Z M116.83976,6.85277158 L119.762574,6.85277158 L119.762574,3.7021171 L116.83976,3.7021171 L116.83976,6.85277158 Z M113.489262,6.85277158 L116.444835,6.85277158 L116.444835,3.7021171 L113.489262,3.7021171 L113.489262,6.85277158 Z M116.83976,10.4624878 L119.762574,10.4624878 L119.762574,7.27652088 L116.83976,7.27652088 L116.83976,10.4624878 Z M113.489262,10.4624878 L116.444835,10.4624878 L116.444835,7.27652088 L113.489262,7.27652088 L113.489262,10.4624878 Z M116.83976,14.0388534 L119.762574,14.0388534 L119.762574,10.8881989 L116.83976,10.8881989 L116.83976,14.0388534 Z M113.489262,14.0388534 L116.444835,14.0388534 L116.444835,10.8881989 L113.489262,10.8881989 L113.489262,14.0388534 Z M116.83976,17.615219 L119.762574,17.615219 L119.762574,14.4626027 L116.83976,14.4626027 L116.83976,17.615219 Z M113.489262,17.615219 L116.444835,17.615219 L116.444835,14.4626027 L113.489262,14.4626027 L113.489262,17.615219 Z M116.83976,21.2249352 L119.762574,21.2249352 L119.762574,18.0389682 L116.83976,18.0389682 L116.83976,21.2249352 Z M113.489262,21.2249352 L116.444835,21.2249352 L116.444835,18.0389682 L113.489262,18.0389682 L113.489262,21.2249352 Z M116.83976,24.7993389 L119.762574,24.7993389 L119.762574,21.6467227 L116.83976,21.6467227 L116.83976,24.7993389 Z M113.489262,24.7993389 L116.444835,24.7993389 L116.444835,21.6467227 L113.489262,21.6467227 L113.489262,24.7993389 Z" id="Fill-35" fill="#F3580F"></path>
                <path d="M116.83976,28.3502011 L119.762574,28.3502011 L119.762574,25.1642342 L116.83976,25.1642342 L116.83976,28.3502011 Z M113.489262,28.3502011 L116.444835,28.3502011 L116.444835,25.1642342 L113.489262,25.1642342 L113.489262,28.3502011 Z M116.83976,31.9246049 L119.762574,31.9246049 L119.762574,28.7739504 L116.83976,28.7739504 L116.83976,31.9246049 Z M113.489262,31.9246049 L116.444835,31.9246049 L116.444835,28.7739504 L113.489262,28.7739504 L113.489262,31.9246049 Z M116.83976,35.5362829 L119.762574,35.5362829 L119.762574,32.350316 L116.83976,32.350316 L116.83976,35.5362829 Z M113.489262,35.5362829 L116.444835,35.5362829 L116.444835,32.350316 L113.489262,32.350316 L113.489262,35.5362829 Z M116.83976,39.1106867 L119.762574,39.1106867 L119.762574,35.9600322 L116.83976,35.9600322 L116.83976,39.1106867 Z M113.489262,39.1106867 L116.444835,39.1106867 L116.444835,35.9600322 L113.489262,35.9600322 L113.489262,39.1106867 Z M116.83976,42.6870522 L119.762574,42.6870522 L119.762574,39.5363978 L116.83976,39.5363978 L116.83976,42.6870522 Z M113.489262,42.6870522 L116.444835,42.6870522 L116.444835,39.5363978 L113.489262,39.5363978 L113.489262,42.6870522 Z M116.83976,46.2967685 L119.762574,46.2967685 L119.762574,43.1108015 L116.83976,43.1108015 L116.83976,46.2967685 Z M113.489262,46.2967685 L116.444835,46.2967685 L116.444835,43.1108015 L113.489262,43.1108015 L113.489262,46.2967685 Z" id="Fill-36" fill="#F3580F"></path>
                <path d="M123.578976,3.1861631 L126.50179,3.1861631 L126.50179,0.000196180229 L123.578976,0.000196180229 L123.578976,3.1861631 Z M120.230297,3.1861631 L123.18587,3.1861631 L123.18587,0.000196180229 L120.230297,0.000196180229 L120.230297,3.1861631 Z M123.578976,6.76056688 L126.50179,6.76056688 L126.50179,3.6099124 L123.578976,3.6099124 L123.578976,6.76056688 Z M120.230297,6.76056688 L123.18587,6.76056688 L123.18587,3.6099124 L120.230297,3.6099124 L120.230297,6.76056688 Z M123.578976,10.3722449 L126.50179,10.3722449 L126.50179,7.18627797 L123.578976,7.18627797 L123.578976,10.3722449 Z M120.230297,10.3722449 L123.18587,10.3722449 L123.18587,7.18627797 L120.230297,7.18627797 L120.230297,10.3722449 Z M123.578976,13.9466487 L126.50179,13.9466487 L126.50179,10.7940324 L123.578976,10.7940324 L123.578976,13.9466487 Z M120.230297,13.9466487 L123.18587,13.9466487 L123.18587,10.7940324 L120.230297,10.7940324 L120.230297,13.9466487 Z M123.578976,17.5230142 L126.50179,17.5230142 L126.50179,14.370398 L123.578976,14.370398 L123.578976,17.5230142 Z M120.230297,17.5230142 L123.18587,17.5230142 L123.18587,14.370398 L120.230297,14.370398 L120.230297,17.5230142 Z M123.578976,21.1307687 L126.50179,21.1307687 L126.50179,17.9467635 L123.578976,17.9467635 L123.578976,21.1307687 Z M120.230297,21.1307687 L123.18587,21.1307687 L123.18587,17.9467635 L120.230297,17.9467635 L120.230297,21.1307687 Z M123.578976,24.709096 L126.50179,24.709096 L126.50179,21.5564798 L123.578976,21.5564798 L123.578976,24.709096 Z M120.230297,24.709096 L123.18587,24.709096 L123.18587,21.5564798 L120.230297,21.5564798 L120.230297,24.709096 Z" id="Fill-37" fill="#F3580F"></path>
                <path d="M123.578976,28.2579964 L126.50179,28.2579964 L126.50179,25.0720295 L123.578976,25.0720295 L123.578976,28.2579964 Z M120.230297,28.2579964 L123.18587,28.2579964 L123.18587,25.0720295 L120.230297,25.0720295 L120.230297,28.2579964 Z M123.578976,31.8324002 L126.50179,31.8324002 L126.50179,28.6817457 L123.578976,28.6817457 L123.578976,31.8324002 Z M120.230297,31.8324002 L123.18587,31.8324002 L123.18587,28.6817457 L120.230297,28.6817457 L120.230297,31.8324002 Z M123.578976,35.4440782 L126.50179,35.4440782 L126.50179,32.2581113 L123.578976,32.2581113 L123.578976,35.4440782 Z M120.230297,35.4440782 L123.18587,35.4440782 L123.18587,32.2581113 L120.230297,32.2581113 L120.230297,35.4440782 Z M123.578976,39.018482 L126.50179,39.018482 L126.50179,35.8678275 L123.578976,35.8678275 L123.578976,39.018482 Z M120.230297,39.018482 L123.18587,39.018482 L123.18587,35.8678275 L120.230297,35.8678275 L120.230297,39.018482 Z M123.578976,42.5948475 L126.50179,42.5948475 L126.50179,39.444193 L123.578976,39.444193 L123.578976,42.5948475 Z M120.230297,42.5948475 L123.18587,42.5948475 L123.18587,39.444193 L120.230297,39.444193 L120.230297,42.5948475 Z M123.578976,46.2045637 L126.50179,46.2045637 L126.50179,43.0185968 L123.578976,43.0185968 L123.578976,46.2045637 Z M120.230297,46.2045637 L123.18587,46.2045637 L123.18587,43.0185968 L120.230297,43.0185968 L120.230297,46.2045637 Z" id="Fill-38" fill="#F3580F"></path>
                <path d="M130.232654,3.1861631 L133.155468,3.1861631 L133.155468,0.000196180229 L130.232654,0.000196180229 L130.232654,3.1861631 Z M126.883976,3.1861631 L129.839548,3.1861631 L129.839548,0.000196180229 L126.883976,0.000196180229 L126.883976,3.1861631 Z M130.232654,6.76056688 L133.155468,6.76056688 L133.155468,3.6099124 L130.232654,3.6099124 L130.232654,6.76056688 Z M126.883976,6.76056688 L129.839548,6.76056688 L129.839548,3.6099124 L126.883976,3.6099124 L126.883976,6.76056688 Z M130.232654,10.3722449 L133.155468,10.3722449 L133.155468,7.18627797 L130.232654,7.18627797 L130.232654,10.3722449 Z M126.883976,10.3722449 L129.839548,10.3722449 L129.839548,7.18627797 L126.883976,7.18627797 L126.883976,10.3722449 Z M130.232654,13.9466487 L133.155468,13.9466487 L133.155468,10.7940324 L130.232654,10.7940324 L130.232654,13.9466487 Z M126.883976,13.9466487 L129.839548,13.9466487 L129.839548,10.7940324 L126.883976,10.7940324 L126.883976,13.9466487 Z M130.232654,17.5230142 L133.155468,17.5230142 L133.155468,14.370398 L130.232654,14.370398 L130.232654,17.5230142 Z M126.883976,17.5230142 L129.839548,17.5230142 L129.839548,14.370398 L126.883976,14.370398 L126.883976,17.5230142 Z M130.232654,21.1307687 L133.155468,21.1307687 L133.155468,17.9467635 L130.232654,17.9467635 L130.232654,21.1307687 Z M126.883976,21.1307687 L129.839548,21.1307687 L129.839548,17.9467635 L126.883976,17.9467635 L126.883976,21.1307687 Z M130.232654,24.709096 L133.155468,24.709096 L133.155468,21.5564798 L130.232654,21.5564798 L130.232654,24.709096 Z M126.883976,24.709096 L129.839548,24.709096 L129.839548,21.5564798 L126.883976,21.5564798 L126.883976,24.709096 Z" id="Fill-39" fill="#F3580F"></path>
                <path d="M130.232654,28.2579964 L133.155468,28.2579964 L133.155468,25.0720295 L130.232654,25.0720295 L130.232654,28.2579964 Z M126.883976,28.2579964 L129.839548,28.2579964 L129.839548,25.0720295 L126.883976,25.0720295 L126.883976,28.2579964 Z M130.232654,31.8324002 L133.155468,31.8324002 L133.155468,28.6817457 L130.232654,28.6817457 L130.232654,31.8324002 Z M126.883976,31.8324002 L129.839548,31.8324002 L129.839548,28.6817457 L126.883976,28.6817457 L126.883976,31.8324002 Z M130.232654,35.4440782 L133.155468,35.4440782 L133.155468,32.2581113 L130.232654,32.2581113 L130.232654,35.4440782 Z M126.883976,35.4440782 L129.839548,35.4440782 L129.839548,32.2581113 L126.883976,32.2581113 L126.883976,35.4440782 Z M130.232654,39.018482 L133.155468,39.018482 L133.155468,35.8678275 L130.232654,35.8678275 L130.232654,39.018482 Z M126.883976,39.018482 L129.839548,39.018482 L129.839548,35.8678275 L126.883976,35.8678275 L126.883976,39.018482 Z M130.232654,42.5948475 L133.155468,42.5948475 L133.155468,39.444193 L130.232654,39.444193 L130.232654,42.5948475 Z M126.883976,42.5948475 L129.839548,42.5948475 L129.839548,39.444193 L126.883976,39.444193 L126.883976,42.5948475 Z M130.232654,46.2045637 L133.155468,46.2045637 L133.155468,43.0185968 L130.232654,43.0185968 L130.232654,46.2045637 Z M126.883976,46.2045637 L129.839548,46.2045637 L129.839548,43.0185968 L126.883976,43.0185968 L126.883976,46.2045637 Z" id="Fill-40" fill="#F3580F"></path>
                <path d="M136.829915,3.1861631 L139.752729,3.1861631 L139.752729,0.000196180229 L136.829915,0.000196180229 L136.829915,3.1861631 Z M133.481236,3.1861631 L136.436809,3.1861631 L136.436809,0.000196180229 L133.481236,0.000196180229 L133.481236,3.1861631 Z M136.829915,6.76056688 L139.752729,6.76056688 L139.752729,3.6099124 L136.829915,3.6099124 L136.829915,6.76056688 Z M133.481236,6.76056688 L136.436809,6.76056688 L136.436809,3.6099124 L133.481236,3.6099124 L133.481236,6.76056688 Z M136.829915,10.3722449 L139.752729,10.3722449 L139.752729,7.18627797 L136.829915,7.18627797 L136.829915,10.3722449 Z M133.481236,10.3722449 L136.436809,10.3722449 L136.436809,7.18627797 L133.481236,7.18627797 L133.481236,10.3722449 Z M136.829915,13.9466487 L139.752729,13.9466487 L139.752729,10.7940324 L136.829915,10.7940324 L136.829915,13.9466487 Z M133.481236,13.9466487 L136.436809,13.9466487 L136.436809,10.7940324 L133.481236,10.7940324 L133.481236,13.9466487 Z M136.829915,17.5230142 L139.752729,17.5230142 L139.752729,14.370398 L136.829915,14.370398 L136.829915,17.5230142 Z M133.481236,17.5230142 L136.436809,17.5230142 L136.436809,14.370398 L133.481236,14.370398 L133.481236,17.5230142 Z M136.829915,21.1307687 L139.752729,21.1307687 L139.752729,17.9467635 L136.829915,17.9467635 L136.829915,21.1307687 Z M133.481236,21.1307687 L136.436809,21.1307687 L136.436809,17.9467635 L133.481236,17.9467635 L133.481236,21.1307687 Z M136.829915,24.709096 L139.752729,24.709096 L139.752729,21.5564798 L136.829915,21.5564798 L136.829915,24.709096 Z M133.481236,24.709096 L136.436809,24.709096 L136.436809,21.5564798 L133.481236,21.5564798 L133.481236,24.709096 Z" id="Fill-41" fill="#F3580F"></path>
                <path d="M136.829915,28.2579964 L139.752729,28.2579964 L139.752729,25.0720295 L136.829915,25.0720295 L136.829915,28.2579964 Z M133.481236,28.2579964 L136.436809,28.2579964 L136.436809,25.0720295 L133.481236,25.0720295 L133.481236,28.2579964 Z M136.829915,31.8324002 L139.752729,31.8324002 L139.752729,28.6817457 L136.829915,28.6817457 L136.829915,31.8324002 Z M133.481236,31.8324002 L136.436809,31.8324002 L136.436809,28.6817457 L133.481236,28.6817457 L133.481236,31.8324002 Z M136.829915,35.4440782 L139.752729,35.4440782 L139.752729,32.2581113 L136.829915,32.2581113 L136.829915,35.4440782 Z M133.481236,35.4440782 L136.436809,35.4440782 L136.436809,32.2581113 L133.481236,32.2581113 L133.481236,35.4440782 Z M136.829915,39.018482 L139.752729,39.018482 L139.752729,35.8678275 L136.829915,35.8678275 L136.829915,39.018482 Z M133.481236,39.018482 L136.436809,39.018482 L136.436809,35.8678275 L133.481236,35.8678275 L133.481236,39.018482 Z M136.829915,42.5948475 L139.752729,42.5948475 L139.752729,39.444193 L136.829915,39.444193 L136.829915,42.5948475 Z M133.481236,42.5948475 L136.436809,42.5948475 L136.436809,39.444193 L133.481236,39.444193 L133.481236,42.5948475 Z M136.829915,46.2045637 L139.752729,46.2045637 L139.752729,43.0185968 L136.829915,43.0185968 L136.829915,46.2045637 Z M133.481236,46.2045637 L136.436809,46.2045637 L136.436809,43.0185968 L133.481236,43.0185968 L133.481236,46.2045637 Z" id="Fill-42" fill="#F3580F"></path>
                <path d="M143.427175,3.1861631 L146.349989,3.1861631 L146.349989,0.000196180229 L143.427175,0.000196180229 L143.427175,3.1861631 Z M140.078497,3.1861631 L143.03407,3.1861631 L143.03407,0.000196180229 L140.078497,0.000196180229 L140.078497,3.1861631 Z M143.427175,6.76056688 L146.349989,6.76056688 L146.349989,3.6099124 L143.427175,3.6099124 L143.427175,6.76056688 Z M140.078497,6.76056688 L143.03407,6.76056688 L143.03407,3.6099124 L140.078497,3.6099124 L140.078497,6.76056688 Z M143.427175,10.3722449 L146.349989,10.3722449 L146.349989,7.18627797 L143.427175,7.18627797 L143.427175,10.3722449 Z M140.078497,10.3722449 L143.03407,10.3722449 L143.03407,7.18627797 L140.078497,7.18627797 L140.078497,10.3722449 Z M143.427175,13.9466487 L146.349989,13.9466487 L146.349989,10.7940324 L143.427175,10.7940324 L143.427175,13.9466487 Z M140.078497,13.9466487 L143.03407,13.9466487 L143.03407,10.7940324 L140.078497,10.7940324 L140.078497,13.9466487 Z M143.427175,17.5230142 L146.349989,17.5230142 L146.349989,14.370398 L143.427175,14.370398 L143.427175,17.5230142 Z M140.078497,17.5230142 L143.03407,17.5230142 L143.03407,14.370398 L140.078497,14.370398 L140.078497,17.5230142 Z M143.427175,21.1307687 L146.349989,21.1307687 L146.349989,17.9467635 L143.427175,17.9467635 L143.427175,21.1307687 Z M140.078497,21.1307687 L143.03407,21.1307687 L143.03407,17.9467635 L140.078497,17.9467635 L140.078497,21.1307687 Z M143.427175,24.709096 L146.349989,24.709096 L146.349989,21.5564798 L143.427175,21.5564798 L143.427175,24.709096 Z M140.078497,24.709096 L143.03407,24.709096 L143.03407,21.5564798 L140.078497,21.5564798 L140.078497,24.709096 Z" id="Fill-43" fill="#F3580F"></path>
                <path d="M143.427175,28.2579964 L146.349989,28.2579964 L146.349989,25.0720295 L143.427175,25.0720295 L143.427175,28.2579964 Z M140.078497,28.2579964 L143.03407,28.2579964 L143.03407,25.0720295 L140.078497,25.0720295 L140.078497,28.2579964 Z M143.427175,31.8324002 L146.349989,31.8324002 L146.349989,28.6817457 L143.427175,28.6817457 L143.427175,31.8324002 Z M140.078497,31.8324002 L143.03407,31.8324002 L143.03407,28.6817457 L140.078497,28.6817457 L140.078497,31.8324002 Z M143.427175,35.4440782 L146.349989,35.4440782 L146.349989,32.2581113 L143.427175,32.2581113 L143.427175,35.4440782 Z M140.078497,35.4440782 L143.03407,35.4440782 L143.03407,32.2581113 L140.078497,32.2581113 L140.078497,35.4440782 Z M143.427175,39.018482 L146.349989,39.018482 L146.349989,35.8678275 L143.427175,35.8678275 L143.427175,39.018482 Z M140.078497,39.018482 L143.03407,39.018482 L143.03407,35.8678275 L140.078497,35.8678275 L140.078497,39.018482 Z M143.427175,42.5948475 L146.349989,42.5948475 L146.349989,39.444193 L143.427175,39.444193 L143.427175,42.5948475 Z M140.078497,42.5948475 L143.03407,42.5948475 L143.03407,39.444193 L140.078497,39.444193 L140.078497,42.5948475 Z M143.427175,46.2045637 L146.349989,46.2045637 L146.349989,43.0185968 L143.427175,43.0185968 L143.427175,46.2045637 Z M140.078497,46.2045637 L143.03407,46.2045637 L143.03407,43.0185968 L140.078497,43.0185968 L140.078497,46.2045637 Z" id="Fill-44" fill="#F3580F"></path>
                <path d="M146.732176,3.1861631 L149.689568,3.1861631 L149.689568,0.000196180229 L146.732176,0.000196180229 L146.732176,3.1861631 Z M150.080854,6.76056688 L153.003668,6.76056688 L153.003668,3.6099124 L150.080854,3.6099124 L150.080854,6.76056688 Z M146.732176,6.76056688 L149.689568,6.76056688 L149.689568,3.6099124 L146.732176,3.6099124 L146.732176,6.76056688 Z M150.080854,10.3722449 L153.003668,10.3722449 L153.003668,7.18627797 L150.080854,7.18627797 L150.080854,10.3722449 Z M146.732176,10.3722449 L149.689568,10.3722449 L149.689568,7.18627797 L146.732176,7.18627797 L146.732176,10.3722449 Z M150.080854,13.9466487 L153.003668,13.9466487 L153.003668,10.7940324 L150.080854,10.7940324 L150.080854,13.9466487 Z M146.732176,13.9466487 L149.689568,13.9466487 L149.689568,10.7940324 L146.732176,10.7940324 L146.732176,13.9466487 Z M150.080854,17.5230142 L153.003668,17.5230142 L153.003668,14.370398 L150.080854,14.370398 L150.080854,17.5230142 Z M146.732176,17.5230142 L149.689568,17.5230142 L149.689568,14.370398 L146.732176,14.370398 L146.732176,17.5230142 Z M150.080854,21.1307687 L153.003668,21.1307687 L153.003668,17.9467635 L150.080854,17.9467635 L150.080854,21.1307687 Z M146.732176,21.1307687 L149.689568,21.1307687 L149.689568,17.9467635 L146.732176,17.9467635 L146.732176,21.1307687 Z M150.080854,24.709096 L153.003668,24.709096 L153.003668,21.5564798 L150.080854,21.5564798 L150.080854,24.709096 Z M146.732176,24.709096 L149.689568,24.709096 L149.689568,21.5564798 L146.732176,21.5564798 L146.732176,24.709096 Z" id="Fill-45" fill="#F3580F"></path>
                <path d="M150.080854,28.2579964 L153.003668,28.2579964 L153.003668,25.0720295 L150.080854,25.0720295 L150.080854,28.2579964 Z M146.732176,28.2579964 L149.689568,28.2579964 L149.689568,25.0720295 L146.732176,25.0720295 L146.732176,28.2579964 Z M150.080854,31.8324002 L153.003668,31.8324002 L153.003668,28.6817457 L150.080854,28.6817457 L150.080854,31.8324002 Z M146.732176,31.8324002 L149.689568,31.8324002 L149.689568,28.6817457 L146.732176,28.6817457 L146.732176,31.8324002 Z M150.080854,35.4440782 L153.003668,35.4440782 L153.003668,32.2581113 L150.080854,32.2581113 L150.080854,35.4440782 Z M146.732176,35.4440782 L149.689568,35.4440782 L149.689568,32.2581113 L146.732176,32.2581113 L146.732176,35.4440782 Z M150.080854,39.018482 L153.003668,39.018482 L153.003668,35.8678275 L150.080854,35.8678275 L150.080854,39.018482 Z M146.732176,39.018482 L149.689568,39.018482 L149.689568,35.8678275 L146.732176,35.8678275 L146.732176,39.018482 Z M150.080854,42.5948475 L153.003668,42.5948475 L153.003668,39.444193 L150.080854,39.444193 L150.080854,42.5948475 Z M146.732176,42.5948475 L149.689568,42.5948475 L149.689568,39.444193 L146.732176,39.444193 L146.732176,42.5948475 Z M146.732176,46.2045637 L149.689568,46.2045637 L149.689568,43.0185968 L146.732176,43.0185968 L146.732176,46.2045637 Z" id="Fill-46" fill="#F3580F"></path>
                <path d="M153.556928,10.3722449 L156.512501,10.3722449 L156.512501,7.18627797 L153.556928,7.18627797 L153.556928,10.3722449 Z M153.556928,13.9466487 L156.512501,13.9466487 L156.512501,10.7940324 L153.556928,10.7940324 L153.556928,13.9466487 Z M153.556928,17.5230142 L156.512501,17.5230142 L156.512501,14.370398 L153.556928,14.370398 L153.556928,17.5230142 Z M153.556928,21.1307687 L156.512501,21.1307687 L156.512501,17.9467635 L153.556928,17.9467635 L153.556928,21.1307687 Z M153.556928,24.709096 L156.512501,24.709096 L156.512501,21.5564798 L153.556928,21.5564798 L153.556928,24.709096 Z" id="Fill-47" fill="#F3580F"></path>
                <path d="M153.556928,28.2579964 L156.512501,28.2579964 L156.512501,25.0720295 L153.556928,25.0720295 L153.556928,28.2579964 Z M153.556928,31.8324002 L156.512501,31.8324002 L156.512501,28.6817457 L153.556928,28.6817457 L153.556928,31.8324002 Z M153.556928,35.4440782 L156.512501,35.4440782 L156.512501,32.2581113 L153.556928,32.2581113 L153.556928,35.4440782 Z M153.556928,39.018482 L156.512501,39.018482 L156.512501,35.8678275 L153.556928,35.8678275 L153.556928,39.018482 Z" id="Fill-48" fill="#F3580F"></path>
                <path d="M30.0198107,28.3521629 L32.9753834,28.3521629 L32.9753834,25.2015084 L30.0198107,25.2015084 L30.0198107,28.3521629 Z M30.0198107,24.7777591 L32.9753834,24.7777591 L32.9753834,21.6271046 L30.0198107,21.6271046 L30.0198107,24.7777591 Z M30.0198107,21.2013935 L32.9753834,21.2013935 L32.9753834,18.0154266 L30.0198107,18.0154266 L30.0198107,21.2013935 Z M26.703891,31.9618791 L29.6267049,31.9618791 L29.6267049,28.7759122 L26.703891,28.7759122 L26.703891,31.9618791 Z M26.703891,28.3521629 L29.6267049,28.3521629 L29.6267049,25.2015084 L26.703891,25.2015084 L26.703891,28.3521629 Z M26.703891,24.7777591 L29.6267049,24.7777591 L29.6267049,21.6271046 L26.703891,21.6271046 L26.703891,24.7777591 Z M26.703891,21.2013935 L29.6267049,21.2013935 L29.6267049,18.0154266 L26.703891,18.0154266 L26.703891,21.2013935 Z M26.703891,17.5916773 L29.6267049,17.5916773 L29.6267049,14.4410228 L26.703891,14.4410228 L26.703891,17.5916773 Z M23.3533926,35.5362829 L26.3089653,35.5362829 L26.3089653,32.3875902 L23.3533926,32.3875902 L23.3533926,35.5362829 Z M23.3533926,31.9618791 L26.3089653,31.9618791 L26.3089653,28.7759122 L23.3533926,28.7759122 L23.3533926,31.9618791 Z M23.3533926,17.5916773 L26.3089653,17.5916773 L26.3089653,14.4410228 L23.3533926,14.4410228 L23.3533926,17.5916773 Z M23.3533926,14.0153117 L26.3089653,14.0153117 L26.3089653,10.8293448 L23.3533926,10.8293448 L23.3533926,14.0153117 Z M20.0374729,35.5362829 L22.9602868,35.5362829 L22.9602868,32.3875902 L20.0374729,32.3875902 L20.0374729,35.5362829 Z M20.0374729,14.0153117 L22.9602868,14.0153117 L22.9602868,10.8293448 L20.0374729,10.8293448 L20.0374729,14.0153117 Z M16.7215532,35.5362829 L19.6443672,35.5362829 L19.6443672,32.3875902 L16.7215532,32.3875902 L16.7215532,35.5362829 Z M16.7215532,14.0153117 L19.6443672,14.0153117 L19.6443672,10.8293448 L16.7215532,10.8293448 L16.7215532,14.0153117 Z M13.3710548,35.5362829 L16.3266276,35.5362829 L16.3266276,32.3875902 L13.3710548,32.3875902 L13.3710548,35.5362829 Z M13.3710548,31.9618791 L16.3266276,31.9618791 L16.3266276,28.7759122 L13.3710548,28.7759122 L13.3710548,31.9618791 Z M13.3710548,17.5916773 L16.3266276,17.5916773 L16.3266276,14.4410228 L13.3710548,14.4410228 L13.3710548,17.5916773 Z M13.3710548,14.0153117 L16.3266276,14.0153117 L16.3266276,10.8293448 L13.3710548,10.8293448 L13.3710548,14.0153117 Z M10.0551351,31.9618791 L12.9779491,31.9618791 L12.9779491,28.7759122 L10.0551351,28.7759122 L10.0551351,31.9618791 Z M10.0551351,28.3521629 L12.9779491,28.3521629 L12.9779491,25.2015084 L10.0551351,25.2015084 L10.0551351,28.3521629 Z M10.0551351,24.7777591 L12.9779491,24.7777591 L12.9779491,21.6271046 L10.0551351,21.6271046 L10.0551351,24.7777591 Z M10.0551351,21.2013935 L12.9779491,21.2013935 L12.9779491,18.0154266 L10.0551351,18.0154266 L10.0551351,21.2013935 Z M10.0551351,17.5916773 L12.9779491,17.5916773 L12.9779491,14.4410228 L10.0551351,14.4410228 L10.0551351,17.5916773 Z M6.70463671,28.3521629 L9.66020946,28.3521629 L9.66020946,25.2015084 L6.70463671,25.2015084 L6.70463671,28.3521629 Z M6.70463671,24.7777591 L9.66020946,24.7777591 L9.66020946,21.6271046 L6.70463671,21.6271046 L6.70463671,24.7777591 Z M6.70463671,21.2013935 L9.66020946,21.2013935 L9.66020946,18.0154266 L6.70463671,18.0154266 L6.70463671,21.2013935 Z" id="Fill-49" fill="#FEFEFE"></path>
                <path d="M50.1027819,21.2013935 L53.0583547,21.2013935 L53.0583547,18.0154266 L50.1027819,18.0154266 L50.1027819,21.2013935 Z M50.1027819,17.5916773 L53.0583547,17.5916773 L53.0583547,14.4410228 L50.1027819,14.4410228 L50.1027819,17.5916773 Z M46.7868622,24.7777591 L49.7096762,24.7777591 L49.7096762,21.6271046 L46.7868622,21.6271046 L46.7868622,24.7777591 Z M46.7868622,21.2013935 L49.7096762,21.2013935 L49.7096762,18.0154266 L46.7868622,18.0154266 L46.7868622,21.2013935 Z M46.7868622,17.5916773 L49.7096762,17.5916773 L49.7096762,14.4410228 L46.7868622,14.4410228 L46.7868622,17.5916773 Z M46.7868622,14.0153117 L49.7096762,14.0153117 L49.7096762,10.8293448 L46.7868622,10.8293448 L46.7868622,14.0153117 Z M43.4691226,24.7777591 L46.3919366,24.7777591 L46.3919366,21.6271046 L43.4691226,21.6271046 L43.4691226,24.7777591 Z M43.4691226,14.0153117 L46.3919366,14.0153117 L46.3919366,10.8293448 L43.4691226,10.8293448 L43.4691226,14.0153117 Z M40.1204441,24.7777591 L43.0760169,24.7777591 L43.0760169,21.6271046 L40.1204441,21.6271046 L40.1204441,24.7777591 Z M40.1204441,14.0153117 L43.0760169,14.0153117 L43.0760169,10.8293448 L40.1204441,10.8293448 L40.1204441,14.0153117 Z M36.8027045,35.5362829 L39.7255185,35.5362829 L39.7255185,32.3875902 L36.8027045,32.3875902 L36.8027045,35.5362829 Z M36.8027045,31.9618791 L39.7255185,31.9618791 L39.7255185,28.7759122 L36.8027045,28.7759122 L36.8027045,31.9618791 Z M36.8027045,28.3521629 L39.7255185,28.3521629 L39.7255185,25.2015084 L36.8027045,25.2015084 L36.8027045,28.3521629 Z M36.8027045,24.7777591 L39.7255185,24.7777591 L39.7255185,21.6271046 L36.8027045,21.6271046 L36.8027045,24.7777591 Z M36.8027045,21.2013935 L39.7255185,21.2013935 L39.7255185,18.0154266 L36.8027045,18.0154266 L36.8027045,21.2013935 Z M36.8027045,17.5916773 L39.7255185,17.5916773 L39.7255185,14.4410228 L36.8027045,14.4410228 L36.8027045,17.5916773 Z M36.8027045,14.0153117 L39.7255185,14.0153117 L39.7255185,10.8293448 L36.8027045,10.8293448 L36.8027045,14.0153117 Z M33.454026,35.5362829 L36.4095988,35.5362829 L36.4095988,32.3875902 L33.454026,32.3875902 L33.454026,35.5362829 Z M33.454026,31.9618791 L36.4095988,31.9618791 L36.4095988,28.7759122 L33.454026,28.7759122 L33.454026,31.9618791 Z M33.454026,28.3521629 L36.4095988,28.3521629 L36.4095988,25.2015084 L33.454026,25.2015084 L33.454026,28.3521629 Z M33.454026,24.7777591 L36.4095988,24.7777591 L36.4095988,21.6271046 L33.454026,21.6271046 L33.454026,24.7777591 Z M33.454026,21.2013935 L36.4095988,21.2013935 L36.4095988,18.0154266 L33.454026,18.0154266 L33.454026,21.2013935 Z M33.454026,17.5916773 L36.4095988,17.5916773 L36.4095988,14.4410228 L33.454026,14.4410228 L33.454026,17.5916773 Z M33.454026,14.0153117 L36.4095988,14.0153117 L36.4095988,10.8293448 L33.454026,10.8293448 L33.454026,14.0153117 Z" id="Fill-50" fill="#FEFEFE"></path>
                <path d="M69.99648,14.0153117 L72.919294,14.0153117 L72.919294,10.8293448 L69.99648,10.8293448 L69.99648,14.0153117 Z M66.7133192,14.0153117 L69.6361331,14.0153117 L69.6361331,10.8293448 L66.7133192,10.8293448 L66.7133192,14.0153117 Z M63.3955796,35.5362829 L66.3183935,35.5362829 L66.3183935,32.3875902 L63.3955796,32.3875902 L63.3955796,35.5362829 Z M63.3955796,31.9618791 L66.3183935,31.9618791 L66.3183935,28.7759122 L63.3955796,28.7759122 L63.3955796,31.9618791 Z M63.3955796,28.3521629 L66.3183935,28.3521629 L66.3183935,25.2015084 L63.3955796,25.2015084 L63.3955796,28.3521629 Z M63.3955796,24.7777591 L66.3183935,24.7777591 L66.3183935,21.6271046 L63.3955796,21.6271046 L63.3955796,24.7777591 Z M63.3955796,21.2013935 L66.3183935,21.2013935 L66.3183935,18.0154266 L63.3955796,18.0154266 L63.3955796,21.2013935 Z M63.3955796,17.5916773 L66.3183935,17.5916773 L66.3183935,14.4410228 L63.3955796,14.4410228 L63.3955796,17.5916773 Z M63.3955796,14.0153117 L66.3183935,14.0153117 L66.3183935,10.8293448 L63.3955796,10.8293448 L63.3955796,14.0153117 Z M60.0450811,35.5362829 L63.0006539,35.5362829 L63.0006539,32.3875902 L60.0450811,32.3875902 L60.0450811,35.5362829 Z M60.0450811,31.9618791 L63.0006539,31.9618791 L63.0006539,28.7759122 L60.0450811,28.7759122 L60.0450811,31.9618791 Z M60.0450811,28.3521629 L63.0006539,28.3521629 L63.0006539,25.2015084 L60.0450811,25.2015084 L60.0450811,28.3521629 Z M60.0450811,24.7777591 L63.0006539,24.7777591 L63.0006539,21.6271046 L60.0450811,21.6271046 L60.0450811,24.7777591 Z M60.0450811,21.2013935 L63.0006539,21.2013935 L63.0006539,18.0154266 L60.0450811,18.0154266 L60.0450811,21.2013935 Z M60.0450811,17.5916773 L63.0006539,17.5916773 L63.0006539,14.4410228 L60.0450811,14.4410228 L60.0450811,17.5916773 Z M60.0450811,14.0153117 L63.0006539,14.0153117 L63.0006539,10.8293448 L60.0450811,10.8293448 L60.0450811,14.0153117 Z M56.7291615,14.0153117 L59.6519754,14.0153117 L59.6519754,10.8293448 L56.7291615,10.8293448 L56.7291615,14.0153117 Z M53.380483,14.0153117 L56.3360557,14.0153117 L56.3360557,10.8293448 L53.380483,10.8293448 L53.380483,14.0153117 Z" id="Fill-51" fill="#FEFEFE"></path>
                <path d="M76.8012131,35.5362829 L79.7222071,35.5362829 L79.7222071,32.3875902 L76.8012131,32.3875902 L76.8012131,35.5362829 Z M76.8012131,31.9618791 L79.7222071,31.9618791 L79.7222071,28.7759122 L76.8012131,28.7759122 L76.8012131,31.9618791 Z M76.8012131,28.3521629 L79.7222071,28.3521629 L79.7222071,25.2015084 L76.8012131,25.2015084 L76.8012131,28.3521629 Z M76.8012131,24.7777591 L79.7222071,24.7777591 L79.7222071,21.6271046 L76.8012131,21.6271046 L76.8012131,24.7777591 Z M76.8012131,21.2013935 L79.7222071,21.2013935 L79.7222071,18.0154266 L76.8012131,18.0154266 L76.8012131,21.2013935 Z M76.8012131,17.5916773 L79.7222071,17.5916773 L79.7222071,14.4410228 L76.8012131,14.4410228 L76.8012131,17.5916773 Z M76.8012131,14.0153117 L79.7222071,14.0153117 L79.7222071,10.8293448 L76.8012131,10.8293448 L76.8012131,14.0153117 Z M73.4488947,35.5362829 L76.4044675,35.5362829 L76.4044675,32.3875902 L73.4488947,32.3875902 L73.4488947,35.5362829 Z M73.4488947,31.9618791 L76.4044675,31.9618791 L76.4044675,28.7759122 L73.4488947,28.7759122 L73.4488947,31.9618791 Z M73.4488947,28.3521629 L76.4044675,28.3521629 L76.4044675,25.2015084 L73.4488947,25.2015084 L73.4488947,28.3521629 Z M73.4488947,24.7777591 L76.4044675,24.7777591 L76.4044675,21.6271046 L73.4488947,21.6271046 L73.4488947,24.7777591 Z M73.4488947,21.2013935 L76.4044675,21.2013935 L76.4044675,18.0154266 L73.4488947,18.0154266 L73.4488947,21.2013935 Z M73.4488947,17.5916773 L76.4044675,17.5916773 L76.4044675,14.4410228 L73.4488947,14.4410228 L73.4488947,17.5916773 Z M73.4488947,14.0153117 L76.4044675,14.0153117 L76.4044675,10.8293448 L73.4488947,10.8293448 L73.4488947,14.0153117 Z" id="Fill-52" fill="#FEFEFE"></path>
                <path d="M106.780985,28.3521629 L109.736558,28.3521629 L109.736558,25.2015084 L106.780985,25.2015084 L106.780985,28.3521629 Z M106.780985,24.7777591 L109.736558,24.7777591 L109.736558,21.6271046 L106.780985,21.6271046 L106.780985,24.7777591 Z M106.780985,21.2013935 L109.736558,21.2013935 L109.736558,18.0154266 L106.780985,18.0154266 L106.780985,21.2013935 Z M103.463246,31.9618791 L106.38606,31.9618791 L106.38606,28.7759122 L103.463246,28.7759122 L103.463246,31.9618791 Z M103.463246,28.3521629 L106.38606,28.3521629 L106.38606,25.2015084 L103.463246,25.2015084 L103.463246,28.3521629 Z M103.463246,24.7777591 L106.38606,24.7777591 L106.38606,21.6271046 L103.463246,21.6271046 L103.463246,24.7777591 Z M103.463246,21.2013935 L106.38606,21.2013935 L106.38606,18.0154266 L103.463246,18.0154266 L103.463246,21.2013935 Z M103.463246,17.5916773 L106.38606,17.5916773 L106.38606,14.4410228 L103.463246,14.4410228 L103.463246,17.5916773 Z M100.114567,35.5362829 L103.07014,35.5362829 L103.07014,32.3875902 L100.114567,32.3875902 L100.114567,35.5362829 Z M100.114567,31.9618791 L103.07014,31.9618791 L103.07014,28.7759122 L100.114567,28.7759122 L100.114567,31.9618791 Z M100.114567,17.5916773 L103.07014,17.5916773 L103.07014,14.4410228 L100.114567,14.4410228 L100.114567,17.5916773 Z M100.114567,14.0153117 L103.07014,14.0153117 L103.07014,10.8293448 L100.114567,10.8293448 L100.114567,14.0153117 Z M96.7986475,35.5362829 L99.7214614,35.5362829 L99.7214614,32.3875902 L96.7986475,32.3875902 L96.7986475,35.5362829 Z M96.7986475,14.0153117 L99.7214614,14.0153117 L99.7214614,10.8293448 L96.7986475,10.8293448 L96.7986475,14.0153117 Z M93.4827278,35.5362829 L96.4037218,35.5362829 L96.4037218,32.3875902 L93.4827278,32.3875902 L93.4827278,35.5362829 Z M93.4827278,14.0153117 L96.4037218,14.0153117 L96.4037218,10.8293448 L93.4827278,10.8293448 L93.4827278,14.0153117 Z M90.1322294,35.5362829 L93.0878021,35.5362829 L93.0878021,32.3875902 L90.1322294,32.3875902 L90.1322294,35.5362829 Z M90.1322294,31.9618791 L93.0878021,31.9618791 L93.0878021,28.7759122 L90.1322294,28.7759122 L90.1322294,31.9618791 Z M90.1322294,17.5916773 L93.0878021,17.5916773 L93.0878021,14.4410228 L90.1322294,14.4410228 L90.1322294,17.5916773 Z M90.1322294,14.0153117 L93.0878021,14.0153117 L93.0878021,10.8293448 L90.1322294,10.8293448 L90.1322294,14.0153117 Z M86.8163097,31.9618791 L89.7373037,31.9618791 L89.7373037,28.7759122 L86.8163097,28.7759122 L86.8163097,31.9618791 Z M86.8163097,28.3521629 L89.7373037,28.3521629 L89.7373037,25.2015084 L86.8163097,25.2015084 L86.8163097,28.3521629 Z M86.8163097,24.7777591 L89.7373037,24.7777591 L89.7373037,21.6271046 L86.8163097,21.6271046 L86.8163097,24.7777591 Z M86.8163097,21.2013935 L89.7373037,21.2013935 L89.7373037,18.0154266 L86.8163097,18.0154266 L86.8163097,21.2013935 Z M86.8163097,17.5916773 L89.7373037,17.5916773 L89.7373037,14.4410228 L86.8163097,14.4410228 L86.8163097,17.5916773 Z M83.4658113,28.3521629 L86.421384,28.3521629 L86.421384,25.2015084 L83.4658113,25.2015084 L83.4658113,28.3521629 Z M83.4658113,24.7777591 L86.421384,24.7777591 L86.421384,21.6271046 L83.4658113,21.6271046 L83.4658113,24.7777591 Z M83.4658113,21.2013935 L86.421384,21.2013935 L86.421384,18.0154266 L83.4658113,18.0154266 L83.4658113,21.2013935 Z" id="Fill-53" fill="#FEFEFE"></path>
                <path d="M126.889436,35.5362829 L129.812249,35.5362829 L129.812249,32.3875902 L126.889436,32.3875902 L126.889436,35.5362829 Z M126.889436,31.9618791 L129.812249,31.9618791 L129.812249,28.7759122 L126.889436,28.7759122 L126.889436,31.9618791 Z M126.889436,28.3521629 L129.812249,28.3521629 L129.812249,25.2015084 L126.889436,25.2015084 L126.889436,28.3521629 Z M126.889436,24.7777591 L129.812249,24.7777591 L129.812249,21.6271046 L126.889436,21.6271046 L126.889436,24.7777591 Z M126.889436,21.2013935 L129.812249,21.2013935 L129.812249,18.0154266 L126.889436,18.0154266 L126.889436,21.2013935 Z M126.889436,17.5916773 L129.812249,17.5916773 L129.812249,14.4410228 L126.889436,14.4410228 L126.889436,17.5916773 Z M126.889436,14.0153117 L129.812249,14.0153117 L129.812249,10.8293448 L126.889436,10.8293448 L126.889436,14.0153117 Z M123.573516,31.9618791 L126.49633,31.9618791 L126.49633,28.7759122 L123.573516,28.7759122 L123.573516,31.9618791 Z M123.573516,28.3521629 L126.49633,28.3521629 L126.49633,25.2015084 L123.573516,25.2015084 L123.573516,28.3521629 Z M123.573516,24.7777591 L126.49633,24.7777591 L126.49633,21.6271046 L123.573516,21.6271046 L123.573516,24.7777591 Z M120.223017,28.3521629 L123.17859,28.3521629 L123.17859,25.2015084 L120.223017,25.2015084 L120.223017,28.3521629 Z M120.223017,24.7777591 L123.17859,24.7777591 L123.17859,21.6271046 L120.223017,21.6271046 L120.223017,24.7777591 Z M120.223017,21.2013935 L123.17859,21.2013935 L123.17859,18.0154266 L120.223017,18.0154266 L120.223017,21.2013935 Z M116.908918,24.7777591 L119.829912,24.7777591 L119.829912,21.6271046 L116.908918,21.6271046 L116.908918,24.7777591 Z M116.908918,21.2013935 L119.829912,21.2013935 L119.829912,18.0154266 L116.908918,18.0154266 L116.908918,21.2013935 Z M116.908918,17.5916773 L119.829912,17.5916773 L119.829912,14.4410228 L116.908918,14.4410228 L116.908918,17.5916773 Z M113.556599,35.5362829 L116.512172,35.5362829 L116.512172,32.3875902 L113.556599,32.3875902 L113.556599,35.5362829 Z M113.556599,31.9618791 L116.512172,31.9618791 L116.512172,28.7759122 L113.556599,28.7759122 L113.556599,31.9618791 Z M113.556599,28.3521629 L116.512172,28.3521629 L116.512172,25.2015084 L113.556599,25.2015084 L113.556599,28.3521629 Z M113.556599,24.7777591 L116.512172,24.7777591 L116.512172,21.6271046 L113.556599,21.6271046 L113.556599,24.7777591 Z M113.556599,21.2013935 L116.512172,21.2013935 L116.512172,18.0154266 L113.556599,18.0154266 L113.556599,21.2013935 Z M113.556599,17.5916773 L116.512172,17.5916773 L116.512172,14.4410228 L113.556599,14.4410228 L113.556599,17.5916773 Z M113.556599,14.0153117 L116.512172,14.0153117 L116.512172,10.8293448 L113.556599,10.8293448 L113.556599,14.0153117 Z" id="Fill-54" fill="#FEFEFE"></path>
                <path d="M146.768574,31.9618791 L149.691388,31.9618791 L149.691388,28.7759122 L146.768574,28.7759122 L146.768574,31.9618791 Z M146.768574,28.3521629 L149.691388,28.3521629 L149.691388,25.2015084 L146.768574,25.2015084 L146.768574,28.3521629 Z M146.768574,14.0153117 L149.691388,14.0153117 L149.691388,10.8293448 L146.768574,10.8293448 L146.768574,14.0153117 Z M143.452655,35.5362829 L146.375468,35.5362829 L146.375468,32.3875902 L143.452655,32.3875902 L143.452655,35.5362829 Z M143.452655,31.9618791 L146.375468,31.9618791 L146.375468,28.7759122 L143.452655,28.7759122 L143.452655,31.9618791 Z M143.452655,28.3521629 L146.375468,28.3521629 L146.375468,25.2015084 L143.452655,25.2015084 L143.452655,28.3521629 Z M143.452655,24.7777591 L146.375468,24.7777591 L146.375468,21.6271046 L143.452655,21.6271046 L143.452655,24.7777591 Z M143.452655,14.0153117 L146.375468,14.0153117 L146.375468,10.8293448 L143.452655,10.8293448 L143.452655,14.0153117 Z M140.102156,35.5362829 L143.057729,35.5362829 L143.057729,32.3875902 L140.102156,32.3875902 L140.102156,35.5362829 Z M140.102156,28.3521629 L143.02497,28.3521629 L143.02497,25.2015084 L140.102156,25.2015084 L140.102156,28.3521629 Z M140.102156,24.7777591 L143.057729,24.7777591 L143.057729,21.6271046 L140.102156,21.6271046 L140.102156,24.7777591 Z M140.102156,21.2013935 L143.057729,21.2013935 L143.057729,18.0154266 L140.102156,18.0154266 L140.102156,21.2013935 Z M140.102156,14.0153117 L143.057729,14.0153117 L143.057729,10.8293448 L140.102156,10.8293448 L140.102156,14.0153117 Z M136.784416,35.5362829 L139.70723,35.5362829 L139.70723,32.3875902 L136.784416,32.3875902 L136.784416,35.5362829 Z M136.784416,24.7777591 L139.70723,24.7777591 L139.70723,21.6271046 L136.784416,21.6271046 L136.784416,24.7777591 Z M136.784416,21.2013935 L139.70723,21.2013935 L139.70723,18.0154266 L136.784416,18.0154266 L136.784416,21.2013935 Z M136.784416,17.5916773 L139.70723,17.5916773 L139.70723,14.4410228 L136.784416,14.4410228 L136.784416,17.5916773 Z M136.784416,14.0153117 L139.70723,14.0153117 L139.70723,10.8293448 L136.784416,10.8293448 L136.784416,14.0153117 Z M133.435738,35.5362829 L136.391311,35.5362829 L136.391311,32.3875902 L133.435738,32.3875902 L133.435738,35.5362829 Z M133.435738,21.2013935 L136.391311,21.2013935 L136.391311,18.0154266 L133.435738,18.0154266 L133.435738,21.2013935 Z M133.435738,17.5916773 L136.391311,17.5916773 L136.391311,14.4410228 L133.435738,14.4410228 L133.435738,17.5916773 Z" id="Fill-55" fill="#FEFEFE"></path>
            </g>
        </g>
    </g>
</svg>