<?xml version="1.0" encoding="UTF-8"?>
<svg width="184px" height="193px" viewBox="0 0 184 193" version="1.1" xmlns="http://www.w3.org/2000/svg" xmlns:xlink="http://www.w3.org/1999/xlink">
    <!-- Generator: Sketch 45.2 (43514) - http://www.bohemiancoding.com/sketch -->
    <title>Ship</title>
    <desc>Created with Sketch.</desc>
    <defs>
        <linearGradient x1="-1.45813857%" y1="-17.0496691%" x2="-1.4581386%" y2="80.4248674%" id="linearGradient-1">
            <stop stop-color="#3023AE" stop-opacity="0" offset="0%"></stop>
            <stop stop-color="#5ABBAC" offset="85.2539062%"></stop>
            <stop stop-color="#5ABBAC" offset="100%"></stop>
        </linearGradient>
    </defs>
    <g id="Page-1" stroke="none" stroke-width="1" fill="none" fill-rule="evenodd">
        <g id="Mobile" transform="translate(-100.000000, -267.000000)">
            <g id="Ship" transform="translate(100.200000, 267.000000)">
                <g id="Page-1" transform="translate(0.000000, 48.600000)">
                    <polygon id="Fill-1" fill="#5ABBAC" points="77.360883 64.2574654 108.370092 64.2574654 108.370092 33.2482564 77.360883 33.2482564"></polygon>
                    <polygon id="Fill-2" fill="#E7E7E7" points="77.360883 139.231855 108.370092 139.231855 108.370092 108.222646 77.360883 108.222646"></polygon>
                    <polygon id="Fill-3" fill="#E7E7E7" points="112.935337 103.87021 143.944546 103.87021 143.944546 72.8610009 112.935337 72.8610009"></polygon>
                    <polygon id="Fill-4" fill="#E7E7E7" points="77.3659498 103.87021 108.375159 103.87021 108.375159 72.8610009 77.3659498 72.8610009"></polygon>
                    <polygon id="Fill-5" fill="#E7E7E7" points="40.7325215 103.87021 71.7417305 103.87021 71.7417305 72.8610009 40.7325215 72.8610009"></polygon>
                    <polygon id="Fill-6" fill="#E7E7E7" points="112.937363 108.224673 143.946572 108.224673 112.937363 139.233882"></polygon>
                    <polygon id="Fill-7" fill="#E7E7E7" points="40.7345482 108.224673 71.7437573 108.224673 71.7437573 139.233882"></polygon>
                    <polygon id="Fill-8" fill="#E7E7E7" points="77.360883 67.6725319 108.370092 67.6725319 108.370092 36.6633228 77.360883 36.6633228"></polygon>
                    <polygon id="Fill-9" fill="#E7E7E7" points="112.937363 36.6628162 143.946572 67.6720252 112.937363 67.6720252"></polygon>
                    <polygon id="Fill-10" fill="#E7E7E7" points="71.7417305 36.6628162 71.7417305 67.6720252 40.7325215 67.6720252"></polygon>
                    <polygon id="Fill-11" fill="#5ABBAC" points="156.915718 115.929347 169.243399 115.929347 169.243399 31.1201734 156.915718 31.1201734"></polygon>
                    <polygon id="Fill-12" fill="#5ABBAC" points="147.576474 0.00202674569 147.571407 36.0020971 183.63228 36.0020971 147.581541 0.00202674569"></polygon>
                    <polygon id="Fill-13" fill="#E7E7E7" points="147.571407 36.0046305 147.571407 4.99542144 178.580616 36.0046305"></polygon>
                    <polygon id="Fill-14" fill="#B21646" points="147.571914 108.301689 147.576981 144.306827 183.632787 108.301689"></polygon>
                    <polygon id="Fill-15" fill="#E7E7E7" points="147.571914 108.301689 147.571914 139.310898 178.581123 108.301689"></polygon>
                    <polygon id="Fill-16" fill="#E7E7E7" points="147.572421 103.87021 178.58163 103.87021 178.58163 72.8610009 147.572421 72.8610009"></polygon>
                    <polygon id="Fill-17" fill="#5ABBAC" points="14.3949613 115.929347 26.7226419 115.929347 26.7226419 31.1201734 14.3949613 31.1201734"></polygon>
                    <polygon id="Fill-18" fill="#5ABBAC" points="36.0527657 0.00202674569 0.00202674569 36.0020971 36.0628994 36.0020971 36.0578326 0.00202674569"></polygon>
                    <polygon id="Fill-19" fill="#E7E7E7" points="5.052677 36.0046305 36.0618861 36.0046305 36.0618861 4.99542144"></polygon>
                    <polygon id="Fill-20" fill="#B21646" points="0 108.301689 36.0558058 144.306827 36.0608727 108.301689"></polygon>
                    <polygon id="Fill-21" fill="#E7E7E7" points="5.052677 108.301689 36.0618861 139.310898 36.0618861 108.301689"></polygon>
                    <polygon id="Fill-22" fill="#E7E7E7" points="5.05166363 103.87021 36.0608727 103.87021 36.0608727 72.8660677 5.05166363 72.8660677"></polygon>
                </g>
                <path d="M157.753551,14.0593879 L171.970577,14.0593879 L171.970577,0 L157.753551,0 L157.753551,14.0593879 Z M126.009088,14.0593879 L140.231041,14.0593879 L140.231041,0 L126.009088,0 L126.009088,14.0593879 Z M93.7178172,14.0593879 L107.93977,14.0593879 L107.93977,0 L93.7178172,0 L93.7178172,14.0593879 Z M77.8258812,14.0593879 L91.8852691,14.0593879 L91.8852691,0 L77.8258812,0 L77.8258812,14.0593879 Z M45.53461,14.0593879 L59.5989242,14.0593879 L59.5989242,0 L45.53461,0 L45.53461,14.0593879 Z M13.8,14.0593879 L27.8593879,14.0593879 L27.8593879,0 L13.8,0 L13.8,14.0593879 Z M142.122704,30.1730032 L156.182092,30.1730032 L156.182092,15.9559767 L142.122704,15.9559767 L142.122704,30.1730032 Z M126.009088,30.1730032 L140.231041,30.1730032 L140.231041,15.9559767 L126.009088,15.9559767 L126.009088,30.1730032 Z M109.841285,30.1730032 L123.900673,30.1730032 L123.900673,15.9559767 L109.841285,15.9559767 L109.841285,30.1730032 Z M93.7178172,30.1730032 L107.93977,30.1730032 L107.93977,15.9559767 L93.7178172,15.9559767 L93.7178172,30.1730032 Z M77.8258812,30.1730032 L91.8852691,30.1730032 L91.8852691,15.9559767 L77.8258812,15.9559767 L77.8258812,30.1730032 Z M61.7073397,30.1730032 L75.9292924,30.1730032 L75.9292924,15.9559767 L61.7073397,15.9559767 L61.7073397,30.1730032 Z M45.8400347,30.1730032 L60.0570612,30.1730032 L60.0570612,15.9559767 L45.8400347,15.9559767 L45.8400347,30.1730032 Z M29.9678035,30.1730032 L44.18483,30.1730032 L44.18483,15.9559767 L29.9678035,15.9559767 L29.9678035,30.1730032 Z M126.009088,46.1339061 L140.231041,46.1339061 L140.231041,32.069592 L126.009088,32.069592 L126.009088,46.1339061 Z M109.841285,46.1339061 L123.900673,46.1339061 L123.900673,32.069592 L109.841285,32.069592 L109.841285,46.1339061 Z M93.7178172,46.1339061 L107.93977,46.1339061 L107.93977,32.069592 L93.7178172,32.069592 L93.7178172,46.1339061 Z M77.8258812,46.1339061 L91.8852691,46.1339061 L91.8852691,32.069592 L77.8258812,32.069592 L77.8258812,46.1339061 Z M61.7073397,46.1339061 L75.9292924,46.1339061 L75.9292924,32.069592 L61.7073397,32.069592 L61.7073397,46.1339061 Z M45.8400347,46.1339061 L60.0570612,46.1339061 L60.0570612,32.069592 L45.8400347,32.069592 L45.8400347,46.1339061 Z M109.841285,62.094809 L123.900673,62.094809 L123.900673,48.0304949 L109.841285,48.0304949 L109.841285,62.094809 Z M93.7178172,62.094809 L107.93977,62.094809 L107.93977,48.0304949 L93.7178172,48.0304949 L93.7178172,62.094809 Z M77.8258812,62.094809 L91.8852691,62.094809 L91.8852691,48.0304949 L77.8258812,48.0304949 L77.8258812,62.094809 Z M61.9585762,62.094809 L76.0130379,62.094809 L76.0130379,48.0304949 L61.9585762,48.0304949 L61.9585762,62.094809 Z M93.7178172,78.203498 L107.93977,78.203498 L107.93977,63.9864716 L93.7178172,63.9864716 L93.7178172,78.203498 Z M77.8258812,78.203498 L91.8852691,78.203498 L91.8852691,63.9864716 L77.8258812,63.9864716 L77.8258812,78.203498 Z" id="Fill-2" fill="url(#linearGradient-1)"></path>
            </g>
        </g>
    </g>
</svg>