<?xml version="1.0" encoding="UTF-8"?>
<svg width="60px" height="63px" viewBox="0 0 60 63" version="1.1" xmlns="http://www.w3.org/2000/svg" xmlns:xlink="http://www.w3.org/1999/xlink">
    <!-- Generator: Sketch 45.2 (43514) - http://www.bohemiancoding.com/sketch -->
    <title>Ship Copy</title>
    <desc>Created with Sketch.</desc>
    <defs>
        <linearGradient x1="-1.45813857%" y1="-17.0496691%" x2="-1.4581386%" y2="80.4248674%" id="linearGradient-1">
            <stop stop-color="#3023AE" stop-opacity="0" offset="0%"></stop>
            <stop stop-color="#5ABBAC" offset="85.2539062%"></stop>
            <stop stop-color="#5ABBAC" offset="100%"></stop>
        </linearGradient>
    </defs>
    <g id="Page-1" stroke="none" stroke-width="1" fill="none" fill-rule="evenodd">
        <g id="live-screen" transform="translate(-111.000000, -1008.000000)">
            <g id="Ship-Copy" transform="translate(111.000000, 1008.000000)">
                <g id="Page-1" transform="translate(0.000000, 15.867017)">
                    <polygon id="Fill-1" fill="#5ABBAC" points="25.256922 20.9788944 35.380865 20.9788944 35.380865 10.8549513 25.256922 10.8549513"></polygon>
                    <polygon id="Fill-2" fill="#E7E7E7" points="25.256922 45.4566697 35.380865 45.4566697 35.380865 35.3327267 25.256922 35.3327267"></polygon>
                    <polygon id="Fill-3" fill="#E7E7E7" points="36.8713344 33.9117353 46.9952775 33.9117353 46.9952775 23.7877923 36.8713344 23.7877923"></polygon>
                    <polygon id="Fill-4" fill="#E7E7E7" points="25.2585762 33.9117353 35.3825193 33.9117353 35.3825193 23.7877923 25.2585762 23.7877923"></polygon>
                    <polygon id="Fill-5" fill="#E7E7E7" points="13.2984278 33.9117353 23.4223709 33.9117353 23.4223709 23.7877923 13.2984278 23.7877923"></polygon>
                    <polygon id="Fill-6" fill="#E7E7E7" points="36.8719961 35.3333884 46.9959392 35.3333884 36.8719961 45.4573314"></polygon>
                    <polygon id="Fill-7" fill="#E7E7E7" points="13.2990895 35.3333884 23.4230326 35.3333884 23.4230326 45.4573314"></polygon>
                    <polygon id="Fill-8" fill="#E7E7E7" points="25.256922 22.0938515 35.380865 22.0938515 35.380865 11.9699084 25.256922 11.9699084"></polygon>
                    <polygon id="Fill-9" fill="#E7E7E7" points="36.8719961 11.969743 46.9959392 22.0936861 36.8719961 22.0936861"></polygon>
                    <polygon id="Fill-10" fill="#E7E7E7" points="23.4223709 11.969743 23.4223709 22.0936861 13.2984278 22.0936861"></polygon>
                    <polygon id="Fill-11" fill="#5ABBAC" points="51.2301295 37.8488243 55.2548931 37.8488243 55.2548931 10.1601709 51.2301295 10.1601709"></polygon>
                    <polygon id="Fill-12" fill="#5ABBAC" points="48.1810361 0.000661695625 48.1793818 11.7540302 59.9526012 11.7540302 48.1826903 0.000661695625"></polygon>
                    <polygon id="Fill-13" fill="#E7E7E7" points="48.1793818 11.7548573 48.1793818 1.63091429 58.3033249 11.7548573"></polygon>
                    <polygon id="Fill-14" fill="#B21646" points="48.1795472 35.3585328 48.1812015 47.1135556 59.9527666 35.3585328"></polygon>
                    <polygon id="Fill-15" fill="#E7E7E7" points="48.1795472 35.3585328 48.1795472 45.4824759 58.3034903 35.3585328"></polygon>
                    <polygon id="Fill-16" fill="#E7E7E7" points="48.1797127 33.9117353 58.3036557 33.9117353 58.3036557 23.7877923 48.1797127 23.7877923"></polygon>
                    <polygon id="Fill-17" fill="#5ABBAC" points="4.69969317 37.8488243 8.72445681 37.8488243 8.72445681 10.1601709 4.69969317 10.1601709"></polygon>
                    <polygon id="Fill-18" fill="#5ABBAC" points="11.7705726 0.000661695625 0.000661695625 11.7540302 11.7738811 11.7540302 11.7722269 0.000661695625"></polygon>
                    <polygon id="Fill-19" fill="#E7E7E7" points="1.64960719 11.7548573 11.7735502 11.7548573 11.7735502 1.63091429"></polygon>
                    <polygon id="Fill-20" fill="#B21646" points="0 35.3585328 11.7715652 47.1135556 11.7732194 35.3585328"></polygon>
                    <polygon id="Fill-21" fill="#E7E7E7" points="1.64960719 35.3585328 11.7735502 45.4824759 11.7735502 35.3585328"></polygon>
                    <polygon id="Fill-22" fill="#E7E7E7" points="1.64927634 33.9117353 11.7732194 33.9117353 11.7732194 23.7894465 1.64927634 23.7894465"></polygon>
                </g>
                <path d="M51.5036666,4.59013458 L56.1452673,4.59013458 L56.1452673,0 L51.5036666,0 L51.5036666,4.59013458 Z M41.1396767,4.59013458 L45.7828857,4.59013458 L45.7828857,0 L41.1396767,0 L41.1396767,4.59013458 Z M30.5971637,4.59013458 L35.2403727,4.59013458 L35.2403727,0 L30.5971637,0 L30.5971637,4.59013458 Z M25.4087355,4.59013458 L29.99887,4.59013458 L29.99887,0 L25.4087355,0 L25.4087355,4.59013458 Z M14.8662224,4.59013458 L19.4579653,4.59013458 L19.4579653,0 L14.8662224,0 L14.8662224,4.59013458 Z M4.50544914,4.59013458 L9.09558372,4.59013458 L9.09558372,0 L4.50544914,0 L4.50544914,4.59013458 Z M46.4004792,9.85093704 L50.9906138,9.85093704 L50.9906138,5.20933634 L46.4004792,5.20933634 L46.4004792,9.85093704 Z M41.1396767,9.85093704 L45.7828857,9.85093704 L45.7828857,5.20933634 L41.1396767,5.20933634 L41.1396767,9.85093704 Z M35.8611828,9.85093704 L40.4513174,9.85093704 L40.4513174,5.20933634 L35.8611828,5.20933634 L35.8611828,9.85093704 Z M30.5971637,9.85093704 L35.2403727,9.85093704 L35.2403727,5.20933634 L30.5971637,5.20933634 L30.5971637,9.85093704 Z M25.4087355,9.85093704 L29.99887,9.85093704 L29.99887,5.20933634 L25.4087355,5.20933634 L25.4087355,9.85093704 Z M20.1463247,9.85093704 L24.7895337,9.85093704 L24.7895337,5.20933634 L20.1463247,5.20933634 L20.1463247,9.85093704 Z M14.965938,9.85093704 L19.6075387,9.85093704 L19.6075387,5.20933634 L14.965938,5.20933634 L14.965938,9.85093704 Z M9.78394307,9.85093704 L14.4255438,9.85093704 L14.4255438,5.20933634 L9.78394307,5.20933634 L9.78394307,9.85093704 Z M41.1396767,15.0618817 L45.7828857,15.0618817 L45.7828857,10.4701388 L41.1396767,10.4701388 L41.1396767,15.0618817 Z M35.8611828,15.0618817 L40.4513174,15.0618817 L40.4513174,10.4701388 L35.8611828,10.4701388 L35.8611828,15.0618817 Z M30.5971637,15.0618817 L35.2403727,15.0618817 L35.2403727,10.4701388 L30.5971637,10.4701388 L30.5971637,15.0618817 Z M25.4087355,15.0618817 L29.99887,15.0618817 L29.99887,10.4701388 L25.4087355,10.4701388 L25.4087355,15.0618817 Z M20.1463247,15.0618817 L24.7895337,15.0618817 L24.7895337,10.4701388 L20.1463247,10.4701388 L20.1463247,15.0618817 Z M14.965938,15.0618817 L19.6075387,15.0618817 L19.6075387,10.4701388 L14.965938,10.4701388 L14.965938,15.0618817 Z M35.8611828,20.2728263 L40.4513174,20.2728263 L40.4513174,15.6810835 L35.8611828,15.6810835 L35.8611828,20.2728263 Z M30.5971637,20.2728263 L35.2403727,20.2728263 L35.2403727,15.6810835 L30.5971637,15.6810835 L30.5971637,20.2728263 Z M25.4087355,20.2728263 L29.99887,20.2728263 L29.99887,15.6810835 L25.4087355,15.6810835 L25.4087355,20.2728263 Z M20.2283488,20.2728263 L24.8168751,20.2728263 L24.8168751,15.6810835 L20.2283488,15.6810835 L20.2283488,20.2728263 Z M30.5971637,25.5320205 L35.2403727,25.5320205 L35.2403727,20.8904198 L30.5971637,20.8904198 L30.5971637,25.5320205 Z M25.4087355,25.5320205 L29.99887,25.5320205 L29.99887,20.8904198 L25.4087355,20.8904198 L25.4087355,25.5320205 Z" id="Fill-2" fill="url(#linearGradient-1)"></path>
            </g>
        </g>
    </g>
</svg>