<?xml version="1.0" encoding="UTF-8"?>
<svg width="75px" height="130px" viewBox="0 0 75 130" version="1.1" xmlns="http://www.w3.org/2000/svg" xmlns:xlink="http://www.w3.org/1999/xlink">
    <!-- Generator: Sketch 45.2 (43514) - http://www.bohemiancoding.com/sketch -->
    <title>Page 1</title>
    <desc>Created with Sketch.</desc>
    <defs>
        <linearGradient x1="-1.45813857%" y1="-17.0496691%" x2="-1.4581386%" y2="80.4248674%" id="linearGradient-1">
            <stop stop-color="#3023AE" stop-opacity="0" offset="0%"></stop>
            <stop stop-color="#5ABBAC" offset="85.2539062%"></stop>
            <stop stop-color="#5ABBAC" offset="100%"></stop>
        </linearGradient>
    </defs>
    <g id="Page-1" stroke="none" stroke-width="1" fill="none" fill-rule="evenodd">
        <g id="Mobile-Copy-2" transform="translate(-73.000000, -928.000000)">
            <g id="Page-1" transform="translate(73.000000, 928.000000)">
                <polygon id="Fill-1" fill="#5ABBAC" points="65.3771022 122.514648 70.6069266 122.514648 70.6069266 67.0373008 65.3771022 67.0373008"></polygon>
                <path d="M65.7724546,6.44247192 L71.9734707,6.44247192 L71.9734707,0.310212751 L65.7724546,0.310212751 L65.7724546,6.44247192 Z M51.9265267,6.44247192 L58.1296915,6.44247192 L58.1296915,0.310212751 L51.9265267,0.310212751 L51.9265267,6.44247192 Z M37.8420983,6.44247192 L44.045263,6.44247192 L44.045263,0.310212751 L37.8420983,0.310212751 L37.8420983,6.44247192 Z M30.9105397,6.44247192 L37.0427989,6.44247192 L37.0427989,0.310212751 L30.9105397,0.310212751 L30.9105397,6.44247192 Z M16.8261113,6.44247192 L22.9605191,6.44247192 L22.9605191,0.310212751 L16.8261113,0.310212751 L16.8261113,6.44247192 Z M2.98448072,6.44247192 L9.11673989,6.44247192 L9.11673989,0.310212751 L2.98448072,0.310212751 L2.98448072,6.44247192 Z M58.9547747,13.4707199 L65.0870339,13.4707199 L65.0870339,7.2697038 L58.9547747,7.2697038 L58.9547747,13.4707199 Z M51.9265267,13.4707199 L58.1296915,13.4707199 L58.1296915,7.2697038 L51.9265267,7.2697038 L51.9265267,13.4707199 Z M44.8746436,13.4707199 L51.0069027,13.4707199 L51.0069027,7.2697038 L44.8746436,7.2697038 L44.8746436,13.4707199 Z M37.8420983,13.4707199 L44.045263,13.4707199 L44.045263,7.2697038 L37.8420983,7.2697038 L37.8420983,13.4707199 Z M30.9105397,13.4707199 L37.0427989,13.4707199 L37.0427989,7.2697038 L30.9105397,7.2697038 L30.9105397,13.4707199 Z M23.8801431,13.4707199 L30.0833079,13.4707199 L30.0833079,7.2697038 L23.8801431,7.2697038 L23.8801431,13.4707199 Z M16.9593278,13.4707199 L23.1603439,13.4707199 L23.1603439,7.2697038 L16.9593278,7.2697038 L16.9593278,13.4707199 Z M10.0363639,13.4707199 L16.23738,13.4707199 L16.23738,7.2697038 L10.0363639,7.2697038 L10.0363639,13.4707199 Z M51.9265267,20.4323596 L58.1296915,20.4323596 L58.1296915,14.2979518 L51.9265267,14.2979518 L51.9265267,20.4323596 Z M44.8746436,20.4323596 L51.0069027,20.4323596 L51.0069027,14.2979518 L44.8746436,14.2979518 L44.8746436,20.4323596 Z M37.8420983,20.4323596 L44.045263,20.4323596 L44.045263,14.2979518 L37.8420983,14.2979518 L37.8420983,20.4323596 Z M30.9105397,20.4323596 L37.0427989,20.4323596 L37.0427989,14.2979518 L30.9105397,14.2979518 L30.9105397,20.4323596 Z M23.8801431,20.4323596 L30.0833079,20.4323596 L30.0833079,14.2979518 L23.8801431,14.2979518 L23.8801431,20.4323596 Z M16.9593278,20.4323596 L23.1603439,20.4323596 L23.1603439,14.2979518 L16.9593278,14.2979518 L16.9593278,20.4323596 Z M44.8746436,27.3939993 L51.0069027,27.3939993 L51.0069027,21.2595915 L44.8746436,21.2595915 L44.8746436,27.3939993 Z M37.8420983,27.3939993 L44.045263,27.3939993 L44.045263,21.2595915 L37.8420983,21.2595915 L37.8420983,27.3939993 Z M30.9105397,27.3939993 L37.0427989,27.3939993 L37.0427989,21.2595915 L30.9105397,21.2595915 L30.9105397,27.3939993 Z M23.9897245,27.3939993 L30.119835,27.3939993 L30.119835,21.2595915 L23.9897245,21.2595915 L23.9897245,27.3939993 Z M37.8420983,34.4200986 L44.045263,34.4200986 L44.045263,28.2190825 L37.8420983,28.2190825 L37.8420983,34.4200986 Z M30.9105397,34.4200986 L37.0427989,34.4200986 L37.0427989,28.2190825 L30.9105397,28.2190825 L30.9105397,34.4200986 Z" id="Fill-2" fill="url(#linearGradient-1)"></path>
                <polygon id="Fill-4" fill="#5ABBAC" points="30.927729 48.4722973 44.0774928 48.4722973 44.0774928 35.3225334 30.927729 35.3225334"></polygon>
                <polygon id="Fill-6" fill="#E7E7E7" points="30.927729 96.2009846 44.0774928 96.2009846 44.0774928 83.0512207 30.927729 83.0512207"></polygon>
                <polygon id="Fill-7" fill="#E7E7E7" points="30.927729 126.473374 44.0774928 126.473374 44.0774928 113.32361 30.927729 113.32361"></polygon>
                <polygon id="Fill-8" fill="#E7E7E7" points="46.0134303 111.413457 59.1610455 111.413457 59.1610455 98.2636927 46.0134303 98.2636927"></polygon>
                <polygon id="Fill-9" fill="#E7E7E7" points="30.927729 111.413457 44.0774928 111.413457 44.0774928 98.2636927 30.927729 98.2636927"></polygon>
                <polygon id="Fill-10" fill="#E7E7E7" points="15.3951075 111.413457 28.5427228 111.413457 28.5427228 98.2636927 15.3951075 98.2636927"></polygon>
                <polygon id="Fill-11" fill="#E7E7E7" points="30.927729 80.4335289 44.0774928 80.4335289 44.0774928 67.2837651 30.927729 67.2837651"></polygon>
                <polygon id="Fill-12" fill="#E7E7E7" points="46.0134303 65.270476 59.1610455 65.270476 59.1610455 52.1207122 46.0134303 52.1207122"></polygon>
                <polygon id="Fill-13" fill="#E7E7E7" points="30.927729 65.270476 44.0774928 65.270476 44.0774928 52.1207122 30.927729 52.1207122"></polygon>
                <polygon id="Fill-14" fill="#E7E7E7" points="15.3951075 65.270476 28.5427228 65.270476 28.5427228 52.1207122 15.3951075 52.1207122"></polygon>
                <polygon id="Fill-15" fill="#E7E7E7" points="46.0136452 67.2831205 59.1612604 67.2831205 46.0136452 80.4328843"></polygon>
                <polygon id="Fill-16" fill="#E7E7E7" points="15.3953224 67.2831205 28.5429376 67.2831205 28.5429376 80.4328843"></polygon>
                <polygon id="Fill-17" fill="#E7E7E7" points="46.0136452 113.323825 59.1612604 113.323825 46.0136452 126.473589"></polygon>
                <polygon id="Fill-18" fill="#E7E7E7" points="15.3953224 113.323825 28.5429376 113.323825 28.5429376 126.473589"></polygon>
                <polygon id="Fill-19" fill="#E7E7E7" points="30.927729 49.8732198 44.0774928 49.8732198 44.0774928 36.723456 30.927729 36.723456"></polygon>
                <polygon id="Fill-20" fill="#E7E7E7" points="46.0136452 36.7225965 59.1612604 49.8723604 46.0136452 49.8723604"></polygon>
                <polygon id="Fill-21" fill="#E7E7E7" points="28.5431525 36.7225965 28.5431525 49.8723604 15.3955373 49.8723604"></polygon>
                <polygon id="Fill-22" fill="#5ABBAC" points="61.4149838 78.7345744 74.5647477 78.7345744 74.5647477 65.5848105 61.4149838 65.5848105"></polygon>
                <polygon id="Fill-23" fill="#E7E7E7" points="61.4149838 96.198836 74.5647477 96.198836 74.5647477 83.0490721 61.4149838 83.0490721"></polygon>
                <polygon id="Fill-24" fill="#E7E7E7" points="61.4149838 81.1324725 74.5647477 81.1324725 74.5647477 67.9827086 61.4149838 67.9827086"></polygon>
                <polygon id="Fill-25" fill="#E7E7E7" points="61.4149838 111.415605 74.5647477 111.415605 74.5647477 98.2658413 61.4149838 98.2658413"></polygon>
                <polygon id="Fill-27" fill="#B21646" points="61 129.147615 74.1497639 129.147615 74.1497639 116 61 116"></polygon>
                <polygon id="Fill-28" fill="#E7E7E7" points="61 126.149764 74.1497639 126.149764 74.1497639 113 61 113"></polygon>
                <polygon id="Fill-29" fill="#5ABBAC" points="3.9621184 122.514648 9.18979414 122.514648 9.18979414 67.0373008 3.9621184 67.0373008"></polygon>
                <polygon id="Fill-30" fill="#5ABBAC" points="0 78.7345744 13.1497639 78.7345744 13.1497639 65.5848105 0 65.5848105"></polygon>
                <polygon id="Fill-31" fill="#E7E7E7" points="0 96.198836 13.1497639 96.198836 13.1497639 83.0490721 0 83.0490721"></polygon>
                <polygon id="Fill-32" fill="#E7E7E7" points="0 81.1324725 13.1497639 81.1324725 13.1497639 67.9827086 0 67.9827086"></polygon>
                <polygon id="Fill-33" fill="#E7E7E7" points="0 111.415605 13.1497639 111.415605 13.1497639 98.2658413 0 98.2658413"></polygon>
                <polygon id="Fill-35" fill="#B21646" points="0 129.147615 13.1497639 129.147615 13.1497639 116 0 116"></polygon>
                <polygon id="Fill-36" fill="#E7E7E7" points="0 126.149764 13.1497639 126.149764 13.1497639 113 0 113"></polygon>
            </g>
        </g>
    </g>
</svg>