<?xml version="1.0" encoding="UTF-8"?>
<svg width="214px" height="64px" viewBox="0 0 214 64" version="1.1" xmlns="http://www.w3.org/2000/svg" xmlns:xlink="http://www.w3.org/1999/xlink">
    <!-- Generator: Sketch 45.2 (43514) - http://www.bohemiancoding.com/sketch -->
    <title>start</title>
    <desc>Created with Sketch.</desc>
    <defs></defs>
    <g id="Page-1" stroke="none" stroke-width="1" fill="none" fill-rule="evenodd">
        <g id="Mobile" transform="translate(-85.000000, -504.000000)">
            <g id="start" transform="translate(85.658640, 504.673548)">
                <path d="M4.5551831,9.19635018 L8.53106575,9.19635018 L8.53106575,4.9105377 L4.5551831,4.9105377 L4.5551831,9.19635018 Z M4.5551831,14.1092896 L8.53106575,14.1092896 L8.53106575,9.77544191 L4.5551831,9.77544191 L4.5551831,14.1092896 Z M0,14.1092896 L4.02044422,14.1092896 L4.02044422,9.77544191 L0,9.77544191 L0,14.1092896 Z M4.5551831,18.9715252 L8.53106575,18.9715252 L8.53106575,14.6857127 L4.5551831,14.6857127 L4.5551831,18.9715252 Z M0,18.9715252 L4.02044422,18.9715252 L4.02044422,14.6857127 L0,14.6857127 L0,18.9715252 Z M4.5551831,23.8364294 L8.53106575,23.8364294 L8.53106575,19.5479483 L4.5551831,19.5479483 L4.5551831,23.8364294 Z M0,23.8364294 L4.02044422,23.8364294 L4.02044422,19.5479483 L0,19.5479483 L0,23.8364294 Z M4.5551831,28.7467003 L8.53106575,28.7467003 L8.53106575,24.4128525 L4.5551831,24.4128525 L4.5551831,28.7467003 Z M0,28.7467003 L4.02044422,28.7467003 L4.02044422,24.4128525 L0,24.4128525 L0,28.7467003 Z M4.5551831,33.6089359 L8.53106575,33.6089359 L8.53106575,29.3231234 L4.5551831,29.3231234 L4.5551831,33.6089359 Z M0,33.6089359 L4.02044422,33.6089359 L4.02044422,29.3231234 L0,29.3231234 L0,33.6089359 Z" id="Fill-1" fill="#5ABBAC"></path>
                <path d="M4.5551831,38.4391479 L8.53106575,38.4391479 L8.53106575,34.1053002 L4.5551831,34.1053002 L4.5551831,38.4391479 Z M0,38.4391479 L4.02044422,38.4391479 L4.02044422,34.1053002 L0,34.1053002 L0,38.4391479 Z M4.5551831,43.3013835 L8.53106575,43.3013835 L8.53106575,39.015571 L4.5551831,39.015571 L4.5551831,43.3013835 Z M0,43.3013835 L4.02044422,43.3013835 L4.02044422,39.015571 L0,39.015571 L0,43.3013835 Z M4.5551831,48.214323 L8.53106575,48.214323 L8.53106575,43.8804752 L4.5551831,43.8804752 L4.5551831,48.214323 Z M0,48.214323 L4.02044422,48.214323 L4.02044422,43.8804752 L0,43.8804752 L0,48.214323 Z M4.5551831,53.0765585 L8.53106575,53.0765585 L8.53106575,48.7907461 L4.5551831,48.7907461 L4.5551831,53.0765585 Z M0,53.0765585 L4.02044422,53.0765585 L4.02044422,48.7907461 L0,48.7907461 L0,53.0765585 Z M4.5551831,57.9414628 L8.53106575,57.9414628 L8.53106575,53.6556503 L4.5551831,53.6556503 L4.5551831,57.9414628 Z" id="Fill-2" fill="#5ABBAC"></path>
                <path d="M13.7620994,4.41684199 L17.737982,4.41684199 L17.737982,0.0829942517 L13.7620994,0.0829942517 L13.7620994,4.41684199 Z M9.20691628,4.41684199 L13.2273605,4.41684199 L13.2273605,0.0829942517 L9.20691628,0.0829942517 L9.20691628,4.41684199 Z M13.7620994,9.2817462 L17.737982,9.2817462 L17.737982,4.99326509 L13.7620994,4.99326509 L13.7620994,9.2817462 Z M9.20691628,9.2817462 L13.2273605,9.2817462 L13.2273605,4.99326509 L9.20691628,4.99326509 L9.20691628,9.2817462 Z M13.7620994,14.1893484 L17.737982,14.1893484 L17.737982,9.8581693 L13.7620994,9.8581693 L13.7620994,14.1893484 Z M9.20691628,14.1893484 L13.2273605,14.1893484 L13.2273605,9.8581693 L9.20691628,9.8581693 L9.20691628,14.1893484 Z M13.7620994,19.0569212 L17.737982,19.0569212 L17.737982,14.7684401 L13.7620994,14.7684401 L13.7620994,19.0569212 Z M9.20691628,19.0569212 L13.2273605,19.0569212 L13.2273605,14.7684401 L9.20691628,14.7684401 L9.20691628,19.0569212 Z M13.7620994,23.9164882 L17.737982,23.9164882 L17.737982,19.6306757 L13.7620994,19.6306757 L13.7620994,23.9164882 Z M9.20691628,23.9164882 L13.2273605,23.9164882 L13.2273605,19.6306757 L9.20691628,19.6306757 L9.20691628,23.9164882 Z M13.7620994,28.8294277 L17.737982,28.8294277 L17.737982,24.4955799 L13.7620994,24.4955799 L13.7620994,28.8294277 Z M9.20691628,28.8294277 L13.2273605,28.8294277 L13.2273605,24.4955799 L9.20691628,24.4955799 L9.20691628,28.8294277 Z M13.7620994,33.6916632 L17.737982,33.6916632 L17.737982,29.4058508 L13.7620994,29.4058508 L13.7620994,33.6916632 Z M9.20691628,33.6916632 L13.2273605,33.6916632 L13.2273605,29.4058508 L9.20691628,29.4058508 L9.20691628,33.6916632 Z" id="Fill-3" fill="#5ABBAC"></path>
                <path d="M13.7620994,38.5218753 L17.737982,38.5218753 L17.737982,34.1880276 L13.7620994,34.1880276 L13.7620994,38.5218753 Z M9.20691628,38.5218753 L13.2273605,38.5218753 L13.2273605,34.1880276 L9.20691628,34.1880276 L9.20691628,38.5218753 Z M13.7620994,43.3867795 L17.737982,43.3867795 L17.737982,39.100967 L13.7620994,39.100967 L13.7620994,43.3867795 Z M9.20691628,43.3867795 L13.2273605,43.3867795 L13.2273605,39.100967 L9.20691628,39.100967 L9.20691628,43.3867795 Z M13.7620994,48.2970504 L17.737982,48.2970504 L17.737982,43.9632026 L13.7620994,43.9632026 L13.7620994,48.2970504 Z M9.20691628,48.2970504 L13.2273605,48.2970504 L13.2273605,43.9632026 L9.20691628,43.9632026 L9.20691628,48.2970504 Z M13.7620994,53.1619546 L17.737982,53.1619546 L17.737982,48.8761421 L13.7620994,48.8761421 L13.7620994,53.1619546 Z M9.20691628,53.1619546 L13.2273605,53.1619546 L13.2273605,48.8761421 L9.20691628,48.8761421 L9.20691628,53.1619546 Z M13.7620994,58.0241901 L17.737982,58.0241901 L17.737982,53.735709 L13.7620994,53.735709 L13.7620994,58.0241901 Z M9.20691628,58.0241901 L13.2273605,58.0241901 L13.2273605,53.735709 L9.20691628,53.735709 L9.20691628,58.0241901 Z M13.7620994,62.9371296 L17.737982,62.9371296 L17.737982,58.6032819 L13.7620994,58.6032819 L13.7620994,62.9371296 Z M9.20691628,62.9371296 L13.2273605,62.9371296 L13.2273605,58.6032819 L9.20691628,58.6032819 L9.20691628,62.9371296 Z" id="Fill-4" fill="#5ABBAC"></path>
                <path d="M22.7363052,4.3341146 L26.7121879,4.3341146 L26.7121879,0.000266862546 L22.7363052,0.000266862546 L22.7363052,4.3341146 Z M18.1811221,4.3341146 L22.2015663,4.3341146 L22.2015663,0.000266862546 L18.1811221,0.000266862546 L18.1811221,4.3341146 Z M22.7363052,9.19635018 L26.7121879,9.19635018 L26.7121879,4.9105377 L22.7363052,4.9105377 L22.7363052,9.19635018 Z M18.1811221,9.19635018 L22.2015663,9.19635018 L22.2015663,4.9105377 L18.1811221,4.9105377 L18.1811221,9.19635018 Z M22.7363052,14.1092896 L26.7121879,14.1092896 L26.7121879,9.77544191 L22.7363052,9.77544191 L22.7363052,14.1092896 Z M18.1811221,14.1092896 L22.2015663,14.1092896 L22.2015663,9.77544191 L18.1811221,9.77544191 L18.1811221,14.1092896 Z M22.7363052,18.9715252 L26.7121879,18.9715252 L26.7121879,14.6857127 L22.7363052,14.6857127 L22.7363052,18.9715252 Z M18.1811221,18.9715252 L22.2015663,18.9715252 L22.2015663,14.6857127 L18.1811221,14.6857127 L18.1811221,18.9715252 Z M22.7363052,23.8364294 L26.7121879,23.8364294 L26.7121879,19.5479483 L22.7363052,19.5479483 L22.7363052,23.8364294 Z M18.1811221,23.8364294 L22.2015663,23.8364294 L22.2015663,19.5479483 L18.1811221,19.5479483 L18.1811221,23.8364294 Z M22.7363052,28.7467003 L26.7121879,28.7467003 L26.7121879,24.4128525 L22.7363052,24.4128525 L22.7363052,28.7467003 Z M18.1811221,28.7467003 L22.2015663,28.7467003 L22.2015663,24.4128525 L18.1811221,24.4128525 L18.1811221,28.7467003 Z M22.7363052,33.6089359 L26.7121879,33.6089359 L26.7121879,29.3231234 L22.7363052,29.3231234 L22.7363052,33.6089359 Z M18.1811221,33.6089359 L22.2015663,33.6089359 L22.2015663,29.3231234 L18.1811221,29.3231234 L18.1811221,33.6089359 Z" id="Fill-5" fill="#5ABBAC"></path>
                <path d="M22.7363052,38.4391479 L26.7121879,38.4391479 L26.7121879,34.1053002 L22.7363052,34.1053002 L22.7363052,38.4391479 Z M18.1811221,38.4391479 L22.2015663,38.4391479 L22.2015663,34.1053002 L18.1811221,34.1053002 L18.1811221,38.4391479 Z M22.7363052,43.3013835 L26.7121879,43.3013835 L26.7121879,39.015571 L22.7363052,39.015571 L22.7363052,43.3013835 Z M18.1811221,43.3013835 L22.2015663,43.3013835 L22.2015663,39.015571 L18.1811221,39.015571 L18.1811221,43.3013835 Z M22.7363052,48.214323 L26.7121879,48.214323 L26.7121879,43.8804752 L22.7363052,43.8804752 L22.7363052,48.214323 Z M18.1811221,48.214323 L22.2015663,48.214323 L22.2015663,43.8804752 L18.1811221,43.8804752 L18.1811221,48.214323 Z M22.7363052,53.0765585 L26.7121879,53.0765585 L26.7121879,48.7907461 L22.7363052,48.7907461 L22.7363052,53.0765585 Z M18.1811221,53.0765585 L22.2015663,53.0765585 L22.2015663,48.7907461 L18.1811221,48.7907461 L18.1811221,53.0765585 Z M22.7363052,57.9414628 L26.7121879,57.9414628 L26.7121879,53.6556503 L22.7363052,53.6556503 L22.7363052,57.9414628 Z M18.1811221,57.9414628 L22.2015663,57.9414628 L22.2015663,53.6556503 L18.1811221,53.6556503 L18.1811221,57.9414628 Z M22.7363052,62.8517336 L26.7121879,62.8517336 L26.7121879,58.5178859 L22.7363052,58.5178859 L22.7363052,62.8517336 Z M18.1811221,62.8517336 L22.2015663,62.8517336 L22.2015663,58.5178859 L18.1811221,58.5178859 L18.1811221,62.8517336 Z" id="Fill-6" fill="#5ABBAC"></path>
                <path d="M31.8664766,4.3341146 L35.8423592,4.3341146 L35.8423592,0.000266862546 L31.8664766,0.000266862546 L31.8664766,4.3341146 Z M27.3088178,4.3341146 L31.3292621,4.3341146 L31.3292621,0.000266862546 L27.3088178,0.000266862546 L27.3088178,4.3341146 Z M31.8664766,9.19635018 L35.8423592,9.19635018 L35.8423592,4.9105377 L31.8664766,4.9105377 L31.8664766,9.19635018 Z M27.3088178,9.19635018 L31.3292621,9.19635018 L31.3292621,4.9105377 L27.3088178,4.9105377 L27.3088178,9.19635018 Z M31.8664766,14.1092896 L35.8423592,14.1092896 L35.8423592,9.77544191 L31.8664766,9.77544191 L31.8664766,14.1092896 Z M27.3088178,14.1092896 L31.3292621,14.1092896 L31.3292621,9.77544191 L27.3088178,9.77544191 L27.3088178,14.1092896 Z M31.8664766,18.9715252 L35.8423592,18.9715252 L35.8423592,14.6857127 L31.8664766,14.6857127 L31.8664766,18.9715252 Z M27.3088178,18.9715252 L31.3292621,18.9715252 L31.3292621,14.6857127 L27.3088178,14.6857127 L27.3088178,18.9715252 Z M31.8664766,23.8364294 L35.8423592,23.8364294 L35.8423592,19.5479483 L31.8664766,19.5479483 L31.8664766,23.8364294 Z M27.3088178,23.8364294 L31.3292621,23.8364294 L31.3292621,19.5479483 L27.3088178,19.5479483 L27.3088178,23.8364294 Z M31.8664766,28.7467003 L35.8423592,28.7467003 L35.8423592,24.4128525 L31.8664766,24.4128525 L31.8664766,28.7467003 Z M27.3088178,28.7467003 L31.3292621,28.7467003 L31.3292621,24.4128525 L27.3088178,24.4128525 L27.3088178,28.7467003 Z M31.8664766,33.6089359 L35.8423592,33.6089359 L35.8423592,29.3231234 L31.8664766,29.3231234 L31.8664766,33.6089359 Z M27.3088178,33.6089359 L31.3292621,33.6089359 L31.3292621,29.3231234 L27.3088178,29.3231234 L27.3088178,33.6089359 Z" id="Fill-7" fill="#5ABBAC"></path>
                <path d="M31.8664766,38.4391479 L35.8423592,38.4391479 L35.8423592,34.1053002 L31.8664766,34.1053002 L31.8664766,38.4391479 Z M27.3088178,38.4391479 L31.3292621,38.4391479 L31.3292621,34.1053002 L27.3088178,34.1053002 L27.3088178,38.4391479 Z M31.8664766,43.3013835 L35.8423592,43.3013835 L35.8423592,39.015571 L31.8664766,39.015571 L31.8664766,43.3013835 Z M27.3088178,43.3013835 L31.3292621,43.3013835 L31.3292621,39.015571 L27.3088178,39.015571 L27.3088178,43.3013835 Z M31.8664766,48.214323 L35.8423592,48.214323 L35.8423592,43.8804752 L31.8664766,43.8804752 L31.8664766,48.214323 Z M27.3088178,48.214323 L31.3292621,48.214323 L31.3292621,43.8804752 L27.3088178,43.8804752 L27.3088178,48.214323 Z M31.8664766,53.0765585 L35.8423592,53.0765585 L35.8423592,48.7907461 L31.8664766,48.7907461 L31.8664766,53.0765585 Z M27.3088178,53.0765585 L31.3292621,53.0765585 L31.3292621,48.7907461 L27.3088178,48.7907461 L27.3088178,53.0765585 Z M31.8664766,57.9414628 L35.8423592,57.9414628 L35.8423592,53.6556503 L31.8664766,53.6556503 L31.8664766,57.9414628 Z M27.3088178,57.9414628 L31.3292621,57.9414628 L31.3292621,53.6556503 L27.3088178,53.6556503 L27.3088178,57.9414628 Z M31.8664766,62.8517336 L35.8423592,62.8517336 L35.8423592,58.5178859 L31.8664766,58.5178859 L31.8664766,62.8517336 Z M27.3088178,62.8517336 L31.3292621,62.8517336 L31.3292621,58.5178859 L27.3088178,58.5178859 L27.3088178,62.8517336 Z" id="Fill-8" fill="#5ABBAC"></path>
                <path d="M40.919903,4.3341146 L44.8957856,4.3341146 L44.8957856,0.000266862546 L40.919903,0.000266862546 L40.919903,4.3341146 Z M36.3597686,4.3341146 L40.3802128,4.3341146 L40.3802128,0.000266862546 L36.3597686,0.000266862546 L36.3597686,4.3341146 Z M40.919903,9.19635018 L44.8957856,9.19635018 L44.8957856,4.9105377 L40.919903,4.9105377 L40.919903,9.19635018 Z M36.3597686,9.19635018 L40.3802128,9.19635018 L40.3802128,4.9105377 L36.3597686,4.9105377 L36.3597686,9.19635018 Z M40.919903,14.1092896 L44.8957856,14.1092896 L44.8957856,9.77544191 L40.919903,9.77544191 L40.919903,14.1092896 Z M36.3597686,14.1092896 L40.3802128,14.1092896 L40.3802128,9.77544191 L36.3597686,9.77544191 L36.3597686,14.1092896 Z M40.919903,18.9715252 L44.8957856,18.9715252 L44.8957856,14.6857127 L40.919903,14.6857127 L40.919903,18.9715252 Z M36.3597686,18.9715252 L40.3802128,18.9715252 L40.3802128,14.6857127 L36.3597686,14.6857127 L36.3597686,18.9715252 Z M40.919903,23.8364294 L44.8957856,23.8364294 L44.8957856,19.5479483 L40.919903,19.5479483 L40.919903,23.8364294 Z M36.3597686,23.8364294 L40.3802128,23.8364294 L40.3802128,19.5479483 L36.3597686,19.5479483 L36.3597686,23.8364294 Z M40.919903,28.7467003 L44.8957856,28.7467003 L44.8957856,24.4128525 L40.919903,24.4128525 L40.919903,28.7467003 Z M36.3597686,28.7467003 L40.3802128,28.7467003 L40.3802128,24.4128525 L36.3597686,24.4128525 L36.3597686,28.7467003 Z M40.919903,33.6089359 L44.8957856,33.6089359 L44.8957856,29.3231234 L40.919903,29.3231234 L40.919903,33.6089359 Z M36.3597686,33.6089359 L40.3802128,33.6089359 L40.3802128,29.3231234 L36.3597686,29.3231234 L36.3597686,33.6089359 Z" id="Fill-9" fill="#5ABBAC"></path>
                <path d="M40.919903,38.4391479 L44.8957856,38.4391479 L44.8957856,34.1053002 L40.919903,34.1053002 L40.919903,38.4391479 Z M36.3597686,38.4391479 L40.3802128,38.4391479 L40.3802128,34.1053002 L36.3597686,34.1053002 L36.3597686,38.4391479 Z M40.919903,43.3013835 L44.8957856,43.3013835 L44.8957856,39.015571 L40.919903,39.015571 L40.919903,43.3013835 Z M36.3597686,43.3013835 L40.3802128,43.3013835 L40.3802128,39.015571 L36.3597686,39.015571 L36.3597686,43.3013835 Z M40.919903,48.214323 L44.8957856,48.214323 L44.8957856,43.8804752 L40.919903,43.8804752 L40.919903,48.214323 Z M36.3597686,48.214323 L40.3802128,48.214323 L40.3802128,43.8804752 L36.3597686,43.8804752 L36.3597686,48.214323 Z M40.919903,53.0765585 L44.8957856,53.0765585 L44.8957856,48.7907461 L40.919903,48.7907461 L40.919903,53.0765585 Z M36.3597686,53.0765585 L40.3802128,53.0765585 L40.3802128,48.7907461 L36.3597686,48.7907461 L36.3597686,53.0765585 Z M40.919903,57.9414628 L44.8957856,57.9414628 L44.8957856,53.6556503 L40.919903,53.6556503 L40.919903,57.9414628 Z M36.3597686,57.9414628 L40.3802128,57.9414628 L40.3802128,53.6556503 L36.3597686,53.6556503 L36.3597686,57.9414628 Z M40.919903,62.8517336 L44.8957856,62.8517336 L44.8957856,58.5178859 L40.919903,58.5178859 L40.919903,62.8517336 Z M36.3597686,62.8517336 L40.3802128,62.8517336 L40.3802128,58.5178859 L36.3597686,58.5178859 L36.3597686,62.8517336 Z" id="Fill-10" fill="#5ABBAC"></path>
                <path d="M50.0475987,4.3341146 L54.0234814,4.3341146 L54.0234814,0.000266862546 L50.0475987,0.000266862546 L50.0475987,4.3341146 Z M45.48994,4.3341146 L49.5103842,4.3341146 L49.5103842,0.000266862546 L45.48994,0.000266862546 L45.48994,4.3341146 Z M50.0475987,9.19635018 L54.0234814,9.19635018 L54.0234814,4.9105377 L50.0475987,4.9105377 L50.0475987,9.19635018 Z M45.48994,9.19635018 L49.5103842,9.19635018 L49.5103842,4.9105377 L45.48994,4.9105377 L45.48994,9.19635018 Z M50.0475987,14.1092896 L54.0234814,14.1092896 L54.0234814,9.77544191 L50.0475987,9.77544191 L50.0475987,14.1092896 Z M45.48994,14.1092896 L49.5103842,14.1092896 L49.5103842,9.77544191 L45.48994,9.77544191 L45.48994,14.1092896 Z M50.0475987,18.9715252 L54.0234814,18.9715252 L54.0234814,14.6857127 L50.0475987,14.6857127 L50.0475987,18.9715252 Z M45.48994,18.9715252 L49.5103842,18.9715252 L49.5103842,14.6857127 L45.48994,14.6857127 L45.48994,18.9715252 Z M50.0475987,23.8364294 L54.0234814,23.8364294 L54.0234814,19.5479483 L50.0475987,19.5479483 L50.0475987,23.8364294 Z M45.48994,23.8364294 L49.5103842,23.8364294 L49.5103842,19.5479483 L45.48994,19.5479483 L45.48994,23.8364294 Z M50.0475987,28.7467003 L54.0234814,28.7467003 L54.0234814,24.4128525 L50.0475987,24.4128525 L50.0475987,28.7467003 Z M45.48994,28.7467003 L49.5103842,28.7467003 L49.5103842,24.4128525 L45.48994,24.4128525 L45.48994,28.7467003 Z M50.0475987,33.6089359 L54.0234814,33.6089359 L54.0234814,29.3231234 L50.0475987,29.3231234 L50.0475987,33.6089359 Z M45.48994,33.6089359 L49.5103842,33.6089359 L49.5103842,29.3231234 L45.48994,29.3231234 L45.48994,33.6089359 Z" id="Fill-11" fill="#5ABBAC"></path>
                <path d="M50.0475987,38.4391479 L54.0234814,38.4391479 L54.0234814,34.1053002 L50.0475987,34.1053002 L50.0475987,38.4391479 Z M45.48994,38.4391479 L49.5103842,38.4391479 L49.5103842,34.1053002 L45.48994,34.1053002 L45.48994,38.4391479 Z M50.0475987,43.3013835 L54.0234814,43.3013835 L54.0234814,39.015571 L50.0475987,39.015571 L50.0475987,43.3013835 Z M45.48994,43.3013835 L49.5103842,43.3013835 L49.5103842,39.015571 L45.48994,39.015571 L45.48994,43.3013835 Z M50.0475987,48.214323 L54.0234814,48.214323 L54.0234814,43.8804752 L50.0475987,43.8804752 L50.0475987,48.214323 Z M45.48994,48.214323 L49.5103842,48.214323 L49.5103842,43.8804752 L45.48994,43.8804752 L45.48994,48.214323 Z M50.0475987,53.0765585 L54.0234814,53.0765585 L54.0234814,48.7907461 L50.0475987,48.7907461 L50.0475987,53.0765585 Z M45.48994,53.0765585 L49.5103842,53.0765585 L49.5103842,48.7907461 L45.48994,48.7907461 L45.48994,53.0765585 Z M50.0475987,57.9414628 L54.0234814,57.9414628 L54.0234814,53.6556503 L50.0475987,53.6556503 L50.0475987,57.9414628 Z M45.48994,57.9414628 L49.5103842,57.9414628 L49.5103842,53.6556503 L45.48994,53.6556503 L45.48994,57.9414628 Z M50.0475987,62.8517336 L54.0234814,62.8517336 L54.0234814,58.5178859 L50.0475987,58.5178859 L50.0475987,62.8517336 Z M45.48994,62.8517336 L49.5103842,62.8517336 L49.5103842,58.5178859 L45.48994,58.5178859 L45.48994,62.8517336 Z" id="Fill-12" fill="#5ABBAC"></path>
                <path d="M59.1752944,4.3341146 L63.1511771,4.3341146 L63.1511771,0.000266862546 L59.1752944,0.000266862546 L59.1752944,4.3341146 Z M54.6201113,4.3341146 L58.6405555,4.3341146 L58.6405555,0.000266862546 L54.6201113,0.000266862546 L54.6201113,4.3341146 Z M59.1752944,9.19635018 L63.1511771,9.19635018 L63.1511771,4.9105377 L59.1752944,4.9105377 L59.1752944,9.19635018 Z M54.6201113,9.19635018 L58.6405555,9.19635018 L58.6405555,4.9105377 L54.6201113,4.9105377 L54.6201113,9.19635018 Z M59.1752944,14.1092896 L63.1511771,14.1092896 L63.1511771,9.77544191 L59.1752944,9.77544191 L59.1752944,14.1092896 Z M54.6201113,14.1092896 L58.6405555,14.1092896 L58.6405555,9.77544191 L54.6201113,9.77544191 L54.6201113,14.1092896 Z M59.1752944,18.9715252 L63.1511771,18.9715252 L63.1511771,14.6857127 L59.1752944,14.6857127 L59.1752944,18.9715252 Z M54.6201113,18.9715252 L58.6405555,18.9715252 L58.6405555,14.6857127 L54.6201113,14.6857127 L54.6201113,18.9715252 Z M59.1752944,23.8364294 L63.1511771,23.8364294 L63.1511771,19.5479483 L59.1752944,19.5479483 L59.1752944,23.8364294 Z M54.6201113,23.8364294 L58.6405555,23.8364294 L58.6405555,19.5479483 L54.6201113,19.5479483 L54.6201113,23.8364294 Z M59.1752944,28.7467003 L63.1511771,28.7467003 L63.1511771,24.4128525 L59.1752944,24.4128525 L59.1752944,28.7467003 Z M54.6201113,28.7467003 L58.6405555,28.7467003 L58.6405555,24.4128525 L54.6201113,24.4128525 L54.6201113,28.7467003 Z M59.1752944,33.6089359 L63.1511771,33.6089359 L63.1511771,29.3231234 L59.1752944,29.3231234 L59.1752944,33.6089359 Z M54.6201113,33.6089359 L58.6405555,33.6089359 L58.6405555,29.3231234 L54.6201113,29.3231234 L54.6201113,33.6089359 Z" id="Fill-13" fill="#5ABBAC"></path>
                <path d="M59.1752944,38.4391479 L63.1511771,38.4391479 L63.1511771,34.1053002 L59.1752944,34.1053002 L59.1752944,38.4391479 Z M54.6201113,38.4391479 L58.6405555,38.4391479 L58.6405555,34.1053002 L54.6201113,34.1053002 L54.6201113,38.4391479 Z M59.1752944,43.3013835 L63.1511771,43.3013835 L63.1511771,39.015571 L59.1752944,39.015571 L59.1752944,43.3013835 Z M54.6201113,43.3013835 L58.6405555,43.3013835 L58.6405555,39.015571 L54.6201113,39.015571 L54.6201113,43.3013835 Z M59.1752944,48.214323 L63.1511771,48.214323 L63.1511771,43.8804752 L59.1752944,43.8804752 L59.1752944,48.214323 Z M54.6201113,48.214323 L58.6405555,48.214323 L58.6405555,43.8804752 L54.6201113,43.8804752 L54.6201113,48.214323 Z M59.1752944,53.0765585 L63.1511771,53.0765585 L63.1511771,48.7907461 L59.1752944,48.7907461 L59.1752944,53.0765585 Z M54.6201113,53.0765585 L58.6405555,53.0765585 L58.6405555,48.7907461 L54.6201113,48.7907461 L54.6201113,53.0765585 Z M59.1752944,57.9414628 L63.1511771,57.9414628 L63.1511771,53.6556503 L59.1752944,53.6556503 L59.1752944,57.9414628 Z M54.6201113,57.9414628 L58.6405555,57.9414628 L58.6405555,53.6556503 L54.6201113,53.6556503 L54.6201113,57.9414628 Z M59.1752944,62.8517336 L63.1511771,62.8517336 L63.1511771,58.5178859 L59.1752944,58.5178859 L59.1752944,62.8517336 Z M54.6201113,62.8517336 L58.6405555,62.8517336 L58.6405555,58.5178859 L54.6201113,58.5178859 L54.6201113,62.8517336 Z" id="Fill-14" fill="#5ABBAC"></path>
                <path d="M68.2287208,4.3341146 L72.2021278,4.3341146 L72.2021278,0.000266862546 L68.2287208,0.000266862546 L68.2287208,4.3341146 Z M63.6685865,4.3341146 L67.6890307,4.3341146 L67.6890307,0.000266862546 L63.6685865,0.000266862546 L63.6685865,4.3341146 Z M68.2287208,9.19635018 L72.2021278,9.19635018 L72.2021278,4.9105377 L68.2287208,4.9105377 L68.2287208,9.19635018 Z M63.6685865,9.19635018 L67.6890307,9.19635018 L67.6890307,4.9105377 L63.6685865,4.9105377 L63.6685865,9.19635018 Z M68.2287208,14.1092896 L72.2021278,14.1092896 L72.2021278,9.77544191 L68.2287208,9.77544191 L68.2287208,14.1092896 Z M63.6685865,14.1092896 L67.6890307,14.1092896 L67.6890307,9.77544191 L63.6685865,9.77544191 L63.6685865,14.1092896 Z M68.2287208,18.9715252 L72.2021278,18.9715252 L72.2021278,14.6857127 L68.2287208,14.6857127 L68.2287208,18.9715252 Z M63.6685865,18.9715252 L67.6890307,18.9715252 L67.6890307,14.6857127 L63.6685865,14.6857127 L63.6685865,18.9715252 Z M68.2287208,23.8364294 L72.2021278,23.8364294 L72.2021278,19.5479483 L68.2287208,19.5479483 L68.2287208,23.8364294 Z M63.6685865,23.8364294 L67.6890307,23.8364294 L67.6890307,19.5479483 L63.6685865,19.5479483 L63.6685865,23.8364294 Z M68.2287208,28.7467003 L72.2021278,28.7467003 L72.2021278,24.4128525 L68.2287208,24.4128525 L68.2287208,28.7467003 Z M63.6685865,28.7467003 L67.6890307,28.7467003 L67.6890307,24.4128525 L63.6685865,24.4128525 L63.6685865,28.7467003 Z M68.2287208,33.6089359 L72.2021278,33.6089359 L72.2021278,29.3231234 L68.2287208,29.3231234 L68.2287208,33.6089359 Z M63.6685865,33.6089359 L67.6890307,33.6089359 L67.6890307,29.3231234 L63.6685865,29.3231234 L63.6685865,33.6089359 Z" id="Fill-15" fill="#5ABBAC"></path>
                <path d="M68.2287208,38.4391479 L72.2021278,38.4391479 L72.2021278,34.1053002 L68.2287208,34.1053002 L68.2287208,38.4391479 Z M63.6685865,38.4391479 L67.6890307,38.4391479 L67.6890307,34.1053002 L63.6685865,34.1053002 L63.6685865,38.4391479 Z M68.2287208,43.3013835 L72.2021278,43.3013835 L72.2021278,39.015571 L68.2287208,39.015571 L68.2287208,43.3013835 Z M63.6685865,43.3013835 L67.6890307,43.3013835 L67.6890307,39.015571 L63.6685865,39.015571 L63.6685865,43.3013835 Z M68.2287208,48.214323 L72.2021278,48.214323 L72.2021278,43.8804752 L68.2287208,43.8804752 L68.2287208,48.214323 Z M63.6685865,48.214323 L67.6890307,48.214323 L67.6890307,43.8804752 L63.6685865,43.8804752 L63.6685865,48.214323 Z M68.2287208,53.0765585 L72.2021278,53.0765585 L72.2021278,48.7907461 L68.2287208,48.7907461 L68.2287208,53.0765585 Z M63.6685865,53.0765585 L67.6890307,53.0765585 L67.6890307,48.7907461 L63.6685865,48.7907461 L63.6685865,53.0765585 Z M68.2287208,57.9414628 L72.2021278,57.9414628 L72.2021278,53.6556503 L68.2287208,53.6556503 L68.2287208,57.9414628 Z M63.6685865,57.9414628 L67.6890307,57.9414628 L67.6890307,53.6556503 L63.6685865,53.6556503 L63.6685865,57.9414628 Z M68.2287208,62.8517336 L72.2021278,62.8517336 L72.2021278,58.5178859 L68.2287208,58.5178859 L68.2287208,62.8517336 Z M63.6685865,62.8517336 L67.6890307,62.8517336 L67.6890307,58.5178859 L63.6685865,58.5178859 L63.6685865,62.8517336 Z" id="Fill-16" fill="#5ABBAC"></path>
                <path d="M77.200451,4.3341146 L81.1763337,4.3341146 L81.1763337,0.000266862546 L77.200451,0.000266862546 L77.200451,4.3341146 Z M72.6452679,4.3341146 L76.6657122,4.3341146 L76.6657122,0.000266862546 L72.6452679,0.000266862546 L72.6452679,4.3341146 Z M77.200451,9.19635018 L81.1763337,9.19635018 L81.1763337,4.9105377 L77.200451,4.9105377 L77.200451,9.19635018 Z M72.6452679,9.19635018 L76.6657122,9.19635018 L76.6657122,4.9105377 L72.6452679,4.9105377 L72.6452679,9.19635018 Z M77.200451,14.1092896 L81.1763337,14.1092896 L81.1763337,9.77544191 L77.200451,9.77544191 L77.200451,14.1092896 Z M72.6452679,14.1092896 L76.6657122,14.1092896 L76.6657122,9.77544191 L72.6452679,9.77544191 L72.6452679,14.1092896 Z M77.200451,18.9715252 L81.1763337,18.9715252 L81.1763337,14.6857127 L77.200451,14.6857127 L77.200451,18.9715252 Z M72.6452679,18.9715252 L76.6657122,18.9715252 L76.6657122,14.6857127 L72.6452679,14.6857127 L72.6452679,18.9715252 Z M77.200451,23.8364294 L81.1763337,23.8364294 L81.1763337,19.5479483 L77.200451,19.5479483 L77.200451,23.8364294 Z M72.6452679,23.8364294 L76.6657122,23.8364294 L76.6657122,19.5479483 L72.6452679,19.5479483 L72.6452679,23.8364294 Z M77.200451,28.7467003 L81.1763337,28.7467003 L81.1763337,24.4128525 L77.200451,24.4128525 L77.200451,28.7467003 Z M72.6452679,28.7467003 L76.6657122,28.7467003 L76.6657122,24.4128525 L72.6452679,24.4128525 L72.6452679,28.7467003 Z M77.200451,33.6089359 L81.1763337,33.6089359 L81.1763337,29.3231234 L77.200451,29.3231234 L77.200451,33.6089359 Z M72.6452679,33.6089359 L76.6657122,33.6089359 L76.6657122,29.3231234 L72.6452679,29.3231234 L72.6452679,33.6089359 Z" id="Fill-17" fill="#5ABBAC"></path>
                <path d="M77.200451,38.4391479 L81.1763337,38.4391479 L81.1763337,34.1053002 L77.200451,34.1053002 L77.200451,38.4391479 Z M72.6452679,38.4391479 L76.6657122,38.4391479 L76.6657122,34.1053002 L72.6452679,34.1053002 L72.6452679,38.4391479 Z M77.200451,43.3013835 L81.1763337,43.3013835 L81.1763337,39.015571 L77.200451,39.015571 L77.200451,43.3013835 Z M72.6452679,43.3013835 L76.6657122,43.3013835 L76.6657122,39.015571 L72.6452679,39.015571 L72.6452679,43.3013835 Z M77.200451,48.214323 L81.1763337,48.214323 L81.1763337,43.8804752 L77.200451,43.8804752 L77.200451,48.214323 Z M72.6452679,48.214323 L76.6657122,48.214323 L76.6657122,43.8804752 L72.6452679,43.8804752 L72.6452679,48.214323 Z M77.200451,53.0765585 L81.1763337,53.0765585 L81.1763337,48.7907461 L77.200451,48.7907461 L77.200451,53.0765585 Z M72.6452679,53.0765585 L76.6657122,53.0765585 L76.6657122,48.7907461 L72.6452679,48.7907461 L72.6452679,53.0765585 Z M77.200451,57.9414628 L81.1763337,57.9414628 L81.1763337,53.6556503 L77.200451,53.6556503 L77.200451,57.9414628 Z M72.6452679,57.9414628 L76.6657122,57.9414628 L76.6657122,53.6556503 L72.6452679,53.6556503 L72.6452679,57.9414628 Z M77.200451,62.8517336 L81.1763337,62.8517336 L81.1763337,58.5178859 L77.200451,58.5178859 L77.200451,62.8517336 Z M72.6452679,62.8517336 L76.6657122,62.8517336 L76.6657122,58.5178859 L72.6452679,58.5178859 L72.6452679,62.8517336 Z" id="Fill-18" fill="#5ABBAC"></path>
                <path d="M86.2538775,4.3341146 L90.2297601,4.3341146 L90.2297601,0.000266862546 L86.2538775,0.000266862546 L86.2538775,4.3341146 Z M81.6962187,4.3341146 L85.7166629,4.3341146 L85.7166629,0.000266862546 L81.6962187,0.000266862546 L81.6962187,4.3341146 Z M86.2538775,9.19635018 L90.2297601,9.19635018 L90.2297601,4.9105377 L86.2538775,4.9105377 L86.2538775,9.19635018 Z M81.6962187,9.19635018 L85.7166629,9.19635018 L85.7166629,4.9105377 L81.6962187,4.9105377 L81.6962187,9.19635018 Z M86.2538775,14.1092896 L90.2297601,14.1092896 L90.2297601,9.77544191 L86.2538775,9.77544191 L86.2538775,14.1092896 Z M81.6962187,14.1092896 L85.7166629,14.1092896 L85.7166629,9.77544191 L81.6962187,9.77544191 L81.6962187,14.1092896 Z M86.2538775,18.9715252 L90.2297601,18.9715252 L90.2297601,14.6857127 L86.2538775,14.6857127 L86.2538775,18.9715252 Z M81.6962187,18.9715252 L85.7166629,18.9715252 L85.7166629,14.6857127 L81.6962187,14.6857127 L81.6962187,18.9715252 Z M86.2538775,23.8364294 L90.2297601,23.8364294 L90.2297601,19.5479483 L86.2538775,19.5479483 L86.2538775,23.8364294 Z M81.6962187,23.8364294 L85.7166629,23.8364294 L85.7166629,19.5479483 L81.6962187,19.5479483 L81.6962187,23.8364294 Z M86.2538775,28.7467003 L90.2297601,28.7467003 L90.2297601,24.4128525 L86.2538775,24.4128525 L86.2538775,28.7467003 Z M81.6962187,28.7467003 L85.7166629,28.7467003 L85.7166629,24.4128525 L81.6962187,24.4128525 L81.6962187,28.7467003 Z M86.2538775,33.6089359 L90.2297601,33.6089359 L90.2297601,29.3231234 L86.2538775,29.3231234 L86.2538775,33.6089359 Z M81.6962187,33.6089359 L85.7166629,33.6089359 L85.7166629,29.3231234 L81.6962187,29.3231234 L81.6962187,33.6089359 Z" id="Fill-19" fill="#5ABBAC"></path>
                <path d="M86.2538775,38.4391479 L90.2297601,38.4391479 L90.2297601,34.1053002 L86.2538775,34.1053002 L86.2538775,38.4391479 Z M81.6962187,38.4391479 L85.7166629,38.4391479 L85.7166629,34.1053002 L81.6962187,34.1053002 L81.6962187,38.4391479 Z M86.2538775,43.3013835 L90.2297601,43.3013835 L90.2297601,39.015571 L86.2538775,39.015571 L86.2538775,43.3013835 Z M81.6962187,43.3013835 L85.7166629,43.3013835 L85.7166629,39.015571 L81.6962187,39.015571 L81.6962187,43.3013835 Z M86.2538775,48.214323 L90.2297601,48.214323 L90.2297601,43.8804752 L86.2538775,43.8804752 L86.2538775,48.214323 Z M81.6962187,48.214323 L85.7166629,48.214323 L85.7166629,43.8804752 L81.6962187,43.8804752 L81.6962187,48.214323 Z M86.2538775,53.0765585 L90.2297601,53.0765585 L90.2297601,48.7907461 L86.2538775,48.7907461 L86.2538775,53.0765585 Z M81.6962187,53.0765585 L85.7166629,53.0765585 L85.7166629,48.7907461 L81.6962187,48.7907461 L81.6962187,53.0765585 Z M86.2538775,57.9414628 L90.2297601,57.9414628 L90.2297601,53.6556503 L86.2538775,53.6556503 L86.2538775,57.9414628 Z M81.6962187,57.9414628 L85.7166629,57.9414628 L85.7166629,53.6556503 L81.6962187,53.6556503 L81.6962187,57.9414628 Z M86.2538775,62.8517336 L90.2297601,62.8517336 L90.2297601,58.5178859 L86.2538775,58.5178859 L86.2538775,62.8517336 Z M81.6962187,62.8517336 L85.7166629,62.8517336 L85.7166629,58.5178859 L81.6962187,58.5178859 L81.6962187,62.8517336 Z" id="Fill-20" fill="#5ABBAC"></path>
                <path d="M95.3815732,4.3341146 L99.3574558,4.3341146 L99.3574558,0.000266862546 L95.3815732,0.000266862546 L95.3815732,4.3341146 Z M90.8263901,4.3341146 L94.8468343,4.3341146 L94.8468343,0.000266862546 L90.8263901,0.000266862546 L90.8263901,4.3341146 Z M95.3815732,9.19635018 L99.3574558,9.19635018 L99.3574558,4.9105377 L95.3815732,4.9105377 L95.3815732,9.19635018 Z M90.8263901,9.19635018 L94.8468343,9.19635018 L94.8468343,4.9105377 L90.8263901,4.9105377 L90.8263901,9.19635018 Z M95.3815732,14.1092896 L99.3574558,14.1092896 L99.3574558,9.77544191 L95.3815732,9.77544191 L95.3815732,14.1092896 Z M90.8263901,14.1092896 L94.8468343,14.1092896 L94.8468343,9.77544191 L90.8263901,9.77544191 L90.8263901,14.1092896 Z M95.3815732,18.9715252 L99.3574558,18.9715252 L99.3574558,14.6857127 L95.3815732,14.6857127 L95.3815732,18.9715252 Z M90.8263901,18.9715252 L94.8468343,18.9715252 L94.8468343,14.6857127 L90.8263901,14.6857127 L90.8263901,18.9715252 Z M95.3815732,23.8364294 L99.3574558,23.8364294 L99.3574558,19.5479483 L95.3815732,19.5479483 L95.3815732,23.8364294 Z M90.8263901,23.8364294 L94.8468343,23.8364294 L94.8468343,19.5479483 L90.8263901,19.5479483 L90.8263901,23.8364294 Z M95.3815732,28.7467003 L99.3574558,28.7467003 L99.3574558,24.4128525 L95.3815732,24.4128525 L95.3815732,28.7467003 Z M90.8263901,28.7467003 L94.8468343,28.7467003 L94.8468343,24.4128525 L90.8263901,24.4128525 L90.8263901,28.7467003 Z M95.3815732,33.6089359 L99.3574558,33.6089359 L99.3574558,29.3231234 L95.3815732,29.3231234 L95.3815732,33.6089359 Z M90.8263901,33.6089359 L94.8468343,33.6089359 L94.8468343,29.3231234 L90.8263901,29.3231234 L90.8263901,33.6089359 Z" id="Fill-21" fill="#5ABBAC"></path>
                <path d="M95.3815732,38.4391479 L99.3574558,38.4391479 L99.3574558,34.1053002 L95.3815732,34.1053002 L95.3815732,38.4391479 Z M90.8263901,38.4391479 L94.8468343,38.4391479 L94.8468343,34.1053002 L90.8263901,34.1053002 L90.8263901,38.4391479 Z M95.3815732,43.3013835 L99.3574558,43.3013835 L99.3574558,39.015571 L95.3815732,39.015571 L95.3815732,43.3013835 Z M90.8263901,43.3013835 L94.8468343,43.3013835 L94.8468343,39.015571 L90.8263901,39.015571 L90.8263901,43.3013835 Z M95.3815732,48.214323 L99.3574558,48.214323 L99.3574558,43.8804752 L95.3815732,43.8804752 L95.3815732,48.214323 Z M90.8263901,48.214323 L94.8468343,48.214323 L94.8468343,43.8804752 L90.8263901,43.8804752 L90.8263901,48.214323 Z M95.3815732,53.0765585 L99.3574558,53.0765585 L99.3574558,48.7907461 L95.3815732,48.7907461 L95.3815732,53.0765585 Z M90.8263901,53.0765585 L94.8468343,53.0765585 L94.8468343,48.7907461 L90.8263901,48.7907461 L90.8263901,53.0765585 Z M95.3815732,57.9414628 L99.3574558,57.9414628 L99.3574558,53.6556503 L95.3815732,53.6556503 L95.3815732,57.9414628 Z M90.8263901,57.9414628 L94.8468343,57.9414628 L94.8468343,53.6556503 L90.8263901,53.6556503 L90.8263901,57.9414628 Z M95.3815732,62.8517336 L99.3574558,62.8517336 L99.3574558,58.5178859 L95.3815732,58.5178859 L95.3815732,62.8517336 Z M90.8263901,62.8517336 L94.8468343,62.8517336 L94.8468343,58.5178859 L90.8263901,58.5178859 L90.8263901,62.8517336 Z" id="Fill-22" fill="#5ABBAC"></path>
                <path d="M104.509269,4.3341146 L108.485152,4.3341146 L108.485152,0.000266862546 L104.509269,0.000266862546 L104.509269,4.3341146 Z M99.9540858,4.3341146 L103.97453,4.3341146 L103.97453,0.000266862546 L99.9540858,0.000266862546 L99.9540858,4.3341146 Z M104.509269,9.19635018 L108.485152,9.19635018 L108.485152,4.9105377 L104.509269,4.9105377 L104.509269,9.19635018 Z M99.9540858,9.19635018 L103.97453,9.19635018 L103.97453,4.9105377 L99.9540858,4.9105377 L99.9540858,9.19635018 Z M104.509269,14.1092896 L108.485152,14.1092896 L108.485152,9.77544191 L104.509269,9.77544191 L104.509269,14.1092896 Z M99.9540858,14.1092896 L103.97453,14.1092896 L103.97453,9.77544191 L99.9540858,9.77544191 L99.9540858,14.1092896 Z M104.509269,18.9715252 L108.485152,18.9715252 L108.485152,14.6857127 L104.509269,14.6857127 L104.509269,18.9715252 Z M99.9540858,18.9715252 L103.97453,18.9715252 L103.97453,14.6857127 L99.9540858,14.6857127 L99.9540858,18.9715252 Z M104.509269,23.8364294 L108.485152,23.8364294 L108.485152,19.5479483 L104.509269,19.5479483 L104.509269,23.8364294 Z M99.9540858,23.8364294 L103.97453,23.8364294 L103.97453,19.5479483 L99.9540858,19.5479483 L99.9540858,23.8364294 Z M104.509269,28.7467003 L108.485152,28.7467003 L108.485152,24.4128525 L104.509269,24.4128525 L104.509269,28.7467003 Z M99.9540858,28.7467003 L103.97453,28.7467003 L103.97453,24.4128525 L99.9540858,24.4128525 L99.9540858,28.7467003 Z M104.509269,33.6089359 L108.485152,33.6089359 L108.485152,29.3231234 L104.509269,29.3231234 L104.509269,33.6089359 Z M99.9540858,33.6089359 L103.97453,33.6089359 L103.97453,29.3231234 L99.9540858,29.3231234 L99.9540858,33.6089359 Z" id="Fill-23" fill="#5ABBAC"></path>
                <path d="M104.509269,38.4391479 L108.485152,38.4391479 L108.485152,34.1053002 L104.509269,34.1053002 L104.509269,38.4391479 Z M99.9540858,38.4391479 L103.97453,38.4391479 L103.97453,34.1053002 L99.9540858,34.1053002 L99.9540858,38.4391479 Z M104.509269,43.3013835 L108.485152,43.3013835 L108.485152,39.015571 L104.509269,39.015571 L104.509269,43.3013835 Z M99.9540858,43.3013835 L103.97453,43.3013835 L103.97453,39.015571 L99.9540858,39.015571 L99.9540858,43.3013835 Z M104.509269,48.214323 L108.485152,48.214323 L108.485152,43.8804752 L104.509269,43.8804752 L104.509269,48.214323 Z M99.9540858,48.214323 L103.97453,48.214323 L103.97453,43.8804752 L99.9540858,43.8804752 L99.9540858,48.214323 Z M104.509269,53.0765585 L108.485152,53.0765585 L108.485152,48.7907461 L104.509269,48.7907461 L104.509269,53.0765585 Z M99.9540858,53.0765585 L103.97453,53.0765585 L103.97453,48.7907461 L99.9540858,48.7907461 L99.9540858,53.0765585 Z M104.509269,57.9414628 L108.485152,57.9414628 L108.485152,53.6556503 L104.509269,53.6556503 L104.509269,57.9414628 Z M99.9540858,57.9414628 L103.97453,57.9414628 L103.97453,53.6556503 L99.9540858,53.6556503 L99.9540858,57.9414628 Z M104.509269,62.8517336 L108.485152,62.8517336 L108.485152,58.5178859 L104.509269,58.5178859 L104.509269,62.8517336 Z M99.9540858,62.8517336 L103.97453,62.8517336 L103.97453,58.5178859 L99.9540858,58.5178859 L99.9540858,62.8517336 Z" id="Fill-24" fill="#5ABBAC"></path>
                <path d="M113.562695,4.3341146 L117.538578,4.3341146 L117.538578,0.000266862546 L113.562695,0.000266862546 L113.562695,4.3341146 Z M109.005037,4.3341146 L113.025481,4.3341146 L113.025481,0.000266862546 L109.005037,0.000266862546 L109.005037,4.3341146 Z M113.562695,9.19635018 L117.538578,9.19635018 L117.538578,4.9105377 L113.562695,4.9105377 L113.562695,9.19635018 Z M109.005037,9.19635018 L113.025481,9.19635018 L113.025481,4.9105377 L109.005037,4.9105377 L109.005037,9.19635018 Z M113.562695,14.1092896 L117.538578,14.1092896 L117.538578,9.77544191 L113.562695,9.77544191 L113.562695,14.1092896 Z M109.005037,14.1092896 L113.025481,14.1092896 L113.025481,9.77544191 L109.005037,9.77544191 L109.005037,14.1092896 Z M113.562695,18.9715252 L117.538578,18.9715252 L117.538578,14.6857127 L113.562695,14.6857127 L113.562695,18.9715252 Z M109.005037,18.9715252 L113.025481,18.9715252 L113.025481,14.6857127 L109.005037,14.6857127 L109.005037,18.9715252 Z M113.562695,23.8364294 L117.538578,23.8364294 L117.538578,19.5479483 L113.562695,19.5479483 L113.562695,23.8364294 Z M109.005037,23.8364294 L113.025481,23.8364294 L113.025481,19.5479483 L109.005037,19.5479483 L109.005037,23.8364294 Z M113.562695,28.7467003 L117.538578,28.7467003 L117.538578,24.4128525 L113.562695,24.4128525 L113.562695,28.7467003 Z M109.005037,28.7467003 L113.025481,28.7467003 L113.025481,24.4128525 L109.005037,24.4128525 L109.005037,28.7467003 Z M113.562695,33.6089359 L117.538578,33.6089359 L117.538578,29.3231234 L113.562695,29.3231234 L113.562695,33.6089359 Z M109.005037,33.6089359 L113.025481,33.6089359 L113.025481,29.3231234 L109.005037,29.3231234 L109.005037,33.6089359 Z" id="Fill-25" fill="#5ABBAC"></path>
                <path d="M113.562695,38.4391479 L117.538578,38.4391479 L117.538578,34.1053002 L113.562695,34.1053002 L113.562695,38.4391479 Z M109.005037,38.4391479 L113.025481,38.4391479 L113.025481,34.1053002 L109.005037,34.1053002 L109.005037,38.4391479 Z M113.562695,43.3013835 L117.538578,43.3013835 L117.538578,39.015571 L113.562695,39.015571 L113.562695,43.3013835 Z M109.005037,43.3013835 L113.025481,43.3013835 L113.025481,39.015571 L109.005037,39.015571 L109.005037,43.3013835 Z M113.562695,48.214323 L117.538578,48.214323 L117.538578,43.8804752 L113.562695,43.8804752 L113.562695,48.214323 Z M109.005037,48.214323 L113.025481,48.214323 L113.025481,43.8804752 L109.005037,43.8804752 L109.005037,48.214323 Z M113.562695,53.0765585 L117.538578,53.0765585 L117.538578,48.7907461 L113.562695,48.7907461 L113.562695,53.0765585 Z M109.005037,53.0765585 L113.025481,53.0765585 L113.025481,48.7907461 L109.005037,48.7907461 L109.005037,53.0765585 Z M113.562695,57.9414628 L117.538578,57.9414628 L117.538578,53.6556503 L113.562695,53.6556503 L113.562695,57.9414628 Z M109.005037,57.9414628 L113.025481,57.9414628 L113.025481,53.6556503 L109.005037,53.6556503 L109.005037,57.9414628 Z M113.562695,62.8517336 L117.538578,62.8517336 L117.538578,58.5178859 L113.562695,58.5178859 L113.562695,62.8517336 Z M109.005037,62.8517336 L113.025481,62.8517336 L113.025481,58.5178859 L109.005037,58.5178859 L109.005037,62.8517336 Z" id="Fill-26" fill="#5ABBAC"></path>
                <path d="M122.690391,4.3341146 L126.666274,4.3341146 L126.666274,0.000266862546 L122.690391,0.000266862546 L122.690391,4.3341146 Z M118.135208,4.3341146 L122.155652,4.3341146 L122.155652,0.000266862546 L118.135208,0.000266862546 L118.135208,4.3341146 Z M122.690391,9.19635018 L126.666274,9.19635018 L126.666274,4.9105377 L122.690391,4.9105377 L122.690391,9.19635018 Z M118.135208,9.19635018 L122.155652,9.19635018 L122.155652,4.9105377 L118.135208,4.9105377 L118.135208,9.19635018 Z M122.690391,14.1092896 L126.666274,14.1092896 L126.666274,9.77544191 L122.690391,9.77544191 L122.690391,14.1092896 Z M118.135208,14.1092896 L122.155652,14.1092896 L122.155652,9.77544191 L118.135208,9.77544191 L118.135208,14.1092896 Z M122.690391,18.9715252 L126.666274,18.9715252 L126.666274,14.6857127 L122.690391,14.6857127 L122.690391,18.9715252 Z M118.135208,18.9715252 L122.155652,18.9715252 L122.155652,14.6857127 L118.135208,14.6857127 L118.135208,18.9715252 Z M122.690391,23.8364294 L126.666274,23.8364294 L126.666274,19.5479483 L122.690391,19.5479483 L122.690391,23.8364294 Z M118.135208,23.8364294 L122.155652,23.8364294 L122.155652,19.5479483 L118.135208,19.5479483 L118.135208,23.8364294 Z M122.690391,28.7467003 L126.666274,28.7467003 L126.666274,24.4128525 L122.690391,24.4128525 L122.690391,28.7467003 Z M118.135208,28.7467003 L122.155652,28.7467003 L122.155652,24.4128525 L118.135208,24.4128525 L118.135208,28.7467003 Z M122.690391,33.6089359 L126.666274,33.6089359 L126.666274,29.3231234 L122.690391,29.3231234 L122.690391,33.6089359 Z M118.135208,33.6089359 L122.155652,33.6089359 L122.155652,29.3231234 L118.135208,29.3231234 L118.135208,33.6089359 Z" id="Fill-27" fill="#5ABBAC"></path>
                <path d="M122.690391,38.4391479 L126.666274,38.4391479 L126.666274,34.1053002 L122.690391,34.1053002 L122.690391,38.4391479 Z M118.135208,38.4391479 L122.155652,38.4391479 L122.155652,34.1053002 L118.135208,34.1053002 L118.135208,38.4391479 Z M122.690391,43.3013835 L126.666274,43.3013835 L126.666274,39.015571 L122.690391,39.015571 L122.690391,43.3013835 Z M118.135208,43.3013835 L122.155652,43.3013835 L122.155652,39.015571 L118.135208,39.015571 L118.135208,43.3013835 Z M122.690391,48.214323 L126.666274,48.214323 L126.666274,43.8804752 L122.690391,43.8804752 L122.690391,48.214323 Z M118.135208,48.214323 L122.155652,48.214323 L122.155652,43.8804752 L118.135208,43.8804752 L118.135208,48.214323 Z M122.690391,53.0765585 L126.666274,53.0765585 L126.666274,48.7907461 L122.690391,48.7907461 L122.690391,53.0765585 Z M118.135208,53.0765585 L122.155652,53.0765585 L122.155652,48.7907461 L118.135208,48.7907461 L118.135208,53.0765585 Z M122.690391,57.9414628 L126.666274,57.9414628 L126.666274,53.6556503 L122.690391,53.6556503 L122.690391,57.9414628 Z M118.135208,57.9414628 L122.155652,57.9414628 L122.155652,53.6556503 L118.135208,53.6556503 L118.135208,57.9414628 Z M122.690391,62.8517336 L126.666274,62.8517336 L126.666274,58.5178859 L122.690391,58.5178859 L122.690391,62.8517336 Z M118.135208,62.8517336 L122.155652,62.8517336 L122.155652,58.5178859 L118.135208,58.5178859 L118.135208,62.8517336 Z" id="Fill-28" fill="#5ABBAC"></path>
                <path d="M131.667072,4.3341146 L135.642955,4.3341146 L135.642955,0.000266862546 L131.667072,0.000266862546 L131.667072,4.3341146 Z M127.106938,4.3341146 L131.127382,4.3341146 L131.127382,0.000266862546 L127.106938,0.000266862546 L127.106938,4.3341146 Z M131.667072,9.19635018 L135.642955,9.19635018 L135.642955,4.9105377 L131.667072,4.9105377 L131.667072,9.19635018 Z M127.106938,9.19635018 L131.127382,9.19635018 L131.127382,4.9105377 L127.106938,4.9105377 L127.106938,9.19635018 Z M131.667072,14.1092896 L135.642955,14.1092896 L135.642955,9.77544191 L131.667072,9.77544191 L131.667072,14.1092896 Z M127.106938,14.1092896 L131.127382,14.1092896 L131.127382,9.77544191 L127.106938,9.77544191 L127.106938,14.1092896 Z M131.667072,18.9715252 L135.642955,18.9715252 L135.642955,14.6857127 L131.667072,14.6857127 L131.667072,18.9715252 Z M127.106938,18.9715252 L131.127382,18.9715252 L131.127382,14.6857127 L127.106938,14.6857127 L127.106938,18.9715252 Z M131.667072,23.8364294 L135.642955,23.8364294 L135.642955,19.5479483 L131.667072,19.5479483 L131.667072,23.8364294 Z M127.106938,23.8364294 L131.127382,23.8364294 L131.127382,19.5479483 L127.106938,19.5479483 L127.106938,23.8364294 Z M131.667072,28.7467003 L135.642955,28.7467003 L135.642955,24.4128525 L131.667072,24.4128525 L131.667072,28.7467003 Z M127.106938,28.7467003 L131.127382,28.7467003 L131.127382,24.4128525 L127.106938,24.4128525 L127.106938,28.7467003 Z M131.667072,33.6089359 L135.642955,33.6089359 L135.642955,29.3231234 L131.667072,29.3231234 L131.667072,33.6089359 Z M127.106938,33.6089359 L131.127382,33.6089359 L131.127382,29.3231234 L127.106938,29.3231234 L127.106938,33.6089359 Z" id="Fill-29" fill="#5ABBAC"></path>
                <path d="M131.667072,38.4391479 L135.642955,38.4391479 L135.642955,34.1053002 L131.667072,34.1053002 L131.667072,38.4391479 Z M127.106938,38.4391479 L131.127382,38.4391479 L131.127382,34.1053002 L127.106938,34.1053002 L127.106938,38.4391479 Z M131.667072,43.3013835 L135.642955,43.3013835 L135.642955,39.015571 L131.667072,39.015571 L131.667072,43.3013835 Z M127.106938,43.3013835 L131.127382,43.3013835 L131.127382,39.015571 L127.106938,39.015571 L127.106938,43.3013835 Z M131.667072,48.214323 L135.642955,48.214323 L135.642955,43.8804752 L131.667072,43.8804752 L131.667072,48.214323 Z M127.106938,48.214323 L131.127382,48.214323 L131.127382,43.8804752 L127.106938,43.8804752 L127.106938,48.214323 Z M131.667072,53.0765585 L135.642955,53.0765585 L135.642955,48.7907461 L131.667072,48.7907461 L131.667072,53.0765585 Z M127.106938,53.0765585 L131.127382,53.0765585 L131.127382,48.7907461 L127.106938,48.7907461 L127.106938,53.0765585 Z M131.667072,57.9414628 L135.642955,57.9414628 L135.642955,53.6556503 L131.667072,53.6556503 L131.667072,57.9414628 Z M127.106938,57.9414628 L131.127382,57.9414628 L131.127382,53.6556503 L127.106938,53.6556503 L127.106938,57.9414628 Z M131.667072,62.8517336 L135.642955,62.8517336 L135.642955,58.5178859 L131.667072,58.5178859 L131.667072,62.8517336 Z M127.106938,62.8517336 L131.127382,62.8517336 L131.127382,58.5178859 L127.106938,58.5178859 L127.106938,62.8517336 Z" id="Fill-30" fill="#5ABBAC"></path>
                <path d="M140.794768,4.3341146 L144.770651,4.3341146 L144.770651,0.000266862546 L140.794768,0.000266862546 L140.794768,4.3341146 Z M136.237109,4.3341146 L140.257554,4.3341146 L140.257554,0.000266862546 L136.237109,0.000266862546 L136.237109,4.3341146 Z M140.794768,9.19635018 L144.770651,9.19635018 L144.770651,4.9105377 L140.794768,4.9105377 L140.794768,9.19635018 Z M136.237109,9.19635018 L140.257554,9.19635018 L140.257554,4.9105377 L136.237109,4.9105377 L136.237109,9.19635018 Z M140.794768,14.1092896 L144.770651,14.1092896 L144.770651,9.77544191 L140.794768,9.77544191 L140.794768,14.1092896 Z M136.237109,14.1092896 L140.257554,14.1092896 L140.257554,9.77544191 L136.237109,9.77544191 L136.237109,14.1092896 Z M140.794768,18.9715252 L144.770651,18.9715252 L144.770651,14.6857127 L140.794768,14.6857127 L140.794768,18.9715252 Z M136.237109,18.9715252 L140.257554,18.9715252 L140.257554,14.6857127 L136.237109,14.6857127 L136.237109,18.9715252 Z M140.794768,23.8364294 L144.770651,23.8364294 L144.770651,19.5479483 L140.794768,19.5479483 L140.794768,23.8364294 Z M136.237109,23.8364294 L140.257554,23.8364294 L140.257554,19.5479483 L136.237109,19.5479483 L136.237109,23.8364294 Z M140.794768,28.7467003 L144.770651,28.7467003 L144.770651,24.4128525 L140.794768,24.4128525 L140.794768,28.7467003 Z M136.237109,28.7467003 L140.257554,28.7467003 L140.257554,24.4128525 L136.237109,24.4128525 L136.237109,28.7467003 Z M140.794768,33.6089359 L144.770651,33.6089359 L144.770651,29.3231234 L140.794768,29.3231234 L140.794768,33.6089359 Z M136.237109,33.6089359 L140.257554,33.6089359 L140.257554,29.3231234 L136.237109,29.3231234 L136.237109,33.6089359 Z" id="Fill-31" fill="#5ABBAC"></path>
                <path d="M140.794768,38.4391479 L144.770651,38.4391479 L144.770651,34.1053002 L140.794768,34.1053002 L140.794768,38.4391479 Z M136.237109,38.4391479 L140.257554,38.4391479 L140.257554,34.1053002 L136.237109,34.1053002 L136.237109,38.4391479 Z M140.794768,43.3013835 L144.770651,43.3013835 L144.770651,39.015571 L140.794768,39.015571 L140.794768,43.3013835 Z M136.237109,43.3013835 L140.257554,43.3013835 L140.257554,39.015571 L136.237109,39.015571 L136.237109,43.3013835 Z M140.794768,48.214323 L144.770651,48.214323 L144.770651,43.8804752 L140.794768,43.8804752 L140.794768,48.214323 Z M136.237109,48.214323 L140.257554,48.214323 L140.257554,43.8804752 L136.237109,43.8804752 L136.237109,48.214323 Z M140.794768,53.0765585 L144.770651,53.0765585 L144.770651,48.7907461 L140.794768,48.7907461 L140.794768,53.0765585 Z M136.237109,53.0765585 L140.257554,53.0765585 L140.257554,48.7907461 L136.237109,48.7907461 L136.237109,53.0765585 Z M140.794768,57.9414628 L144.770651,57.9414628 L144.770651,53.6556503 L140.794768,53.6556503 L140.794768,57.9414628 Z M136.237109,57.9414628 L140.257554,57.9414628 L140.257554,53.6556503 L136.237109,53.6556503 L136.237109,57.9414628 Z M140.794768,62.8517336 L144.770651,62.8517336 L144.770651,58.5178859 L140.794768,58.5178859 L140.794768,62.8517336 Z M136.237109,62.8517336 L140.257554,62.8517336 L140.257554,58.5178859 L136.237109,58.5178859 L136.237109,62.8517336 Z" id="Fill-32" fill="#5ABBAC"></path>
                <path d="M149.848195,4.3341146 L153.821602,4.3341146 L153.821602,0.000266862546 L149.848195,0.000266862546 L149.848195,4.3341146 Z M145.28806,4.3341146 L149.308504,4.3341146 L149.308504,0.000266862546 L145.28806,0.000266862546 L145.28806,4.3341146 Z M149.848195,9.19635018 L153.821602,9.19635018 L153.821602,4.9105377 L149.848195,4.9105377 L149.848195,9.19635018 Z M145.28806,9.19635018 L149.308504,9.19635018 L149.308504,4.9105377 L145.28806,4.9105377 L145.28806,9.19635018 Z M149.848195,14.1092896 L153.821602,14.1092896 L153.821602,9.77544191 L149.848195,9.77544191 L149.848195,14.1092896 Z M145.28806,14.1092896 L149.308504,14.1092896 L149.308504,9.77544191 L145.28806,9.77544191 L145.28806,14.1092896 Z M149.848195,18.9715252 L153.821602,18.9715252 L153.821602,14.6857127 L149.848195,14.6857127 L149.848195,18.9715252 Z M145.28806,18.9715252 L149.308504,18.9715252 L149.308504,14.6857127 L145.28806,14.6857127 L145.28806,18.9715252 Z M149.848195,23.8364294 L153.821602,23.8364294 L153.821602,19.5479483 L149.848195,19.5479483 L149.848195,23.8364294 Z M145.28806,23.8364294 L149.308504,23.8364294 L149.308504,19.5479483 L145.28806,19.5479483 L145.28806,23.8364294 Z M149.848195,28.7467003 L153.821602,28.7467003 L153.821602,24.4128525 L149.848195,24.4128525 L149.848195,28.7467003 Z M145.28806,28.7467003 L149.308504,28.7467003 L149.308504,24.4128525 L145.28806,24.4128525 L145.28806,28.7467003 Z M149.848195,33.6089359 L153.821602,33.6089359 L153.821602,29.3231234 L149.848195,29.3231234 L149.848195,33.6089359 Z M145.28806,33.6089359 L149.308504,33.6089359 L149.308504,29.3231234 L145.28806,29.3231234 L145.28806,33.6089359 Z" id="Fill-33" fill="#5ABBAC"></path>
                <path d="M149.848195,38.4391479 L153.821602,38.4391479 L153.821602,34.1053002 L149.848195,34.1053002 L149.848195,38.4391479 Z M145.28806,38.4391479 L149.308504,38.4391479 L149.308504,34.1053002 L145.28806,34.1053002 L145.28806,38.4391479 Z M149.848195,43.3013835 L153.821602,43.3013835 L153.821602,39.015571 L149.848195,39.015571 L149.848195,43.3013835 Z M145.28806,43.3013835 L149.308504,43.3013835 L149.308504,39.015571 L145.28806,39.015571 L145.28806,43.3013835 Z M149.848195,48.214323 L153.821602,48.214323 L153.821602,43.8804752 L149.848195,43.8804752 L149.848195,48.214323 Z M145.28806,48.214323 L149.308504,48.214323 L149.308504,43.8804752 L145.28806,43.8804752 L145.28806,48.214323 Z M149.848195,53.0765585 L153.821602,53.0765585 L153.821602,48.7907461 L149.848195,48.7907461 L149.848195,53.0765585 Z M145.28806,53.0765585 L149.308504,53.0765585 L149.308504,48.7907461 L145.28806,48.7907461 L145.28806,53.0765585 Z M149.848195,57.9414628 L153.821602,57.9414628 L153.821602,53.6556503 L149.848195,53.6556503 L149.848195,57.9414628 Z M145.28806,57.9414628 L149.308504,57.9414628 L149.308504,53.6556503 L145.28806,53.6556503 L145.28806,57.9414628 Z M149.848195,62.8517336 L153.821602,62.8517336 L153.821602,58.5178859 L149.848195,58.5178859 L149.848195,62.8517336 Z M145.28806,62.8517336 L149.308504,62.8517336 L149.308504,58.5178859 L145.28806,58.5178859 L145.28806,62.8517336 Z" id="Fill-34" fill="#5ABBAC"></path>
                <path d="M158.93628,4.45954 L162.912163,4.45954 L162.912163,0.125692259 L158.93628,0.125692259 L158.93628,4.45954 Z M154.378621,4.45954 L158.399066,4.45954 L158.399066,0.125692259 L154.378621,0.125692259 L154.378621,4.45954 Z M158.93628,9.32177558 L162.912163,9.32177558 L162.912163,5.0359631 L158.93628,5.0359631 L158.93628,9.32177558 Z M154.378621,9.32177558 L158.399066,9.32177558 L158.399066,5.0359631 L154.378621,5.0359631 L154.378621,9.32177558 Z M158.93628,14.2320464 L162.912163,14.2320464 L162.912163,9.89819868 L158.93628,9.89819868 L158.93628,14.2320464 Z M154.378621,14.2320464 L158.399066,14.2320464 L158.399066,9.89819868 L154.378621,9.89819868 L154.378621,14.2320464 Z M158.93628,19.0969506 L162.912163,19.0969506 L162.912163,14.8111381 L158.93628,14.8111381 L158.93628,19.0969506 Z M154.378621,19.0969506 L158.399066,19.0969506 L158.399066,14.8111381 L154.378621,14.8111381 L154.378621,19.0969506 Z M158.93628,23.9618548 L162.912163,23.9618548 L162.912163,19.6733737 L158.93628,19.6733737 L158.93628,23.9618548 Z M154.378621,23.9618548 L158.399066,23.9618548 L158.399066,19.6733737 L154.378621,19.6733737 L154.378621,23.9618548 Z M158.93628,28.8721257 L162.912163,28.8721257 L162.912163,24.5382779 L158.93628,24.5382779 L158.93628,28.8721257 Z M154.378621,28.8721257 L158.399066,28.8721257 L158.399066,24.5382779 L154.378621,24.5382779 L154.378621,28.8721257 Z M158.93628,33.7343612 L162.912163,33.7343612 L162.912163,29.4512174 L158.93628,29.4512174 L158.93628,33.7343612 Z M154.378621,33.7343612 L158.399066,33.7343612 L158.399066,29.4512174 L154.378621,29.4512174 L154.378621,33.7343612 Z" id="Fill-35" fill="#5ABBAC"></path>
                <path d="M158.93628,38.5645733 L162.912163,38.5645733 L162.912163,34.2307256 L158.93628,34.2307256 L158.93628,38.5645733 Z M154.378621,38.5645733 L158.399066,38.5645733 L158.399066,34.2307256 L154.378621,34.2307256 L154.378621,38.5645733 Z M158.93628,43.4268089 L162.912163,43.4268089 L162.912163,39.1409964 L158.93628,39.1409964 L158.93628,43.4268089 Z M154.378621,43.4268089 L158.399066,43.4268089 L158.399066,39.1409964 L154.378621,39.1409964 L154.378621,43.4268089 Z M158.93628,48.3370797 L162.912163,48.3370797 L162.912163,44.003232 L158.93628,44.003232 L158.93628,48.3370797 Z M154.378621,48.3370797 L158.399066,48.3370797 L158.399066,44.003232 L154.378621,44.003232 L154.378621,48.3370797 Z M158.93628,53.2019839 L162.912163,53.2019839 L162.912163,48.9161715 L158.93628,48.9161715 L158.93628,53.2019839 Z M154.378621,53.2019839 L158.399066,53.2019839 L158.399066,48.9161715 L154.378621,48.9161715 L154.378621,53.2019839 Z M158.93628,58.0668882 L162.912163,58.0668882 L162.912163,53.7810757 L158.93628,53.7810757 L158.93628,58.0668882 Z M154.378621,58.0668882 L158.399066,58.0668882 L158.399066,53.7810757 L154.378621,53.7810757 L154.378621,58.0668882 Z M158.93628,62.977159 L162.912163,62.977159 L162.912163,58.6433112 L158.93628,58.6433112 L158.93628,62.977159 Z M154.378621,62.977159 L158.399066,62.977159 L158.399066,58.6433112 L154.378621,58.6433112 L154.378621,62.977159 Z" id="Fill-36" fill="#5ABBAC"></path>
                <path d="M168.103586,4.3341146 L172.079469,4.3341146 L172.079469,0.000266862546 L168.103586,0.000266862546 L168.103586,4.3341146 Z M163.548403,4.3341146 L167.568847,4.3341146 L167.568847,0.000266862546 L163.548403,0.000266862546 L163.548403,4.3341146 Z M168.103586,9.19635018 L172.079469,9.19635018 L172.079469,4.9105377 L168.103586,4.9105377 L168.103586,9.19635018 Z M163.548403,9.19635018 L167.568847,9.19635018 L167.568847,4.9105377 L163.548403,4.9105377 L163.548403,9.19635018 Z M168.103586,14.1092896 L172.079469,14.1092896 L172.079469,9.77544191 L168.103586,9.77544191 L168.103586,14.1092896 Z M163.548403,14.1092896 L167.568847,14.1092896 L167.568847,9.77544191 L163.548403,9.77544191 L163.548403,14.1092896 Z M168.103586,18.9715252 L172.079469,18.9715252 L172.079469,14.6857127 L168.103586,14.6857127 L168.103586,18.9715252 Z M163.548403,18.9715252 L167.568847,18.9715252 L167.568847,14.6857127 L163.548403,14.6857127 L163.548403,18.9715252 Z M168.103586,23.8364294 L172.079469,23.8364294 L172.079469,19.5479483 L168.103586,19.5479483 L168.103586,23.8364294 Z M163.548403,23.8364294 L167.568847,23.8364294 L167.568847,19.5479483 L163.548403,19.5479483 L163.548403,23.8364294 Z M168.103586,28.7467003 L172.079469,28.7467003 L172.079469,24.4128525 L168.103586,24.4128525 L168.103586,28.7467003 Z M163.548403,28.7467003 L167.568847,28.7467003 L167.568847,24.4128525 L163.548403,24.4128525 L163.548403,28.7467003 Z M168.103586,33.6089359 L172.079469,33.6089359 L172.079469,29.3231234 L168.103586,29.3231234 L168.103586,33.6089359 Z M163.548403,33.6089359 L167.568847,33.6089359 L167.568847,29.3231234 L163.548403,29.3231234 L163.548403,33.6089359 Z" id="Fill-37" fill="#5ABBAC"></path>
                <path d="M168.103586,38.4391479 L172.079469,38.4391479 L172.079469,34.1053002 L168.103586,34.1053002 L168.103586,38.4391479 Z M163.548403,38.4391479 L167.568847,38.4391479 L167.568847,34.1053002 L163.548403,34.1053002 L163.548403,38.4391479 Z M168.103586,43.3013835 L172.079469,43.3013835 L172.079469,39.015571 L168.103586,39.015571 L168.103586,43.3013835 Z M163.548403,43.3013835 L167.568847,43.3013835 L167.568847,39.015571 L163.548403,39.015571 L163.548403,43.3013835 Z M168.103586,48.214323 L172.079469,48.214323 L172.079469,43.8804752 L168.103586,43.8804752 L168.103586,48.214323 Z M163.548403,48.214323 L167.568847,48.214323 L167.568847,43.8804752 L163.548403,43.8804752 L163.548403,48.214323 Z M168.103586,53.0765585 L172.079469,53.0765585 L172.079469,48.7907461 L168.103586,48.7907461 L168.103586,53.0765585 Z M163.548403,53.0765585 L167.568847,53.0765585 L167.568847,48.7907461 L163.548403,48.7907461 L163.548403,53.0765585 Z M168.103586,57.9414628 L172.079469,57.9414628 L172.079469,53.6556503 L168.103586,53.6556503 L168.103586,57.9414628 Z M163.548403,57.9414628 L167.568847,57.9414628 L167.568847,53.6556503 L163.548403,53.6556503 L163.548403,57.9414628 Z M168.103586,62.8517336 L172.079469,62.8517336 L172.079469,58.5178859 L168.103586,58.5178859 L168.103586,62.8517336 Z M163.548403,62.8517336 L167.568847,62.8517336 L167.568847,58.5178859 L163.548403,58.5178859 L163.548403,62.8517336 Z" id="Fill-38" fill="#5ABBAC"></path>
                <path d="M177.157012,4.3341146 L181.130419,4.3341146 L181.130419,0.000266862546 L177.157012,0.000266862546 L177.157012,4.3341146 Z M172.599354,4.3341146 L176.619798,4.3341146 L176.619798,0.000266862546 L172.599354,0.000266862546 L172.599354,4.3341146 Z M177.157012,9.19635018 L181.130419,9.19635018 L181.130419,4.9105377 L177.157012,4.9105377 L177.157012,9.19635018 Z M172.599354,9.19635018 L176.619798,9.19635018 L176.619798,4.9105377 L172.599354,4.9105377 L172.599354,9.19635018 Z M177.157012,14.1092896 L181.130419,14.1092896 L181.130419,9.77544191 L177.157012,9.77544191 L177.157012,14.1092896 Z M172.599354,14.1092896 L176.619798,14.1092896 L176.619798,9.77544191 L172.599354,9.77544191 L172.599354,14.1092896 Z M177.157012,18.9715252 L181.130419,18.9715252 L181.130419,14.6857127 L177.157012,14.6857127 L177.157012,18.9715252 Z M172.599354,18.9715252 L176.619798,18.9715252 L176.619798,14.6857127 L172.599354,14.6857127 L172.599354,18.9715252 Z M177.157012,23.8364294 L181.130419,23.8364294 L181.130419,19.5479483 L177.157012,19.5479483 L177.157012,23.8364294 Z M172.599354,23.8364294 L176.619798,23.8364294 L176.619798,19.5479483 L172.599354,19.5479483 L172.599354,23.8364294 Z M177.157012,28.7467003 L181.130419,28.7467003 L181.130419,24.4128525 L177.157012,24.4128525 L177.157012,28.7467003 Z M172.599354,28.7467003 L176.619798,28.7467003 L176.619798,24.4128525 L172.599354,24.4128525 L172.599354,28.7467003 Z M177.157012,33.6089359 L181.130419,33.6089359 L181.130419,29.3231234 L177.157012,29.3231234 L177.157012,33.6089359 Z M172.599354,33.6089359 L176.619798,33.6089359 L176.619798,29.3231234 L172.599354,29.3231234 L172.599354,33.6089359 Z" id="Fill-39" fill="#5ABBAC"></path>
                <path d="M177.157012,38.4391479 L181.130419,38.4391479 L181.130419,34.1053002 L177.157012,34.1053002 L177.157012,38.4391479 Z M172.599354,38.4391479 L176.619798,38.4391479 L176.619798,34.1053002 L172.599354,34.1053002 L172.599354,38.4391479 Z M177.157012,43.3013835 L181.130419,43.3013835 L181.130419,39.015571 L177.157012,39.015571 L177.157012,43.3013835 Z M172.599354,43.3013835 L176.619798,43.3013835 L176.619798,39.015571 L172.599354,39.015571 L172.599354,43.3013835 Z M177.157012,48.214323 L181.130419,48.214323 L181.130419,43.8804752 L177.157012,43.8804752 L177.157012,48.214323 Z M172.599354,48.214323 L176.619798,48.214323 L176.619798,43.8804752 L172.599354,43.8804752 L172.599354,48.214323 Z M177.157012,53.0765585 L181.130419,53.0765585 L181.130419,48.7907461 L177.157012,48.7907461 L177.157012,53.0765585 Z M172.599354,53.0765585 L176.619798,53.0765585 L176.619798,48.7907461 L172.599354,48.7907461 L172.599354,53.0765585 Z M177.157012,57.9414628 L181.130419,57.9414628 L181.130419,53.6556503 L177.157012,53.6556503 L177.157012,57.9414628 Z M172.599354,57.9414628 L176.619798,57.9414628 L176.619798,53.6556503 L172.599354,53.6556503 L172.599354,57.9414628 Z M177.157012,62.8517336 L181.130419,62.8517336 L181.130419,58.5178859 L177.157012,58.5178859 L177.157012,62.8517336 Z M172.599354,62.8517336 L176.619798,62.8517336 L176.619798,58.5178859 L172.599354,58.5178859 L172.599354,62.8517336 Z" id="Fill-40" fill="#5ABBAC"></path>
                <path d="M186.128743,4.3341146 L190.104625,4.3341146 L190.104625,0.000266862546 L186.128743,0.000266862546 L186.128743,4.3341146 Z M181.57356,4.3341146 L185.594004,4.3341146 L185.594004,0.000266862546 L181.57356,0.000266862546 L181.57356,4.3341146 Z M186.128743,9.19635018 L190.104625,9.19635018 L190.104625,4.9105377 L186.128743,4.9105377 L186.128743,9.19635018 Z M181.57356,9.19635018 L185.594004,9.19635018 L185.594004,4.9105377 L181.57356,4.9105377 L181.57356,9.19635018 Z M186.128743,14.1092896 L190.104625,14.1092896 L190.104625,9.77544191 L186.128743,9.77544191 L186.128743,14.1092896 Z M181.57356,14.1092896 L185.594004,14.1092896 L185.594004,9.77544191 L181.57356,9.77544191 L181.57356,14.1092896 Z M186.128743,18.9715252 L190.104625,18.9715252 L190.104625,14.6857127 L186.128743,14.6857127 L186.128743,18.9715252 Z M181.57356,18.9715252 L185.594004,18.9715252 L185.594004,14.6857127 L181.57356,14.6857127 L181.57356,18.9715252 Z M186.128743,23.8364294 L190.104625,23.8364294 L190.104625,19.5479483 L186.128743,19.5479483 L186.128743,23.8364294 Z M181.57356,23.8364294 L185.594004,23.8364294 L185.594004,19.5479483 L181.57356,19.5479483 L181.57356,23.8364294 Z M186.128743,28.7467003 L190.104625,28.7467003 L190.104625,24.4128525 L186.128743,24.4128525 L186.128743,28.7467003 Z M181.57356,28.7467003 L185.594004,28.7467003 L185.594004,24.4128525 L181.57356,24.4128525 L181.57356,28.7467003 Z M186.128743,33.6089359 L190.104625,33.6089359 L190.104625,29.3231234 L186.128743,29.3231234 L186.128743,33.6089359 Z M181.57356,33.6089359 L185.594004,33.6089359 L185.594004,29.3231234 L181.57356,29.3231234 L181.57356,33.6089359 Z" id="Fill-41" fill="#5ABBAC"></path>
                <path d="M186.128743,38.4391479 L190.104625,38.4391479 L190.104625,34.1053002 L186.128743,34.1053002 L186.128743,38.4391479 Z M181.57356,38.4391479 L185.594004,38.4391479 L185.594004,34.1053002 L181.57356,34.1053002 L181.57356,38.4391479 Z M186.128743,43.3013835 L190.104625,43.3013835 L190.104625,39.015571 L186.128743,39.015571 L186.128743,43.3013835 Z M181.57356,43.3013835 L185.594004,43.3013835 L185.594004,39.015571 L181.57356,39.015571 L181.57356,43.3013835 Z M186.128743,48.214323 L190.104625,48.214323 L190.104625,43.8804752 L186.128743,43.8804752 L186.128743,48.214323 Z M181.57356,48.214323 L185.594004,48.214323 L185.594004,43.8804752 L181.57356,43.8804752 L181.57356,48.214323 Z M186.128743,53.0765585 L190.104625,53.0765585 L190.104625,48.7907461 L186.128743,48.7907461 L186.128743,53.0765585 Z M181.57356,53.0765585 L185.594004,53.0765585 L185.594004,48.7907461 L181.57356,48.7907461 L181.57356,53.0765585 Z M186.128743,57.9414628 L190.104625,57.9414628 L190.104625,53.6556503 L186.128743,53.6556503 L186.128743,57.9414628 Z M181.57356,57.9414628 L185.594004,57.9414628 L185.594004,53.6556503 L181.57356,53.6556503 L181.57356,57.9414628 Z M186.128743,62.8517336 L190.104625,62.8517336 L190.104625,58.5178859 L186.128743,58.5178859 L186.128743,62.8517336 Z M181.57356,62.8517336 L185.594004,62.8517336 L185.594004,58.5178859 L181.57356,58.5178859 L181.57356,62.8517336 Z" id="Fill-42" fill="#5ABBAC"></path>
                <path d="M195.102949,4.3341146 L199.078831,4.3341146 L199.078831,0.000266862546 L195.102949,0.000266862546 L195.102949,4.3341146 Z M190.547765,4.3341146 L194.56821,4.3341146 L194.56821,0.000266862546 L190.547765,0.000266862546 L190.547765,4.3341146 Z M195.102949,9.19635018 L199.078831,9.19635018 L199.078831,4.9105377 L195.102949,4.9105377 L195.102949,9.19635018 Z M190.547765,9.19635018 L194.56821,9.19635018 L194.56821,4.9105377 L190.547765,4.9105377 L190.547765,9.19635018 Z M195.102949,14.1092896 L199.078831,14.1092896 L199.078831,9.77544191 L195.102949,9.77544191 L195.102949,14.1092896 Z M190.547765,14.1092896 L194.56821,14.1092896 L194.56821,9.77544191 L190.547765,9.77544191 L190.547765,14.1092896 Z M195.102949,18.9715252 L199.078831,18.9715252 L199.078831,14.6857127 L195.102949,14.6857127 L195.102949,18.9715252 Z M190.547765,18.9715252 L194.56821,18.9715252 L194.56821,14.6857127 L190.547765,14.6857127 L190.547765,18.9715252 Z M195.102949,23.8364294 L199.078831,23.8364294 L199.078831,19.5479483 L195.102949,19.5479483 L195.102949,23.8364294 Z M190.547765,23.8364294 L194.56821,23.8364294 L194.56821,19.5479483 L190.547765,19.5479483 L190.547765,23.8364294 Z M195.102949,28.7467003 L199.078831,28.7467003 L199.078831,24.4128525 L195.102949,24.4128525 L195.102949,28.7467003 Z M190.547765,28.7467003 L194.56821,28.7467003 L194.56821,24.4128525 L190.547765,24.4128525 L190.547765,28.7467003 Z M195.102949,33.6089359 L199.078831,33.6089359 L199.078831,29.3231234 L195.102949,29.3231234 L195.102949,33.6089359 Z M190.547765,33.6089359 L194.56821,33.6089359 L194.56821,29.3231234 L190.547765,29.3231234 L190.547765,33.6089359 Z" id="Fill-43" fill="#5ABBAC"></path>
                <path d="M195.102949,38.4391479 L199.078831,38.4391479 L199.078831,34.1053002 L195.102949,34.1053002 L195.102949,38.4391479 Z M190.547765,38.4391479 L194.56821,38.4391479 L194.56821,34.1053002 L190.547765,34.1053002 L190.547765,38.4391479 Z M195.102949,43.3013835 L199.078831,43.3013835 L199.078831,39.015571 L195.102949,39.015571 L195.102949,43.3013835 Z M190.547765,43.3013835 L194.56821,43.3013835 L194.56821,39.015571 L190.547765,39.015571 L190.547765,43.3013835 Z M195.102949,48.214323 L199.078831,48.214323 L199.078831,43.8804752 L195.102949,43.8804752 L195.102949,48.214323 Z M190.547765,48.214323 L194.56821,48.214323 L194.56821,43.8804752 L190.547765,43.8804752 L190.547765,48.214323 Z M195.102949,53.0765585 L199.078831,53.0765585 L199.078831,48.7907461 L195.102949,48.7907461 L195.102949,53.0765585 Z M190.547765,53.0765585 L194.56821,53.0765585 L194.56821,48.7907461 L190.547765,48.7907461 L190.547765,53.0765585 Z M195.102949,57.9414628 L199.078831,57.9414628 L199.078831,53.6556503 L195.102949,53.6556503 L195.102949,57.9414628 Z M190.547765,57.9414628 L194.56821,57.9414628 L194.56821,53.6556503 L190.547765,53.6556503 L190.547765,57.9414628 Z M195.102949,62.8517336 L199.078831,62.8517336 L199.078831,58.5178859 L195.102949,58.5178859 L195.102949,62.8517336 Z M190.547765,62.8517336 L194.56821,62.8517336 L194.56821,58.5178859 L190.547765,58.5178859 L190.547765,62.8517336 Z" id="Fill-44" fill="#5ABBAC"></path>
                <path d="M199.598716,4.3341146 L203.621636,4.3341146 L203.621636,0.000266862546 L199.598716,0.000266862546 L199.598716,4.3341146 Z M204.156375,9.19635018 L208.129782,9.19635018 L208.129782,4.9105377 L204.156375,4.9105377 L204.156375,9.19635018 Z M199.598716,9.19635018 L203.621636,9.19635018 L203.621636,4.9105377 L199.598716,4.9105377 L199.598716,9.19635018 Z M204.156375,14.1092896 L208.129782,14.1092896 L208.129782,9.77544191 L204.156375,9.77544191 L204.156375,14.1092896 Z M199.598716,14.1092896 L203.621636,14.1092896 L203.621636,9.77544191 L199.598716,9.77544191 L199.598716,14.1092896 Z M204.156375,18.9715252 L208.129782,18.9715252 L208.129782,14.6857127 L204.156375,14.6857127 L204.156375,18.9715252 Z M199.598716,18.9715252 L203.621636,18.9715252 L203.621636,14.6857127 L199.598716,14.6857127 L199.598716,18.9715252 Z M204.156375,23.8364294 L208.129782,23.8364294 L208.129782,19.5479483 L204.156375,19.5479483 L204.156375,23.8364294 Z M199.598716,23.8364294 L203.621636,23.8364294 L203.621636,19.5479483 L199.598716,19.5479483 L199.598716,23.8364294 Z M204.156375,28.7467003 L208.129782,28.7467003 L208.129782,24.4128525 L204.156375,24.4128525 L204.156375,28.7467003 Z M199.598716,28.7467003 L203.621636,28.7467003 L203.621636,24.4128525 L199.598716,24.4128525 L199.598716,28.7467003 Z M204.156375,33.6089359 L208.129782,33.6089359 L208.129782,29.3231234 L204.156375,29.3231234 L204.156375,33.6089359 Z M199.598716,33.6089359 L203.621636,33.6089359 L203.621636,29.3231234 L199.598716,29.3231234 L199.598716,33.6089359 Z" id="Fill-45" fill="#5ABBAC"></path>
                <path d="M204.156375,38.4391479 L208.129782,38.4391479 L208.129782,34.1053002 L204.156375,34.1053002 L204.156375,38.4391479 Z M199.598716,38.4391479 L203.621636,38.4391479 L203.621636,34.1053002 L199.598716,34.1053002 L199.598716,38.4391479 Z M204.156375,43.3013835 L208.129782,43.3013835 L208.129782,39.015571 L204.156375,39.015571 L204.156375,43.3013835 Z M199.598716,43.3013835 L203.621636,43.3013835 L203.621636,39.015571 L199.598716,39.015571 L199.598716,43.3013835 Z M204.156375,48.214323 L208.129782,48.214323 L208.129782,43.8804752 L204.156375,43.8804752 L204.156375,48.214323 Z M199.598716,48.214323 L203.621636,48.214323 L203.621636,43.8804752 L199.598716,43.8804752 L199.598716,48.214323 Z M204.156375,53.0765585 L208.129782,53.0765585 L208.129782,48.7907461 L204.156375,48.7907461 L204.156375,53.0765585 Z M199.598716,53.0765585 L203.621636,53.0765585 L203.621636,48.7907461 L199.598716,48.7907461 L199.598716,53.0765585 Z M204.156375,57.9414628 L208.129782,57.9414628 L208.129782,53.6556503 L204.156375,53.6556503 L204.156375,57.9414628 Z M199.598716,57.9414628 L203.621636,57.9414628 L203.621636,53.6556503 L199.598716,53.6556503 L199.598716,57.9414628 Z M199.598716,62.8517336 L203.621636,62.8517336 L203.621636,58.5178859 L199.598716,58.5178859 L199.598716,62.8517336 Z" id="Fill-46" fill="#5ABBAC"></path>
                <path d="M208.882377,14.1092896 L212.902822,14.1092896 L212.902822,9.77544191 L208.882377,9.77544191 L208.882377,14.1092896 Z M208.882377,18.9715252 L212.902822,18.9715252 L212.902822,14.6857127 L208.882377,14.6857127 L208.882377,18.9715252 Z M208.882377,23.8364294 L212.902822,23.8364294 L212.902822,19.5479483 L208.882377,19.5479483 L208.882377,23.8364294 Z M208.882377,28.7467003 L212.902822,28.7467003 L212.902822,24.4128525 L208.882377,24.4128525 L208.882377,28.7467003 Z M208.882377,33.6089359 L212.902822,33.6089359 L212.902822,29.3231234 L208.882377,29.3231234 L208.882377,33.6089359 Z" id="Fill-47" fill="#5ABBAC"></path>
                <path d="M208.882377,38.4391479 L212.902822,38.4391479 L212.902822,34.1053002 L208.882377,34.1053002 L208.882377,38.4391479 Z M208.882377,43.3013835 L212.902822,43.3013835 L212.902822,39.015571 L208.882377,39.015571 L208.882377,43.3013835 Z M208.882377,48.214323 L212.902822,48.214323 L212.902822,43.8804752 L208.882377,43.8804752 L208.882377,48.214323 Z M208.882377,53.0765585 L212.902822,53.0765585 L212.902822,48.7907461 L208.882377,48.7907461 L208.882377,53.0765585 Z" id="Fill-48" fill="#5ABBAC"></path>
                <path d="M63.5373774,43.4294775 L67.51326,43.4294775 L67.51326,39.0956298 L63.5373774,39.0956298 L63.5373774,43.4294775 Z M63.5373774,38.5192067 L67.51326,38.5192067 L67.51326,34.2333942 L63.5373774,34.2333942 L63.5373774,38.5192067 Z M63.5373774,19.0168919 L67.51326,19.0168919 L67.51326,14.6830441 L63.5373774,14.6830441 L63.5373774,19.0168919 Z M59.0267558,48.2943817 L63.0026385,48.2943817 L63.0026385,44.0112379 L59.0267558,44.0112379 L59.0267558,48.2943817 Z M59.0267558,43.4294775 L63.0026385,43.4294775 L63.0026385,39.0956298 L59.0267558,39.0956298 L59.0267558,43.4294775 Z M59.0267558,38.5192067 L63.0026385,38.5192067 L63.0026385,34.2333942 L59.0267558,34.2333942 L59.0267558,38.5192067 Z M59.0267558,33.6569711 L63.0026385,33.6569711 L63.0026385,29.3711586 L59.0267558,29.3711586 L59.0267558,33.6569711 Z M59.0267558,19.0168919 L63.0026385,19.0168919 L63.0026385,14.6830441 L59.0267558,14.6830441 L59.0267558,19.0168919 Z M54.4690971,48.2943817 L58.4895413,48.2943817 L58.4895413,44.0112379 L54.4690971,44.0112379 L54.4690971,48.2943817 Z M54.4690971,38.5192067 L58.4449797,38.5192067 L58.4449797,34.2333942 L54.4690971,34.2333942 L54.4690971,38.5192067 Z M54.4690971,33.6569711 L58.4895413,33.6569711 L58.4895413,29.3711586 L54.4690971,29.3711586 L54.4690971,33.6569711 Z M54.4690971,28.7920669 L58.4895413,28.7920669 L58.4895413,24.4582192 L54.4690971,24.4582192 L54.4690971,28.7920669 Z M54.4690971,19.0168919 L58.4895413,19.0168919 L58.4895413,14.6830441 L54.4690971,14.6830441 L54.4690971,19.0168919 Z M49.9584756,48.2943817 L53.9343582,48.2943817 L53.9343582,44.0112379 L49.9584756,44.0112379 L49.9584756,48.2943817 Z M49.9584756,33.6569711 L53.9343582,33.6569711 L53.9343582,29.3711586 L49.9584756,29.3711586 L49.9584756,33.6569711 Z M49.9584756,28.7920669 L53.9343582,28.7920669 L53.9343582,24.4582192 L49.9584756,24.4582192 L49.9584756,28.7920669 Z M49.9584756,23.8817961 L53.9343582,23.8817961 L53.9343582,19.5959836 L49.9584756,19.5959836 L49.9584756,23.8817961 Z M49.9584756,19.0168919 L53.9343582,19.0168919 L53.9343582,14.6830441 L49.9584756,14.6830441 L49.9584756,19.0168919 Z M45.4008168,48.2943817 L49.421261,48.2943817 L49.421261,44.0112379 L45.4008168,44.0112379 L45.4008168,48.2943817 Z M45.4008168,28.7920669 L49.421261,28.7920669 L49.421261,24.4582192 L45.4008168,24.4582192 L45.4008168,28.7920669 Z M45.4008168,23.8817961 L49.421261,23.8817961 L49.421261,19.5959836 L45.4008168,19.5959836 L45.4008168,23.8817961 Z" id="Fill-49" fill="#FEFEFE"></path>
                <path d="M86.0954363,19.0168919 L90.071319,19.0168919 L90.071319,14.6830441 L86.0954363,14.6830441 L86.0954363,19.0168919 Z M81.6293764,19.0168919 L85.605259,19.0168919 L85.605259,14.6830441 L81.6293764,14.6830441 L81.6293764,19.0168919 Z M77.1162792,48.2943817 L81.0921618,48.2943817 L81.0921618,44.0112379 L77.1162792,44.0112379 L77.1162792,48.2943817 Z M77.1162792,43.4294775 L81.0921618,43.4294775 L81.0921618,39.0956298 L77.1162792,39.0956298 L77.1162792,43.4294775 Z M77.1162792,38.5192067 L81.0921618,38.5192067 L81.0921618,34.2333942 L77.1162792,34.2333942 L77.1162792,38.5192067 Z M77.1162792,33.6569711 L81.0921618,33.6569711 L81.0921618,29.3711586 L77.1162792,29.3711586 L77.1162792,33.6569711 Z M77.1162792,28.7920669 L81.0921618,28.7920669 L81.0921618,24.4582192 L77.1162792,24.4582192 L77.1162792,28.7920669 Z M77.1162792,23.8817961 L81.0921618,23.8817961 L81.0921618,19.5959836 L77.1162792,19.5959836 L77.1162792,23.8817961 Z M77.1162792,19.0168919 L81.0921618,19.0168919 L81.0921618,14.6830441 L77.1162792,14.6830441 L77.1162792,19.0168919 Z M72.5586204,48.2943817 L76.5790647,48.2943817 L76.5790647,44.0112379 L72.5586204,44.0112379 L72.5586204,48.2943817 Z M72.5586204,43.4294775 L76.5790647,43.4294775 L76.5790647,39.0956298 L72.5586204,39.0956298 L72.5586204,43.4294775 Z M72.5586204,38.5192067 L76.5790647,38.5192067 L76.5790647,34.2333942 L72.5586204,34.2333942 L72.5586204,38.5192067 Z M72.5586204,33.6569711 L76.5790647,33.6569711 L76.5790647,29.3711586 L72.5586204,29.3711586 L72.5586204,33.6569711 Z M72.5586204,28.7920669 L76.5790647,28.7920669 L76.5790647,24.4582192 L72.5586204,24.4582192 L72.5586204,28.7920669 Z M72.5586204,23.8817961 L76.5790647,23.8817961 L76.5790647,19.5959836 L72.5586204,19.5959836 L72.5586204,23.8817961 Z M72.5586204,19.0168919 L76.5790647,19.0168919 L76.5790647,14.6830441 L72.5586204,14.6830441 L72.5586204,19.0168919 Z M68.0479989,19.0168919 L72.0238815,19.0168919 L72.0238815,14.6830441 L68.0479989,14.6830441 L68.0479989,19.0168919 Z M63.4928158,19.0168919 L67.51326,19.0168919 L67.51326,14.6830441 L63.4928158,14.6830441 L63.4928158,19.0168919 Z" id="Fill-50" fill="#FEFEFE"></path>
                <path d="M108.784704,48.1262583 L112.758111,48.1262583 L112.758111,43.8431145 L108.784704,43.8431145 L108.784704,48.1262583 Z M108.784704,43.2640227 L112.758111,43.2640227 L112.758111,38.930175 L108.784704,38.930175 L108.784704,43.2640227 Z M108.784704,38.3510833 L112.758111,38.3510833 L112.758111,34.0652708 L108.784704,34.0652708 L108.784704,38.3510833 Z M108.784704,33.4888477 L112.758111,33.4888477 L112.758111,29.2030352 L108.784704,29.2030352 L108.784704,33.4888477 Z M108.784704,28.6239435 L112.758111,28.6239435 L112.758111,24.2900958 L108.784704,24.2900958 L108.784704,28.6239435 Z M108.784704,23.7136727 L112.758111,23.7136727 L112.758111,19.4278602 L108.784704,19.4278602 L108.784704,23.7136727 Z M104.227046,48.1262583 L108.24749,48.1262583 L108.24749,43.8431145 L104.227046,43.8431145 L104.227046,48.1262583 Z M104.227046,43.2640227 L108.24749,43.2640227 L108.24749,38.930175 L104.227046,38.930175 L104.227046,43.2640227 Z M104.227046,38.3510833 L108.24749,38.3510833 L108.24749,34.0652708 L104.227046,34.0652708 L104.227046,38.3510833 Z M104.227046,33.4888477 L108.24749,33.4888477 L108.24749,29.2030352 L104.227046,29.2030352 L104.227046,33.4888477 Z M104.227046,28.6239435 L108.24749,28.6239435 L108.24749,24.2900958 L104.227046,24.2900958 L104.227046,28.6239435 Z M104.227046,23.7136727 L108.24749,23.7136727 L108.24749,19.4278602 L104.227046,19.4278602 L104.227046,23.7136727 Z M104.227046,18.8514371 L108.24749,18.8514371 L108.24749,14.5175893 L104.227046,14.5175893 L104.227046,18.8514371 Z M99.716424,38.3991185 L103.692307,38.3991185 L103.692307,34.1133061 L99.716424,34.1133061 L99.716424,38.3991185 Z M99.716424,23.6656374 L103.692307,23.6656374 L103.692307,19.3798249 L99.716424,19.3798249 L99.716424,23.6656374 Z M99.716424,18.8514371 L103.692307,18.8514371 L103.692307,14.5175893 L99.716424,14.5175893 L99.716424,18.8514371 Z M95.2033269,38.3991185 L99.1792095,38.3991185 L99.1792095,34.1133061 L95.2033269,34.1133061 L95.2033269,38.3991185 Z M95.2033269,23.6656374 L99.1792095,23.6656374 L99.1792095,19.3798249 L95.2033269,19.3798249 L95.2033269,23.6656374 Z M95.2033269,18.8514371 L99.1792095,18.8514371 L99.1792095,14.5175893 L95.2033269,14.5175893 L95.2033269,18.8514371 Z M90.6481438,48.1262583 L94.668588,48.1262583 L94.668588,43.8431145 L90.6481438,43.8431145 L90.6481438,48.1262583 Z M90.6481438,43.2640227 L94.668588,43.2640227 L94.668588,38.930175 L90.6481438,38.930175 L90.6481438,43.2640227 Z M90.6481438,38.3510833 L94.668588,38.3510833 L94.668588,34.0652708 L90.6481438,34.0652708 L90.6481438,38.3510833 Z M90.6481438,33.4888477 L94.668588,33.4888477 L94.668588,29.2030352 L90.6481438,29.2030352 L90.6481438,33.4888477 Z M90.6481438,28.6239435 L94.668588,28.6239435 L94.668588,24.2900958 L90.6481438,24.2900958 L90.6481438,28.6239435 Z M90.6481438,23.7136727 L94.668588,23.7136727 L94.668588,19.4278602 L90.6481438,19.4278602 L90.6481438,23.7136727 Z" id="Fill-51" fill="#FEFEFE"></path>
                <path d="M144.924141,48.2943817 L148.944585,48.2943817 L148.944585,44.0112379 L144.924141,44.0112379 L144.924141,48.2943817 Z M140.413519,48.2943817 L144.433963,48.2943817 L144.433963,44.0112379 L140.413519,44.0112379 L140.413519,48.2943817 Z M140.413519,43.4294775 L144.433963,43.4294775 L144.433963,39.0956298 L140.413519,39.0956298 L140.413519,43.4294775 Z M140.413519,28.7920669 L144.433963,28.7920669 L144.433963,24.4582192 L140.413519,24.4582192 L140.413519,28.7920669 Z M140.413519,23.8817961 L144.433963,23.8817961 L144.433963,19.5959836 L140.413519,19.5959836 L140.413519,23.8817961 Z M135.902898,48.2943817 L139.876305,48.2943817 L139.876305,44.0112379 L135.902898,44.0112379 L135.902898,48.2943817 Z M135.902898,43.4294775 L139.876305,43.4294775 L139.876305,39.0956298 L135.902898,39.0956298 L135.902898,43.4294775 Z M135.902898,38.5192067 L139.876305,38.5192067 L139.876305,34.2333942 L135.902898,34.2333942 L135.902898,38.5192067 Z M135.902898,33.6569711 L139.876305,33.6569711 L139.876305,29.3711586 L135.902898,29.3711586 L135.902898,33.6569711 Z M135.902898,28.7920669 L139.876305,28.7920669 L139.876305,24.4582192 L135.902898,24.4582192 L135.902898,28.7920669 Z M135.902898,23.8817961 L139.876305,23.8817961 L139.876305,19.5959836 L135.902898,19.5959836 L135.902898,23.8817961 Z M135.902898,19.0168919 L139.876305,19.0168919 L139.876305,14.6830441 L135.902898,14.6830441 L135.902898,19.0168919 Z M131.3898,38.5192067 L135.365683,38.5192067 L135.365683,34.2333942 L131.3898,34.2333942 L131.3898,38.5192067 Z M131.3898,33.6569711 L135.365683,33.6569711 L135.365683,29.3711586 L131.3898,29.3711586 L131.3898,33.6569711 Z M131.3898,19.0168919 L135.365683,19.0168919 L135.365683,14.6830441 L131.3898,14.6830441 L131.3898,19.0168919 Z M126.834617,33.6569711 L130.855062,33.6569711 L130.855062,29.3711586 L126.834617,29.3711586 L126.834617,33.6569711 Z M126.834617,19.0168919 L130.855062,19.0168919 L130.855062,14.6830441 L126.834617,14.6830441 L126.834617,19.0168919 Z M122.32152,48.2943817 L126.297403,48.2943817 L126.297403,44.0112379 L122.32152,44.0112379 L122.32152,48.2943817 Z M122.32152,43.4294775 L126.297403,43.4294775 L126.297403,39.0956298 L122.32152,39.0956298 L122.32152,43.4294775 Z M122.32152,38.5192067 L126.297403,38.5192067 L126.297403,34.2333942 L122.32152,34.2333942 L122.32152,38.5192067 Z M122.32152,33.6569711 L126.297403,33.6569711 L126.297403,29.3711586 L122.32152,29.3711586 L122.32152,33.6569711 Z M122.32152,28.7920669 L126.297403,28.7920669 L126.297403,24.4582192 L122.32152,24.4582192 L122.32152,28.7920669 Z M122.32152,23.8817961 L126.297403,23.8817961 L126.297403,19.5959836 L122.32152,19.5959836 L122.32152,23.8817961 Z M122.32152,19.0168919 L126.297403,19.0168919 L126.297403,14.6830441 L122.32152,14.6830441 L122.32152,19.0168919 Z M117.766337,48.2943817 L121.786781,48.2943817 L121.786781,44.0112379 L117.766337,44.0112379 L117.766337,48.2943817 Z M117.766337,43.4294775 L121.786781,43.4294775 L121.786781,39.0956298 L117.766337,39.0956298 L117.766337,43.4294775 Z M117.766337,38.5192067 L121.786781,38.5192067 L121.786781,34.2333942 L117.766337,34.2333942 L117.766337,38.5192067 Z M117.766337,33.6569711 L121.786781,33.6569711 L121.786781,29.3711586 L117.766337,29.3711586 L117.766337,33.6569711 Z M117.766337,28.7920669 L121.786781,28.7920669 L121.786781,24.4582192 L117.766337,24.4582192 L117.766337,28.7920669 Z M117.766337,23.8817961 L121.786781,23.8817961 L121.786781,19.5959836 L117.766337,19.5959836 L117.766337,23.8817961 Z M117.766337,19.0168919 L121.786781,19.0168919 L121.786781,14.6830441 L117.766337,14.6830441 L117.766337,19.0168919 Z" id="Fill-52" fill="#FEFEFE"></path>
                <path d="M167.705008,19.0168919 L171.678415,19.0168919 L171.678415,14.6830441 L167.705008,14.6830441 L167.705008,19.0168919 Z M163.236472,19.0168919 L167.212355,19.0168919 L167.212355,14.6830441 L163.236472,14.6830441 L163.236472,19.0168919 Z M158.72585,48.2943817 L162.701733,48.2943817 L162.701733,44.0112379 L158.72585,44.0112379 L158.72585,48.2943817 Z M158.72585,43.4294775 L162.701733,43.4294775 L162.701733,39.0956298 L158.72585,39.0956298 L158.72585,43.4294775 Z M158.72585,38.5192067 L162.701733,38.5192067 L162.701733,34.2333942 L158.72585,34.2333942 L158.72585,38.5192067 Z M158.72585,33.6569711 L162.701733,33.6569711 L162.701733,29.3711586 L158.72585,29.3711586 L158.72585,33.6569711 Z M158.72585,28.7920669 L162.701733,28.7920669 L162.701733,24.4582192 L158.72585,24.4582192 L158.72585,28.7920669 Z M158.72585,23.8817961 L162.701733,23.8817961 L162.701733,19.5959836 L158.72585,19.5959836 L158.72585,23.8817961 Z M158.72585,19.0168919 L162.701733,19.0168919 L162.701733,14.6830441 L158.72585,14.6830441 L158.72585,19.0168919 Z M154.165716,48.2943817 L158.188636,48.2943817 L158.188636,44.0112379 L154.165716,44.0112379 L154.165716,48.2943817 Z M154.165716,43.4294775 L158.188636,43.4294775 L158.188636,39.0956298 L154.165716,39.0956298 L154.165716,43.4294775 Z M154.165716,38.5192067 L158.188636,38.5192067 L158.188636,34.2333942 L154.165716,34.2333942 L154.165716,38.5192067 Z M154.165716,33.6569711 L158.188636,33.6569711 L158.188636,29.3711586 L154.165716,29.3711586 L154.165716,33.6569711 Z M154.165716,28.7920669 L158.188636,28.7920669 L158.188636,24.4582192 L154.165716,24.4582192 L154.165716,28.7920669 Z M154.165716,23.8817961 L158.188636,23.8817961 L158.188636,19.5959836 L154.165716,19.5959836 L154.165716,23.8817961 Z M154.165716,19.0168919 L158.188636,19.0168919 L158.188636,14.6830441 L154.165716,14.6830441 L154.165716,19.0168919 Z M149.660046,19.0168919 L153.633453,19.0168919 L153.633453,14.6830441 L149.660046,14.6830441 L149.660046,19.0168919 Z M145.099911,19.0168919 L149.120356,19.0168919 L149.120356,14.6830441 L145.099911,14.6830441 L145.099911,19.0168919 Z" id="Fill-53" fill="#FEFEFE"></path>
            </g>
        </g>
    </g>
</svg>