<?xml version="1.0" encoding="UTF-8"?>
<svg width="228px" height="186px" viewBox="0 0 228 186" version="1.1" xmlns="http://www.w3.org/2000/svg" xmlns:xlink="http://www.w3.org/1999/xlink">
    <!-- Generator: Sketch 45.2 (43514) - http://www.bohemiancoding.com/sketch -->
    <title>Group 2</title>
    <desc>Created with Sketch.</desc>
    <defs></defs>
    <g id="Page-1" stroke="none" stroke-width="1" fill="none" fill-rule="evenodd">
        <g id="Group-2">
            <g id="title-star-copy" transform="translate(165.000000, 0.000000)" fill="#EFE400">
                <polygon id="Fill-1" points="20.0454294 30.8121693 30.4810195 30.8121693 30.4810195 20.4529196 20.0454294 20.4529196"></polygon>
                <polygon id="Fill-2" points="20.0454294 42.4386606 30.4810195 42.4386606 30.4810195 32.1941676 20.0454294 32.1941676"></polygon>
                <polygon id="Fill-3" points="31.8715507 30.8121693 42.1915384 30.8121693 42.1915384 20.4529196 31.8715507 20.4529196"></polygon>
                <polygon id="Fill-4" points="26.1872176 18.398775 36.5072053 18.398775 36.5072053 8.0395253 26.1872176 8.0395253"></polygon>
                <polygon id="Fill-5" points="26.1872176 54.5094242 36.5072053 54.5094242 36.5072053 44.1501745 26.1872176 44.1501745"></polygon>
                <polygon id="Fill-6" points="44.3186218 36.3975409 54.7542119 36.3975409 54.7542119 26.153048 44.3186218 26.153048"></polygon>
                <polygon id="Fill-7" points="56.5955924 33.8761727 62.6201267 33.8761727 62.6201267 27.9629248 56.5955924 27.9629248"></polygon>
                <polygon id="Fill-8" points="0.325318439 33.8761727 6.3498528 33.8761727 6.3498528 27.9629248 0.325318439 27.9629248"></polygon>
                <polygon id="Fill-9" points="28.4926589 5.98210192 34.4511348 5.98210192 34.4511348 0 28.4926589 0"></polygon>
                <polygon id="Fill-10" points="28.4943104 61.8390975 34.4511348 61.8390975 34.4511348 55.8602743 28.4943104 55.8602743"></polygon>
                <polygon id="Fill-11" points="7.94186243 36.3975409 18.3774525 36.3975409 18.3774525 26.153048 7.94186243 26.153048"></polygon>
                <polygon id="Fill-12" points="31.8715507 42.4386606 42.1915384 42.4386606 42.1915384 32.1941676 31.8715507 32.1941676"></polygon>
            </g>
            <g id="title-copy" transform="translate(0.000000, 55.000000)" fill="#FFFFFF">
                <path d="M34.2682616,8.04209271 L41.7817831,8.04209271 L41.7817831,0.438701537 L34.2682616,0.438701537 L34.2682616,8.04209271 Z M25.744331,8.04209271 L33.2578525,8.04209271 L33.2578525,0.438701537 L25.744331,0.438701537 L25.744331,8.04209271 Z M17.1335101,8.04209271 L24.7314393,8.04209271 L24.7314393,0.438701537 L17.1335101,0.438701537 L17.1335101,8.04209271 Z M8.60833825,8.04209271 L16.1218597,8.04209271 L16.1218597,0.438701537 L8.60833825,0.438701537 L8.60833825,8.04209271 Z M8.60833825,16.5747873 L16.1218597,16.5747873 L16.1218597,9.0558782 L8.60833825,9.0558782 L8.60833825,16.5747873 Z M0,16.5747873 L7.59668783,16.5747873 L7.59668783,9.0558782 L0,9.0558782 L0,16.5747873 Z M17.1335101,25.1919639 L24.7314393,25.1919639 L24.7314393,17.5885727 L17.1335101,17.5885727 L17.1335101,25.1919639 Z M8.60833825,25.1919639 L16.1218597,25.1919639 L16.1218597,17.5885727 L8.60833825,17.5885727 L8.60833825,25.1919639 Z M0,25.1919639 L7.59668783,25.1919639 L7.59668783,17.5885727 L0,17.5885727 L0,25.1919639 Z M25.744331,33.7246585 L33.2578525,33.7246585 L33.2578525,26.204507 L25.744331,26.204507 L25.744331,33.7246585 Z M17.1335101,33.7246585 L24.7314393,33.7246585 L24.7314393,26.204507 L17.1335101,26.204507 L17.1335101,33.7246585 Z M8.60833825,33.7246585 L16.1218597,33.7246585 L16.1218597,26.204507 L8.60833825,26.204507 L8.60833825,33.7246585 Z M34.2682616,42.257353 L41.7817831,42.257353 L41.7817831,34.7384439 L34.2682616,34.7384439 L34.2682616,42.257353 Z M25.744331,42.257353 L33.2578525,42.257353 L33.2578525,34.7384439 L25.744331,34.7384439 L25.744331,42.257353 Z M17.1335101,42.257353 L24.6470316,42.257353 L24.6470316,34.7384439 L17.1335101,34.7384439 L17.1335101,42.257353 Z M34.2682616,50.8745297 L41.7817831,50.8745297 L41.7817831,43.2711385 L34.2682616,43.2711385 L34.2682616,50.8745297 Z M25.744331,50.8745297 L33.2578525,50.8745297 L33.2578525,43.2711385 L25.744331,43.2711385 L25.744331,50.8745297 Z M25.744331,59.4072242 L33.2578525,59.4072242 L33.2578525,51.8883151 L25.744331,51.8883151 L25.744331,59.4072242 Z M17.1335101,59.4072242 L24.7314393,59.4072242 L24.7314393,51.8883151 L17.1335101,51.8883151 L17.1335101,59.4072242 Z M8.60833825,59.4072242 L16.1218597,59.4072242 L16.1218597,51.8883151 L8.60833825,51.8883151 L8.60833825,59.4072242 Z M0,59.4072242 L7.59668783,59.4072242 L7.59668783,51.8883151 L0,51.8883151 L0,59.4072242 Z" id="Fill-13"></path>
                <path d="M76.8953624,8.04209271 L84.4076425,8.04209271 L84.4076425,0.438701537 L76.8953624,0.438701537 L76.8953624,8.04209271 Z M68.4533568,8.04209271 L75.965637,8.04209271 L75.965637,0.438701537 L68.4533568,0.438701537 L68.4533568,8.04209271 Z M59.9294262,59.4072242 L67.4417064,59.4072242 L67.4417064,51.8883151 L59.9294262,51.8883151 L59.9294262,59.4072242 Z M59.9294262,50.8745297 L67.4417064,50.8745297 L67.4417064,43.2711385 L59.9294262,43.2711385 L59.9294262,50.8745297 Z M59.9294262,42.257353 L67.4417064,42.257353 L67.4417064,34.7384439 L59.9294262,34.7384439 L59.9294262,42.257353 Z M59.9294262,33.7246585 L67.4417064,33.7246585 L67.4417064,26.2057494 L59.9294262,26.2057494 L59.9294262,33.7246585 Z M59.9294262,25.1919639 L67.4417064,25.1919639 L67.4417064,17.5885727 L59.9294262,17.5885727 L59.9294262,25.1919639 Z M59.9294262,16.5747873 L67.4417064,16.5747873 L67.4417064,9.0558782 L59.9294262,9.0558782 L59.9294262,16.5747873 Z M59.9294262,8.04209271 L67.4417064,8.04209271 L67.4417064,0.438701537 L59.9294262,0.438701537 L59.9294262,8.04209271 Z M51.3186054,59.4072242 L58.9152932,59.4072242 L58.9152932,51.8883151 L51.3186054,51.8883151 L51.3186054,59.4072242 Z M51.3186054,50.8745297 L58.9152932,50.8745297 L58.9152932,43.2711385 L51.3186054,43.2711385 L51.3186054,50.8745297 Z M51.3186054,42.257353 L58.9152932,42.257353 L58.9152932,34.7384439 L51.3186054,34.7384439 L51.3186054,42.257353 Z M51.3186054,33.7246585 L58.9152932,33.7246585 L58.9152932,26.2057494 L51.3186054,26.2057494 L51.3186054,33.7246585 Z M51.3186054,25.1919639 L58.9152932,25.1919639 L58.9152932,17.5885727 L51.3186054,17.5885727 L51.3186054,25.1919639 Z M51.3186054,16.5747873 L58.9152932,16.5747873 L58.9152932,9.0558782 L51.3186054,9.0558782 L51.3186054,16.5747873 Z M51.3186054,8.04209271 L58.9152932,8.04209271 L58.9152932,0.438701537 L51.3186054,0.438701537 L51.3186054,8.04209271 Z M42.7934335,8.04209271 L50.3057137,8.04209271 L50.3057137,0.438701537 L42.7934335,0.438701537 L42.7934335,8.04209271 Z M34.1838539,8.04209271 L41.7805418,8.04209271 L41.7805418,0.438701537 L34.1838539,0.438701537 L34.1838539,8.04209271 Z" id="Fill-14"></path>
                <path d="M119.181109,59.4072242 L126.693389,59.4072242 L126.693389,51.8883151 L119.181109,51.8883151 L119.181109,59.4072242 Z M119.181109,50.8745297 L126.693389,50.8745297 L126.693389,43.2711385 L119.181109,43.2711385 L119.181109,50.8745297 Z M119.181109,42.257353 L126.693389,42.257353 L126.693389,34.7384439 L119.181109,34.7384439 L119.181109,42.257353 Z M119.181109,33.7246585 L126.693389,33.7246585 L126.693389,26.2057494 L119.181109,26.2057494 L119.181109,33.7246585 Z M119.181109,25.1919639 L126.693389,25.1919639 L126.693389,17.5885727 L119.181109,17.5885727 L119.181109,25.1919639 Z M119.181109,16.5747873 L126.693389,16.5747873 L126.693389,9.0558782 L119.181109,9.0558782 L119.181109,16.5747873 Z M110.57277,59.4072242 L118.169458,59.4072242 L118.169458,51.8883151 L110.57277,51.8883151 L110.57277,59.4072242 Z M110.57277,50.8745297 L118.169458,50.8745297 L118.169458,43.2711385 L110.57277,43.2711385 L110.57277,50.8745297 Z M110.57277,42.257353 L118.169458,42.257353 L118.169458,34.7384439 L110.57277,34.7384439 L110.57277,42.257353 Z M110.57277,33.7246585 L118.169458,33.7246585 L118.169458,26.2057494 L110.57277,26.2057494 L110.57277,33.7246585 Z M110.57277,25.1919639 L118.169458,25.1919639 L118.169458,17.5885727 L110.57277,17.5885727 L110.57277,25.1919639 Z M110.57277,16.5747873 L118.169458,16.5747873 L118.169458,9.0558782 L110.57277,9.0558782 L110.57277,16.5747873 Z M110.57277,8.04209271 L118.169458,8.04209271 L118.169458,0.438701537 L110.57277,0.438701537 L110.57277,8.04209271 Z M102.047599,42.3418351 L109.559879,42.3418351 L109.559879,34.8229261 L102.047599,34.8229261 L102.047599,42.3418351 Z M102.047599,16.4903051 L109.559879,16.4903051 L109.559879,8.97139608 L102.047599,8.97139608 L102.047599,16.4903051 Z M102.047599,8.04209271 L109.559879,8.04209271 L109.559879,0.438701537 L102.047599,0.438701537 L102.047599,8.04209271 Z M93.5224267,42.3418351 L101.034707,42.3418351 L101.034707,34.8229261 L93.5224267,34.8229261 L93.5224267,42.3418351 Z M93.5224267,16.4903051 L101.034707,16.4903051 L101.034707,8.97139608 L93.5224267,8.97139608 L93.5224267,16.4903051 Z M93.5224267,8.04209271 L101.034707,8.04209271 L101.034707,0.438701537 L93.5224267,0.438701537 L93.5224267,8.04209271 Z M84.9116058,59.4072242 L92.5082937,59.4072242 L92.5082937,51.8883151 L84.9116058,51.8883151 L84.9116058,59.4072242 Z M84.9116058,50.8745297 L92.5082937,50.8745297 L92.5082937,43.2711385 L84.9116058,43.2711385 L84.9116058,50.8745297 Z M84.9116058,42.257353 L92.5082937,42.257353 L92.5082937,34.7384439 L84.9116058,34.7384439 L84.9116058,42.257353 Z M84.9116058,33.7246585 L92.5082937,33.7246585 L92.5082937,26.2057494 L84.9116058,26.2057494 L84.9116058,33.7246585 Z M84.9116058,25.1919639 L92.5082937,25.1919639 L92.5082937,17.5885727 L84.9116058,17.5885727 L84.9116058,25.1919639 Z M84.9116058,16.5747873 L92.5082937,16.5747873 L92.5082937,9.0558782 L84.9116058,9.0558782 L84.9116058,16.5747873 Z" id="Fill-15"></path>
                <path d="M184.25816,59.4072242 L191.856089,59.4072242 L191.856089,51.8883151 L184.25816,51.8883151 L184.25816,59.4072242 Z M175.732988,59.4072242 L183.329676,59.4072242 L183.329676,51.8883151 L175.732988,51.8883151 L175.732988,59.4072242 Z M175.732988,50.8745297 L183.329676,50.8745297 L183.329676,43.2711385 L175.732988,43.2711385 L175.732988,50.8745297 Z M175.732988,25.1919639 L183.329676,25.1919639 L183.329676,17.5885727 L175.732988,17.5885727 L175.732988,25.1919639 Z M175.732988,16.5747873 L183.329676,16.5747873 L183.329676,9.0558782 L175.732988,9.0558782 L175.732988,16.5747873 Z M167.209057,59.4072242 L174.721338,59.4072242 L174.721338,51.8883151 L167.209057,51.8883151 L167.209057,59.4072242 Z M167.209057,50.8745297 L174.721338,50.8745297 L174.721338,43.2711385 L167.209057,43.2711385 L167.209057,50.8745297 Z M167.209057,42.257353 L174.721338,42.257353 L174.721338,34.7384439 L167.209057,34.7384439 L167.209057,42.257353 Z M167.209057,33.7246585 L174.721338,33.7246585 L174.721338,26.2057494 L167.209057,26.2057494 L167.209057,33.7246585 Z M167.209057,25.1919639 L174.721338,25.1919639 L174.721338,17.5885727 L167.209057,17.5885727 L167.209057,25.1919639 Z M167.209057,16.5747873 L174.721338,16.5747873 L174.721338,9.0558782 L167.209057,9.0558782 L167.209057,16.5747873 Z M167.209057,8.04209271 L174.721338,8.04209271 L174.721338,0.438701537 L167.209057,0.438701537 L167.209057,8.04209271 Z M158.683885,42.257353 L166.196166,42.257353 L166.196166,34.7384439 L158.683885,34.7384439 L158.683885,42.257353 Z M158.683885,33.7246585 L166.196166,33.7246585 L166.196166,26.2057494 L158.683885,26.2057494 L158.683885,33.7246585 Z M158.683885,8.04209271 L166.196166,8.04209271 L166.196166,0.438701537 L158.683885,0.438701537 L158.683885,8.04209271 Z M150.074306,33.7246585 L157.670994,33.7246585 L157.670994,26.2057494 L150.074306,26.2057494 L150.074306,33.7246585 Z M150.074306,8.04209271 L157.670994,8.04209271 L157.670994,0.438701537 L150.074306,0.438701537 L150.074306,8.04209271 Z M141.549134,59.4072242 L149.061414,59.4072242 L149.061414,51.8883151 L141.549134,51.8883151 L141.549134,59.4072242 Z M141.549134,50.8745297 L149.061414,50.8745297 L149.061414,43.2711385 L141.549134,43.2711385 L141.549134,50.8745297 Z M141.549134,42.257353 L149.061414,42.257353 L149.061414,34.7384439 L141.549134,34.7384439 L141.549134,42.257353 Z M141.549134,33.7246585 L149.061414,33.7246585 L149.061414,26.2057494 L141.549134,26.2057494 L141.549134,33.7246585 Z M141.549134,25.1919639 L149.061414,25.1919639 L149.061414,17.5885727 L141.549134,17.5885727 L141.549134,25.1919639 Z M141.549134,16.5747873 L149.061414,16.5747873 L149.061414,9.0558782 L141.549134,9.0558782 L141.549134,16.5747873 Z M141.549134,8.04209271 L149.061414,8.04209271 L149.061414,0.438701537 L141.549134,0.438701537 L141.549134,8.04209271 Z M132.939554,59.4072242 L140.536242,59.4072242 L140.536242,51.8883151 L132.939554,51.8883151 L132.939554,59.4072242 Z M132.939554,50.8745297 L140.536242,50.8745297 L140.536242,43.2711385 L132.939554,43.2711385 L132.939554,50.8745297 Z M132.939554,42.257353 L140.536242,42.257353 L140.536242,34.7384439 L132.939554,34.7384439 L132.939554,42.257353 Z M132.939554,33.7246585 L140.536242,33.7246585 L140.536242,26.2057494 L132.939554,26.2057494 L132.939554,33.7246585 Z M132.939554,25.1919639 L140.536242,25.1919639 L140.536242,17.5885727 L132.939554,17.5885727 L132.939554,25.1919639 Z M132.939554,16.5747873 L140.536242,16.5747873 L140.536242,9.0558782 L132.939554,9.0558782 L132.939554,16.5747873 Z M132.939554,8.04209271 L140.536242,8.04209271 L140.536242,0.438701537 L132.939554,0.438701537 L132.939554,8.04209271 Z" id="Fill-16"></path>
                <path d="M34.2682616,79.6046638 L41.7817831,79.6046638 L41.7817831,72.0000302 L34.2682616,72.0000302 L34.2682616,79.6046638 Z M25.744331,79.6046638 L33.2578525,79.6046638 L33.2578525,72.0000302 L25.744331,72.0000302 L25.744331,79.6046638 Z M17.1335101,79.6046638 L24.7314393,79.6046638 L24.7314393,72.0000302 L17.1335101,72.0000302 L17.1335101,79.6046638 Z M8.60833825,79.6046638 L16.1218597,79.6046638 L16.1218597,72.0000302 L8.60833825,72.0000302 L8.60833825,79.6046638 Z M0,79.6046638 L7.59668783,79.6046638 L7.59668783,72.0000302 L0,72.0000302 L0,79.6046638 Z M8.60833825,88.1361159 L16.1218597,88.1361159 L16.1218597,80.6172069 L8.60833825,80.6172069 L8.60833825,88.1361159 Z M0,88.1361159 L7.59668783,88.1361159 L7.59668783,80.6172069 L0,80.6172069 L0,88.1361159 Z M25.744331,96.7532926 L33.2578525,96.7532926 L33.2578525,89.1499014 L25.744331,89.1499014 L25.744331,96.7532926 Z M17.1335101,96.7532926 L24.7314393,96.7532926 L24.7314393,89.1499014 L17.1335101,89.1499014 L17.1335101,96.7532926 Z M8.60833825,96.7532926 L16.1218597,96.7532926 L16.1218597,89.1499014 L8.60833825,89.1499014 L8.60833825,96.7532926 Z M0,96.7532926 L7.59668783,96.7532926 L7.59668783,89.1499014 L0,89.1499014 L0,96.7532926 Z M8.60833825,105.285987 L16.1218597,105.285987 L16.1218597,97.7670781 L8.60833825,97.7670781 L8.60833825,105.285987 Z M0,105.285987 L7.59668783,105.285987 L7.59668783,97.7670781 L0,97.7670781 L0,105.285987 Z M8.60833825,113.819924 L16.1218597,113.819924 L16.1218597,106.299773 L8.60833825,106.299773 L8.60833825,113.819924 Z M0,113.819924 L7.59668783,113.819924 L7.59668783,106.299773 L0,106.299773 L0,113.819924 Z M8.60833825,122.435858 L16.1218597,122.435858 L16.1218597,114.832467 L8.60833825,114.832467 L8.60833825,122.435858 Z M0,122.435858 L7.59668783,122.435858 L7.59668783,114.832467 L0,114.832467 L0,122.435858 Z M8.60833825,130.968553 L16.1218597,130.968553 L16.1218597,123.449644 L8.60833825,123.449644 L8.60833825,130.968553 Z M0,130.968553 L7.59668783,130.968553 L7.59668783,123.449644 L0,123.449644 L0,130.968553 Z" id="Fill-17"></path>
                <path d="M68.8778776,79.6046638 L76.4745654,79.6046638 L76.4745654,72.0000302 L68.8778776,72.0000302 L68.8778776,79.6046638 Z M60.3514644,79.6046638 L67.8649859,79.6046638 L67.8649859,72.0000302 L60.3514644,72.0000302 L60.3514644,79.6046638 Z M51.8262925,79.6046638 L59.339814,79.6046638 L59.339814,72.0000302 L51.8262925,72.0000302 L51.8262925,79.6046638 Z M60.3514644,88.0516338 L67.8649859,88.0516338 L67.8649859,80.5327248 L60.3514644,80.5327248 L60.3514644,88.0516338 Z M51.8262925,88.0516338 L59.339814,88.0516338 L59.339814,80.5327248 L51.8262925,80.5327248 L51.8262925,88.0516338 Z M77.4862159,88.1361159 L84.9997373,88.1361159 L84.9997373,80.6172069 L77.4862159,80.6172069 L77.4862159,88.1361159 Z M68.8778776,88.1361159 L76.4745654,88.1361159 L76.4745654,80.6172069 L68.8778776,80.6172069 L68.8778776,88.1361159 Z M43.216713,88.1361159 L50.8121595,88.1361159 L50.8121595,80.6172069 L43.216713,80.6172069 L43.216713,88.1361159 Z M77.4862159,96.7532926 L84.9997373,96.7532926 L84.9997373,89.1499014 L77.4862159,89.1499014 L77.4862159,96.7532926 Z M68.8778776,96.7532926 L76.4745654,96.7532926 L76.4745654,89.1499014 L68.8778776,89.1499014 L68.8778776,96.7532926 Z M43.216713,96.7532926 L50.8121595,96.7532926 L50.8121595,89.1499014 L43.216713,89.1499014 L43.216713,96.7532926 Z M77.4862159,105.285987 L84.9997373,105.285987 L84.9997373,97.7670781 L77.4862159,97.7670781 L77.4862159,105.285987 Z M68.8778776,105.285987 L76.4745654,105.285987 L76.4745654,97.7670781 L68.8778776,97.7670781 L68.8778776,105.285987 Z M43.216713,105.285987 L50.8121595,105.285987 L50.8121595,97.7670781 L43.216713,97.7670781 L43.216713,105.285987 Z M77.4862159,113.819924 L84.9997373,113.819924 L84.9997373,106.299773 L77.4862159,106.299773 L77.4862159,113.819924 Z M68.8778776,113.819924 L76.4745654,113.819924 L76.4745654,106.299773 L68.8778776,106.299773 L68.8778776,113.819924 Z M43.216713,113.819924 L50.8121595,113.819924 L50.8121595,106.299773 L43.216713,106.299773 L43.216713,113.819924 Z M60.3514644,113.903164 L67.8649859,113.903164 L67.8649859,106.383012 L60.3514644,106.383012 L60.3514644,113.903164 Z M51.8262925,113.903164 L59.339814,113.903164 L59.339814,106.383012 L51.8262925,106.383012 L51.8262925,113.903164 Z M77.4862159,122.435858 L84.9997373,122.435858 L84.9997373,114.832467 L77.4862159,114.832467 L77.4862159,122.435858 Z M68.8778776,122.435858 L76.4745654,122.435858 L76.4745654,114.832467 L68.8778776,114.832467 L68.8778776,122.435858 Z M43.216713,122.435858 L50.8121595,122.435858 L50.8121595,114.832467 L43.216713,114.832467 L43.216713,122.435858 Z M77.4862159,130.968553 L84.9997373,130.968553 L84.9997373,123.449644 L77.4862159,123.449644 L77.4862159,130.968553 Z M68.8778776,130.968553 L76.4745654,130.968553 L76.4745654,123.449644 L68.8778776,123.449644 L68.8778776,130.968553 Z M43.216713,130.968553 L50.8121595,130.968553 L50.8121595,123.449644 L43.216713,123.449644 L43.216713,130.968553 Z" id="Fill-18"></path>
                <path d="M100.697076,79.6046638 L108.210598,79.6046638 L108.210598,72.0000302 L100.697076,72.0000302 L100.697076,79.6046638 Z M92.088738,79.6046638 L99.6854259,79.6046638 L99.6854259,72.0000302 L92.088738,72.0000302 L92.088738,79.6046638 Z M100.697076,88.1361159 L108.210598,88.1361159 L108.210598,80.6172069 L100.697076,80.6172069 L100.697076,88.1361159 Z M92.088738,88.1361159 L99.6854259,88.1361159 L99.6854259,80.6172069 L92.088738,80.6172069 L92.088738,88.1361159 Z M100.697076,96.7532926 L108.210598,96.7532926 L108.210598,89.1499014 L100.697076,89.1499014 L100.697076,96.7532926 Z M92.088738,96.7532926 L99.6854259,96.7532926 L99.6854259,89.1499014 L92.088738,89.1499014 L92.088738,96.7532926 Z M100.697076,105.285987 L108.210598,105.285987 L108.210598,97.7670781 L100.697076,97.7670781 L100.697076,105.285987 Z M92.088738,105.285987 L99.6854259,105.285987 L99.6854259,97.7670781 L92.088738,97.7670781 L92.088738,105.285987 Z M100.697076,113.819924 L108.210598,113.819924 L108.210598,106.299773 L100.697076,106.299773 L100.697076,113.819924 Z M92.088738,113.819924 L99.6854259,113.819924 L99.6854259,106.299773 L92.088738,106.299773 L92.088738,113.819924 Z M100.697076,122.435858 L108.210598,122.435858 L108.210598,114.832467 L100.697076,114.832467 L100.697076,122.435858 Z M92.088738,122.435858 L99.6854259,122.435858 L99.6854259,114.832467 L92.088738,114.832467 L92.088738,122.435858 Z M126.357,130.968553 L133.870521,130.968553 L133.870521,123.449644 L126.357,123.449644 L126.357,130.968553 Z M117.833069,130.968553 L125.345349,130.968553 L125.345349,123.449644 L117.833069,123.449644 L117.833069,130.968553 Z M109.223489,130.968553 L116.820177,130.968553 L116.820177,123.449644 L109.223489,123.449644 L109.223489,130.968553 Z M100.697076,130.968553 L108.210598,130.968553 L108.210598,123.449644 L100.697076,123.449644 L100.697076,130.968553 Z M92.088738,130.968553 L99.6854259,130.968553 L99.6854259,123.449644 L92.088738,123.449644 L92.088738,130.968553 Z" id="Fill-19"></path>
                <path d="M149.484694,79.6046638 L156.998215,79.6046638 L156.998215,72.0000302 L149.484694,72.0000302 L149.484694,79.6046638 Z M140.875114,79.6046638 L148.471802,79.6046638 L148.471802,72.0000302 L140.875114,72.0000302 L140.875114,79.6046638 Z M149.484694,88.1361159 L156.998215,88.1361159 L156.998215,80.6172069 L149.484694,80.6172069 L149.484694,88.1361159 Z M140.875114,88.1361159 L148.471802,88.1361159 L148.471802,80.6172069 L140.875114,80.6172069 L140.875114,88.1361159 Z M149.484694,96.7532926 L156.998215,96.7532926 L156.998215,89.1499014 L149.484694,89.1499014 L149.484694,96.7532926 Z M140.875114,96.7532926 L148.471802,96.7532926 L148.471802,89.1499014 L140.875114,89.1499014 L140.875114,96.7532926 Z M149.484694,105.285987 L156.998215,105.285987 L156.998215,97.7670781 L149.484694,97.7670781 L149.484694,105.285987 Z M140.875114,105.285987 L148.471802,105.285987 L148.471802,97.7670781 L140.875114,97.7670781 L140.875114,105.285987 Z M149.484694,113.819924 L156.998215,113.819924 L156.998215,106.299773 L149.484694,106.299773 L149.484694,113.819924 Z M140.875114,113.819924 L148.471802,113.819924 L148.471802,106.299773 L140.875114,106.299773 L140.875114,113.819924 Z M149.484694,122.435858 L156.998215,122.435858 L156.998215,114.832467 L149.484694,114.832467 L149.484694,122.435858 Z M140.875114,122.435858 L148.471802,122.435858 L148.471802,114.832467 L140.875114,114.832467 L140.875114,122.435858 Z M175.144617,130.968553 L182.658138,130.968553 L182.658138,123.449644 L175.144617,123.449644 L175.144617,130.968553 Z M166.619445,130.968553 L174.131725,130.968553 L174.131725,123.449644 L166.619445,123.449644 L166.619445,130.968553 Z M158.009866,130.968553 L165.606553,130.968553 L165.606553,123.449644 L158.009866,123.449644 L158.009866,130.968553 Z M149.484694,130.968553 L156.998215,130.968553 L156.998215,123.449644 L149.484694,123.449644 L149.484694,130.968553 Z M140.875114,130.968553 L148.471802,130.968553 L148.471802,123.449644 L140.875114,123.449644 L140.875114,130.968553 Z" id="Fill-20"></path>
            </g>
        </g>
    </g>
</svg>